<svg width="231" height="152" fill="none" xmlns="http://www.w3.org/2000/svg"><path d="M184.123 72.328c.997.087 1.56.26 1.734.541.173.282.39.693.671 1.234.282.541.109 1.212-.476 2.035-.824.433-1.907 1.234-3.294 2.424-1.365 1.191-3.51 3.226-6.392 6.148.65.52 1.061.996 1.256 1.45.195.455.195 1.819 0 4.135-.195 2.295-.52 5.217-.975 8.724a252.39 252.39 0 00-.997 8.789c-.216 2.338-.108 4.005.326 5 .346 1.386.065 2.273-.846 2.685-.91.411-1.798.195-2.708-.606-.434-.91-.759-1.949-.975-3.161a28.8 28.8 0 01.195-6.386c.65-5.758 1.105-9.914 1.386-12.447.282-2.533.477-4.221.607-5.022-2.405 2.23-4.464 4.243-6.154 6.018a67.246 67.246 0 00-4.355 5.022c-1.214 1.558-2.037 2.619-2.514 3.117-.39.433-.65.801-.802 1.104-.151.303-.303.866-.476 1.667 0 1.126-.586 1.667-1.734 1.667-1.083-.13-1.777-.563-2.124-1.299-.346-.736-.325-1.645.044-2.749.368-1.104 1.538-2.923 3.554-5.52 1.993-2.576 4.268-5.217 6.804-7.902a662.332 662.332 0 017.671-7.987c2.578-2.641 4.68-4.655 6.327-6.018 1.625-1.386 3.055-2.273 4.269-2.706l-.022.043zM47.867 7.363c.13 1.992.217 17.427.238 19.678.022 2.273.087 4.503.174 6.732.086 2.23.13 3.897.151 4.98.715.086 1.604.064 2.666-.087 2.448-.477 4.745-.975 6.89-1.472 2.146-.498 4.161-.91 6.068-1.213 1.278.13 2.015.433 2.167.953.152.52.238 1.212.26 2.078-1.452.65-3.402 1.277-5.83 1.883-2.426.606-4.376 1.083-5.872 1.45-1.495.369-2.513.65-3.098.845-.585.195-1.539.195-2.882 0-.239 1.342-.26 3.009-.065 4.957s.455 4.113.823 6.473c.347 2.36.845 4.805 1.495 7.36.65 2.554 4.4 19.742 5.093 21.452-1.582.628-2.73.736-3.402.347-.65-.412-1.127-1.126-1.496-2.122-.346-1.017-3.943-18.01-4.593-20.89-.65-2.879-1.257-7.251-1.799-13.161-.542-5.91-.867-10.975-.953-15.24-.087-4.264-.174-20.413-.196-21.864a40.252 40.252 0 00-.476-4.892c-.065-.823.195-1.277.737-1.364.498-.086 1.278.152 2.297.736 1.018.585 1.56 1.364 1.603 2.36v.021zm55.928 24.744c-.888-.281-1.95-.411-3.185-.39-1.235.022-3.38.563-6.392 1.646-3.013 1.082-5.461 2.23-7.325 3.485-1.863 1.234-3.077 2.165-3.683 2.749-.347.281-.694.52-1.04.736-.347.217-.78.238-1.3.065a5.522 5.522 0 01-2.124-2.381c-.044-.303 0-.606.195-.953a3.12 3.12 0 01.606-.822c1.539-1.19 4.204-2.663 7.996-4.46 3.792-1.775 7.628-3.074 11.507-3.896a11.585 11.585 0 013.77-.043c1.279.194 2.406.67 3.381 1.471.606.412 1.105.931 1.56 1.56.433.627.672 1.276.672 1.969a5.66 5.66 0 01-.434 2.165c-.867 2.251-2.188 4.762-3.965 7.576a246.185 246.185 0 01-4.984 7.555c-1.539 2.23-2.687 4.07-3.38 5.499-.369.627-.672 1.082-.89 1.342-.216.26-.758.281-1.624.086-1.04-.433-1.69-.887-1.95-1.363-.26-.477-.066-1.32.606-2.533 3.446-5.196 6.176-9.417 8.191-12.664 1.994-3.247 3.186-5.26 3.532-6.018a3.967 3.967 0 00.304-2.403l-.044.022zm-1.972-16.019c-.411.411-.693.714-.888.91-.195.194-.715.216-1.625.13-.802-.347-1.95-.304-3.467.086-1.495.39-3.034.844-4.616 1.363a163.74 163.74 0 00-4.81 1.689 35.922 35.922 0 00-4.724 2.165c-.78.303-1.56.303-2.362 0-.802-.325-1.365-.888-1.669-1.71-.173-.455-.086-.91.26-1.364.325-.455.715-.736 1.127-.845 1.929-.909 4.139-1.796 6.61-2.662 2.47-.866 4.81-1.602 7.02-2.208 1.365-.368 2.644-.671 3.77-.866.672-.13 1.322-.216 1.929-.281 1.04-.044 1.82.28 2.384 1.017.563.736.91 1.58 1.083 2.554l-.022.022zm18.961 3.462a76.203 76.203 0 004.117-1.904c1.799-.888 4.269-1.905 7.389-3.074 2.991-1.126 5.548-1.884 7.65-2.273l.26-.044c2.167-.346 3.857-.433 5.092-.281 1.235.152 2.167.8 2.795 1.97 1.105 1.515 1.755 3.225 1.95 5.152.109 3.875 0 7.165-.281 9.936-.304 2.75-.564 4.46-.802 5.109 1.083.909 1.517 1.71 1.343 2.424-.173.715-.563 1.256-1.148 1.602-.585.368-1.343.671-2.254.931-1.581.671-3.77 1.559-6.544 2.663-2.773 1.104-6.219 2.49-10.336 4.178a5.174 5.174 0 01-1.842.52c-.672.064-1.257-.087-1.777-.477s-1.04-.78-1.538-1.169a3.091 3.091 0 01-.542-1.19c-.087-.412.043-.78.368-1.105.304-.346.846-.627 1.582-.909 1.907-.563 3.922-1.126 6.024-1.753a78.766 78.766 0 006.154-2.057 184.857 184.857 0 016.154-2.23c.239-2.316.456-4.545.651-6.689.195-2.142.346-4.48.455-7.013.13-2.533.043-4.286-.217-5.304-.802-.39-1.669-.52-2.557-.433-.888.087-2.839.606-5.829 1.516-2.99.909-5.634 1.97-7.953 3.16-2.318 1.19-3.77 2.013-4.355 2.468a6.755 6.755 0 01-1.43.78c-.455.172-.954.172-1.517 0a4.348 4.348 0 01-1.17-1.256c-.325-.541-.607-1.104-.78-1.689-.195-.606.108-1.126.91-1.559h-.022zm65.159-2.964c-.65-.195-1.365-.152-2.145.108s-2.405.974-4.875 2.1c-2.471 1.125-4.204 2.013-5.223 2.662-1.018.65-1.777 1.148-2.253 1.538a4.207 4.207 0 01-1.712.822c-.629.108-1.409-.151-2.297-.8-.889-.65-1.43-1.235-1.582-1.754-.152-.52 0-.996.498-1.43 1.821-1.017 4.919-2.402 9.296-4.134 4.378-1.732 7.715-2.9 10.055-3.528 1.04-.282 1.929-.173 2.644.325a10.209 10.209 0 011.993 1.775c.607.692.824 1.623.694 2.792-.629 1.429-1.452 3.03-2.492 4.827-1.04 1.797-2.211 4.287-3.532 7.49-1.322 3.204-2.146 5.369-2.514 6.538-.368 1.147-.282 2.056.282 2.706.541.65 1.581 1.19 3.077 1.645 1.495.455 2.405.671 2.708.671.304 0 1.365-.238 3.164-.693.39 0 .758.152 1.083.39.326.238.542.584.672 1.017.13.433.109.931-.043 1.473-.152.54-.498.995-1.04 1.363-.455.606-1.3.866-2.536.801a21.813 21.813 0 01-3.597-.476c-1.148-.26-2.383-.693-3.662-1.277-1.278-.606-2.405-1.364-3.358-2.295-.911-.93-1.474-1.688-1.712-2.273-.239-.584-.152-1.688.281-3.29a258.03 258.03 0 014.659-11.127c1.539-3.442 2.709-6.083 3.511-7.988l-.044.022zm10.402-6.473c-.217 1.04-.542 1.667-.976 1.905-.433.238-.888.152-1.365-.26a9.32 9.32 0 01-2.232-1.904 64.685 64.685 0 01-2.643-4.178c-.52-.693-.542-1.364-.087-2.014.693-.779 1.365-.995 2.037-.692.672.324 1.148.65 1.43.995a147.723 147.723 0 003.836 6.127v.021zm3.813-3.247c-.78-1.732-1.386-3.29-1.798-4.654-.369-.8-.282-1.45.238-1.948.152-.108.347-.195.542-.238.498-.087 1.192.043 2.037.433.693.714 1.257 1.645 1.668 2.814.434 1.169.672 2.49.759 3.961-.044.715-.347 1.17-.889 1.407-.541.238-1.04.195-1.495-.13-.455-.324-.802-.865-1.083-1.645h.021zM23.23 141.296c1.516.65 2.73.931 3.64.823 1.516-3.096 2.968-6.559 4.355-10.413a44.492 44.492 0 002.514-11.776c-.52-.13-1.647 0-3.402.433-1.734.411-3.814 1.082-6.198 2.013-2.405.953-4.507 1.884-6.349 2.836a550.769 550.769 0 00-3.163 14.482c-1.019 4.979-1.69 9.092-2.038 12.253-.78.086-1.473.065-2.08-.044-1.473-.13-2.08-.974-1.82-2.511.238-1.883.52-3.788.845-5.715a461.01 461.01 0 001.669-8.096c.498-2.554.997-5.022 1.473-7.382a32.982 32.982 0 00-2.99 1.776c-.932.627-2.449 1.731-4.529 3.268-.823.585-1.474.909-1.95.974-.477.065-1.322-.433-2.536-1.472-.736-.909-.606-1.818.39-2.706a130.473 130.473 0 004.963-2.987c1.647-1.039 2.903-1.797 3.77-2.251.867-.455 2.297-1.256 4.29-2.381.412-2.208.846-4.308 1.258-6.321.411-2.014.801-5.066 1.148-9.157.065-.563.238-.909.52-1.083l.13-.043c.325-.086.932-.043 1.777.108.823.715 1.387 1.472 1.69 2.273 0 1.169-.087 2.23-.26 3.204-.368 2.858-.823 5.78-1.365 8.724a422.223 422.223 0 015.569-2.23c1.712-.671 3.987-1.255 6.847-1.753 1.192-.195 2.34-.043 3.467.433 1.127.476 1.907 1.277 2.362 2.424a6.393 6.393 0 01.434 3.464 48.2 48.2 0 01-1.712 8.551 75.697 75.697 0 01-3.034 8.377 94.105 94.105 0 01-2.838 5.996c-.694.91-1.582 1.278-2.709 1.126-1.17.108-1.972-.216-2.405-.952-.434-.736-.78-1.343-1.062-1.819-.282-.476-.498-1.299-.65-2.468l-.022.022zm27.237-35.199c2.08.238 3.62.476 4.68.693 1.041.238 3.251.974 6.632 2.23 1.17.844 1.755 1.71 1.755 2.619 0 .909-.173 1.385-.563 1.385a6.24 6.24 0 01-1.214-.13c-2.167-.736-3.835-1.255-5.027-1.493a28.378 28.378 0 00-3.684-.541c-1.279.086-2.254-.303-2.969-1.169-.715-.866-1.083-1.472-1.17-1.819a1.866 1.866 0 01.13-1.125c.065-.239.325-.433.78-.542.217-.065.412-.086.65-.108zm38.052 3.139c-3.814 3.702-7.13 7.1-9.968 10.174-2.839 3.074-5.158 5.91-6.956 8.551a214.758 214.758 0 00-5.266 8.053c-.411.736-.996 1.255-1.755 1.537-.737.281-1.495.216-2.232-.195a3.088 3.088 0 01-1.43-.953c-.412-.454-.542-.995-.368-1.601.173-.607.433-1.104.823-1.537a876.967 876.967 0 017.194-9.006 122.355 122.355 0 017.52-8.421c2.535-2.554 4.788-4.61 6.739-6.147 1.971-1.537 3.467-2.598 4.507-3.204.498-.282.953-.282 1.365-.043.412.238.563.649.498 1.19-.065.563-.303 1.082-.693 1.602h.022zm19.827-10.758c.867-.585 1.582-.801 2.123-.65a3.151 3.151 0 011.431.823c.39.39.65.844.736 1.364.109.541.022 1.169-.216 1.905-1.279 2.792-2.536 6.148-3.749 10.066-1.214 3.918-2.102 7.468-2.687 10.65-.585 3.182-.65 5.737-.217 7.685-1.538.238-2.665.065-3.358-.563-.694-.627-1.127-1.428-1.279-2.467-.152-1.04-.173-2.23-.043-3.594.108-1.364.368-2.922.78-4.654.39-1.732 1.062-4.156 1.993-7.295.932-3.117 1.777-5.758 2.557-7.88a218.77 218.77 0 001.907-5.39h.022zm15.255-1.689c1.062-.021 1.994.195 2.795.671.802.477 1.712 1.17 2.709 2.1 1.018.931 2.6 2.273 4.767 4.005 2.167 1.753 4.963 2.966 8.343 3.637.412.021.845.173 1.322.433.476.26.715.628.737 1.06 0 .433.065.931.173 1.494-1.387.606-2.73.823-3.987.693a13.59 13.59 0 01-3.879-1.083 28.825 28.825 0 01-6.024-3.571 84.78 84.78 0 01-5.504-4.59c-.759-.649-1.235-1.385-1.474-2.208-.238-.822-.216-1.71 0-2.684l.022.043zm11.658-20.478c.607.238 1.257.281 1.972.13 1.148-.498 2.319-.541 3.467-.152a7.748 7.748 0 013.012 1.862 10.822 10.822 0 012.492 3.594c.585 1.363.802 2.77.693 4.264a12.13 12.13 0 01-1.083 4.2 27.392 27.392 0 01-3.619 5.866c-1.148 1.515-2.643 2.251-4.485 2.23-1.842-.044-3.359-.78-4.551-2.23-1.538-1.905-2.557-3.832-3.034-5.823-.476-1.992-.498-4.351-.086-7.079a8.59 8.59 0 01.823-1.991c.347-.606.65-1.213.932-1.819.39-1.342.867-2.294 1.452-2.792.217-.152.455-.26.715-.325.412-.108.845-.065 1.3.108v-.043zm-1.408 12.685c.173.975.541 2.079 1.083 3.312.542 1.234 1.17 1.797 1.929 1.689.758-.108 1.646-.585 2.73-1.407 2.102-2.446 3.402-5.217 3.944-8.356.108-.888 0-1.732-.39-2.554-.39-.823-.997-1.386-1.842-1.624-.845-.26-1.712-.238-2.557.022a9.131 9.131 0 00-2.449 1.06 4.515 4.515 0 00-1.733 1.97 7.673 7.673 0 00-.694 2.75 25.27 25.27 0 000 3.138h-.021zm84.986-28.813c-1.668 1.645-4.529 5.607-8.581 11.906-4.052 6.3-6.544 11.43-7.432 15.37-.152.584-.39 1.039-.694 1.342-.325.303-.888.346-1.712.087-.585-.52-.866-.996-.888-1.45a7.8 7.8 0 01.065-1.408c.585-2.77 1.669-5.693 3.25-8.745 1.561-3.053 3.402-6.386 5.504-10.045 2.102-3.636 4.226-7.251 6.414-10.802.737-1.082 1.474-1.472 2.232-1.169.759.303 1.344.845 1.799 1.58.433.737.693 1.364.758 1.884.065.52-.151.996-.671 1.429l-.044.021zm-20.802 43.295a34.7 34.7 0 00-1.452-.195c-.412-.021-.758-.216-1.062-.584-.303-.347-.412-.845-.325-1.472-.477-1.213-.238-3.053.694-5.499.541-1.082 1.321-1.363 2.362-.822 1.213.779 1.69 1.883 1.408 3.312-.65 2.338-1.192 4.091-1.625 5.26zm31.637-26.604c-1.712.887-4.659 3.312-8.884 7.273-4.226 3.961-6.848 7.382-7.845 10.24-.173.432-.411.713-.737.887-.325.173-.888.065-1.711-.325-.564-.541-.845-.996-.867-1.342 0-.368.022-.715.108-1.082.672-2.035 1.82-4.049 3.489-6.062 1.647-2.013 3.575-4.178 5.764-6.537 2.189-2.36 4.42-4.654 6.696-6.927.758-.671 1.517-.801 2.253-.39a4.812 4.812 0 011.756 1.667c.411.67.65 1.234.693 1.645.043.411-.173.736-.693.953h-.022zm-21.929 28.899a23.652 23.652 0 00-1.452-.498 2.11 2.11 0 01-1.04-.693c-.282-.346-.39-.758-.304-1.234-.433-1.061-.151-2.446.824-4.135.563-.714 1.365-.735 2.383-.086 1.192.887 1.626 1.862 1.322 2.922-.715 1.667-1.3 2.923-1.777 3.724h.044z" fill="#fff"/></svg>