<svg width="53" height="12" fill="none" xmlns="http://www.w3.org/2000/svg"><path d="M11.246 8.256H7.49c-.487.029-.262.712-.392 1.039-.31 1.61-1.867 2.815-3.476 2.686-2.54-.151-3.958-3.132-2.572-5.275.84.392 1.86.36 2.618-.187-.825-.277-1.577-.492-2.247-.935a1.611 1.611 0 01-.554-.632C-.697 1.748 3.078-1.575 5.989.813c.575.496.977 1.19 1.118 1.945.117.32-.098.953.382.985h38.025c.476-.032.268-.65.378-.97.215-1.227 1.143-2.266 2.31-2.618 2.813-.877 5.304 2.25 3.89 4.865-.88-.939-2.38-1.111-3.416-.388 1.009.327 2.053.647 2.819 1.387.194.187.324.425.437.67.021.046.046.096.074.143a3.44 3.44 0 01.484 1.855c-.014 2.309-2.502 3.974-4.584 3.057-1.242-.504-2.092-1.787-2.081-3.16a.32.32 0 00-.318-.325h-34.26v-.003z" fill="#DC001B"/></svg>