<svg width="26" height="87" fill="none" xmlns="http://www.w3.org/2000/svg"><path d="M20.31 3.235C18.321 1.088 15.828.085 12.89.004a9.636 9.636 0 00-.535 0C9.42.084 6.927 1.086 4.938 3.235.551 7.977-.306 16.652.295 22.64c.404 4.026 2.29 7.795 5.601 11.203.112.114.224.236.336.358 2.44 2.71 3.766 6.26 3.786 9.91v41.314c0 .87.703 1.575 1.572 1.575h2.068c.87 0 1.572-.704 1.572-1.575V44.11c.02-3.65 1.346-7.2 3.787-9.909.111-.122.223-.244.335-.358 3.312-3.408 5.199-7.18 5.601-11.203.601-5.988-.255-14.663-4.643-19.402v-.003z" fill="#fff"/></svg>