<svg width="21" height="87" fill="none" xmlns="http://www.w3.org/2000/svg"><path d="M17.773.002c-1.342 0-2.434 1.115-2.434 2.486V17.18c0 .732-.587 1.304-1.335 1.304-.747 0-1.335-.573-1.335-1.304V2.567c0-1.286-.906-2.38-2.107-2.542a2.417 2.417 0 00-1.927.594 2.51 2.51 0 00-.833 1.869V17.18c0 .732-.584 1.304-1.332 1.304-.748 0-1.333-.573-1.333-1.304V2.567C5.14 1.28 4.233.187 3.033.025A2.412 2.412 0 001.106.62a2.516 2.516 0 00-.831 1.868v23.096c0 3.171 1.408 6.11 3.861 8.06 2.256 1.793 3.55 5.66 3.55 10.607v41.174c0 .868.691 1.575 1.541 1.575h2.005c.85 0 1.542-.707 1.542-1.575V44.316c0-4.96 1.313-8.839 3.6-10.642 2.478-1.95 3.9-4.901 3.9-8.095l-.072-23.094C20.202 1.115 19.11 0 17.768 0l.005.002z" fill="#fff"/></svg>