<svg width="25" height="83" fill="none" xmlns="http://www.w3.org/2000/svg"><path d="M14.501 81.658c.01.746.616 1.342 1.356 1.342h3.278a1.353 1.353 0 001.356-1.423l-2.883-62.065h.952c3.558 0 6.437-2.893 6.44-6.463 0-3.57-2.882-6.46-6.44-6.463h-1.55l-.248-5.288A1.358 1.358 0 0015.41 0h-.677a1.356 1.356 0 00-1.356 1.377l.073 5.206h-1.895l.073-5.206a1.353 1.353 0 00-.39-.972A1.345 1.345 0 0010.27 0h-.678C8.87 0 8.273.571 8.24 1.298l-.247 5.288H6.44C2.882 6.586.003 9.478 0 13.049c0 3.57 2.882 6.46 6.44 6.463h.954L4.512 81.577c-.016.375.117.732.374 1.004.258.272.61.419.982.419h3.275a1.36 1.36 0 001.356-1.342l.873-62.146h2.261l.874 62.146H14.5zm-8.067-64.87a3.74 3.74 0 01-3.728-3.742 3.74 3.74 0 013.728-3.742h1.427l-.347 7.484h-1.08zm4.97 0l.106-7.484h1.974l.106 7.484h-2.185zm6.074 0l-.347-7.484h1.424a3.74 3.74 0 013.728 3.742 3.74 3.74 0 01-3.728 3.742h-1.08.003z" fill="#fff"/></svg>