<svg width="80" height="80" fill="none" xmlns="http://www.w3.org/2000/svg"><path d="M68.75 47.5a1.25 1.25 0 01-1.25 1.25h-8.75v7.5H65a1.25 1.25 0 010 2.5h-6.25V65a1.25 1.25 0 01-2.5 0V47.5a1.25 1.25 0 011.25-1.25h10a1.25 1.25 0 011.25 1.25zM27.5 53.75a7.5 7.5 0 01-7.5 7.5h-3.75V65a1.25 1.25 0 01-2.5 0V47.5A1.25 1.25 0 0115 46.25h5a7.5 7.5 0 017.5 7.5zm-2.5 0a5 5 0 00-5-5h-3.75v10H20a5 5 0 005-5zm25 2.5a10 10 0 01-10 10h-5A1.25 1.25 0 0133.75 65V47.5A1.25 1.25 0 0135 46.25h5a10 10 0 0110 10zm-2.5 0a7.5 7.5 0 00-7.5-7.5h-3.75v15H40a7.5 7.5 0 007.5-7.5zM13.75 35V12.5a3.75 3.75 0 013.75-3.75h30a1.25 1.25 0 01.884.366l17.5 17.5a1.252 1.252 0 01.366.884V35a1.25 1.25 0 01-2.5 0v-6.25H47.5a1.25 1.25 0 01-1.25-1.25V11.25H17.5a1.25 1.25 0 00-1.25 1.25V35a1.25 1.25 0 01-2.5 0zm35-8.75h13.231L48.75 13.016V26.25z" fill="#000"/></svg>