<svg width="86" height="86" fill="none" xmlns="http://www.w3.org/2000/svg"><path d="M43 2c22.608 0 41 18.392 41 41S65.608 84 43 84 2 65.608 2 43 20.392 2 43 2z" stroke="#fff" stroke-width="2.5" stroke-miterlimit="10"/><path d="M48.767 58.923a10.16 10.16 0 003.14-2.134 10.817 10.817 0 002.62-4.24c.481-1.44.607-2.888.365-4.313-.093-.56-.294-1.11-.506-1.7-.371-1.033-.794-2.2-.692-3.593.111-1.505.737-3.041 1.904-4.696 3.482-4.925 4.625-9.6 3.398-13.896a15.692 15.692 0 00-.662-1.866c-1.473-3.448-4.185-6.469-7.834-8.738-7.038-4.373-16.842-2.434-21.405 4.233-4.314 6.31-3.185 14.277-2.131 18.461a50.312 50.312 0 002.532 7.454c1.395 3.27 3.168 6.511 5.257 9.646 1.246 1.868 2.584 3.305 4.09 4.4 1.173.85 2.59 1.386 4.077 1.632.99.164 2.006.194 3.015.078a10.386 10.386 0 002.832-.73v.002zM35.63 16.63c0-.536.431-.967.964-.967.533 0 .967.434.967.967a.964.964 0 01-.967.964.961.961 0 01-.964-.964zm-2.867 2.697a.966.966 0 111.931-.002.966.966 0 01-1.931.002zm-2.62 2.7a.966.966 0 111.932.004.966.966 0 01-1.932-.003zm5.487 0a.966.966 0 111.93.004.966.966 0 01-1.93-.003zm-2.867 2.7a.966.966 0 111.931-.001.966.966 0 01-1.931.002zm4.798 2.698a.966.966 0 11-1.933 0 .966.966 0 011.933 0zm-7.418.185a.966.966 0 111.932.004.966.966 0 01-1.932-.004zm2.62 2.512a.966.966 0 111.931-.002.966.966 0 01-1.931.002zm4.798 2.7a.966.966 0 11-1.933.001.966.966 0 011.933 0zm-7.418.03a.966.966 0 111.93-.002.966.966 0 01-1.93.002zm2.62 2.67a.966.966 0 111.931-.002.966.966 0 01-1.931.002zm-2.62 2.524a.966.966 0 111.932.004.966.966 0 01-1.932-.004zm5.487.177a.966.966 0 111.929 0 .966.966 0 01-1.929 0zm-2.616 2.697a.965.965 0 111.93.002.965.965 0 01-1.93-.002zm2.616 2.697a.966.966 0 111.93.004.966.966 0 01-1.93-.004zm-2.616 2.7a.966.966 0 111.93.004.966.966 0 01-1.93-.004zm2.616 2.7a.966.966 0 111.932-.002.966.966 0 01-1.932.002zM51.79 76.93a3.003 3.003 0 001.683-1.907c.12-.383.404-.7.773-.856a1.358 1.358 0 011.155.036c.805.407 1.73.44 2.539.095a3.022 3.022 0 001.59-3.963 3.025 3.025 0 00-3.92-1.608c-.026.012-.053.021-.077.033-.695.3-1.5-.027-1.796-.718L50.73 61a13.63 13.63 0 01-.892.437 12.52 12.52 0 01-2.796.805l3.128 7.32a1.368 1.368 0 01-.721 1.796c-.021.012-.051.02-.078.033a3.027 3.027 0 00-1.545 3.942 3.025 3.025 0 003.964 1.593v.003z" fill="#fff"/></svg>