<svg width="50" height="49" fill="none" xmlns="http://www.w3.org/2000/svg"><path d="M10.041 3.891H3.77c-1.51 0-2.728 1.197-2.728 2.674 0 7.889.009 21.472.013 27.199 0 1.477 1.223 2.67 2.732 2.67 10.053 0 27.876-.013 37.786-.017 1.51 0 2.728-1.197 2.728-2.674 0-8.433-.009-19.656-.013-27.195 0-1.477-1.222-2.67-2.731-2.67h-5.51" fill="#fff"/><path d="M26.92 2.894h-7.833c-1.302 0-1.302 1.98 0 1.98h7.832c1.303 0 1.303-1.98 0-1.98zM12.136 12.26H10.05c-.325 0-.667.136-.894.363-.228.227-.384.565-.371.875.013.309.122.652.37.874.25.223.553.363.895.363h2.086c.325 0 .666-.136.894-.363.227-.227.383-.565.37-.874-.012-.31-.122-.652-.37-.875a1.33 1.33 0 00-.894-.363zm7.804 0h-2.087c-.325 0-.666.136-.894.363-.228.227-.383.565-.37.875.012.309.121.652.37.874.249.223.552.363.894.363h2.086c.325 0 .666-.136.894-.363.228-.227.384-.565.371-.874-.013-.31-.122-.652-.371-.875a1.33 1.33 0 00-.894-.363zm7.802 0h-2.087c-.324 0-.666.136-.893.363-.228.227-.384.565-.371.875.013.309.122.652.37.874.25.223.553.363.895.363h2.086c.325 0 .666-.136.894-.363.227-.227.383-.565.37-.874-.012-.31-.122-.652-.37-.875a1.33 1.33 0 00-.894-.363zm7.803 0H33.46c-.325 0-.666.136-.894.363-.228.227-.384.565-.37.875.012.309.121.652.37.874.249.223.552.363.894.363h2.086c.325 0 .666-.136.894-.363.228-.227.384-.565.37-.874-.012-.31-.121-.652-.37-.875a1.33 1.33 0 00-.894-.363zm-23.409 7.348H10.05c-.325 0-.667.137-.894.363-.228.227-.384.566-.371.875.013.31.122.652.37.875.25.223.553.363.895.363h2.086c.325 0 .666-.136.894-.363.227-.227.383-.565.37-.875-.012-.31-.122-.652-.37-.875a1.33 1.33 0 00-.894-.363zm7.804 0h-2.087c-.325 0-.666.137-.894.363-.228.227-.383.566-.37.875.012.31.121.652.37.875.249.223.552.363.894.363h2.086c.325 0 .666-.136.894-.363.228-.227.384-.565.371-.875-.013-.31-.122-.652-.371-.875a1.33 1.33 0 00-.894-.363zm7.802 0h-2.087c-.324 0-.666.137-.893.363-.228.227-.384.566-.371.875.013.31.122.652.37.875.25.223.553.363.895.363h2.086c.325 0 .666-.136.894-.363.227-.227.383-.565.37-.875-.012-.31-.122-.652-.37-.875a1.33 1.33 0 00-.894-.363zm7.803 0H33.46c-.325 0-.666.137-.894.363-.228.227-.384.566-.37.875.012.31.121.652.37.875.249.223.552.363.894.363h2.086c.325 0 .666-.136.894-.363.228-.227.384-.565.37-.875-.012-.31-.121-.652-.37-.875a1.33 1.33 0 00-.894-.363zM12.136 26.96H10.05c-.325 0-.667.136-.894.363-.228.227-.384.565-.371.875.013.31.122.652.37.875.25.222.553.363.895.363h2.086c.325 0 .666-.137.894-.363.227-.227.383-.566.37-.875-.012-.31-.122-.652-.37-.875a1.33 1.33 0 00-.894-.363zm7.804 0h-2.087c-.325 0-.666.136-.894.363-.228.227-.383.565-.37.875.012.31.121.652.37.875.249.222.552.363.894.363h2.086c.325 0 .666-.137.894-.363.228-.227.384-.566.371-.875-.013-.31-.122-.652-.371-.875a1.33 1.33 0 00-.894-.363zm7.802 0h-2.087c-.324 0-.666.136-.893.363-.228.227-.384.565-.371.875.013.31.122.652.37.875.25.222.553.363.895.363h2.086c.325 0 .666-.137.894-.363.227-.227.383-.566.37-.875-.012-.31-.122-.652-.37-.875a1.33 1.33 0 00-.894-.363zm7.803 0H33.46c-.325 0-.666.136-.894.363-.228.227-.384.565-.37.875.012.31.121.652.37.875.249.222.552.363.894.363h2.086c.325 0 .666-.137.894-.363.228-.227.384-.566.37-.875-.012-.31-.121-.652-.37-.875a1.33 1.33 0 00-.894-.363z" fill="#DC001B"/><path d="M10.041 2.902H4.368c-.978 0-1.906.087-2.736.66a3.71 3.71 0 00-1.598 2.79C-.037 7.262.026 8.2.026 9.115v9.374c0 4.019 0 8.038.004 12.06v2.29c0 .908-.008 1.783.426 2.616a3.737 3.737 0 002.478 1.874c.907.194 1.902.09 2.825.09 8.734 0 17.473-.008 26.207-.012h8.873c1.046 0 2.028-.066 2.904-.697a3.702 3.702 0 001.548-2.822c.063-1.13 0-2.233 0-3.343v-7.212c0-4.724 0-9.453-.005-14.177 0-.994.089-2.038-.033-3.028a3.68 3.68 0 00-1.741-2.695c-.789-.487-1.661-.544-2.56-.544h-4.918c-1.303 0-1.303 1.98 0 1.98h4.72c.646 0 1.303-.066 1.847.347.683.52.662 1.262.662 2.03 0 4.303 0 8.61.004 12.914v7.006c0 2.191.06 4.386 0 6.577a1.699 1.699 0 01-1.15 1.589c-.7.239-1.61.095-2.34.095h-5.472c-8.376 0-16.756.008-25.132.012-1.762 0-3.528.012-5.29 0-.721-.004-1.391-.318-1.699-.994-.266-.59-.14-1.378-.14-2.01 0-3.511 0-7.026-.003-10.538 0-4.035 0-8.066-.004-12.101V7.172c0-.738 0-1.444.657-1.939.582-.441 1.307-.35 1.998-.35h5.337c1.302 0 1.302-1.981 0-1.981h.012z" fill="#DC001B"/><path d="M30.895 1.775v3.94c0 .52.464 1.016 1.012.99.548-.024 1.011-.432 1.011-.99v-3.94c0-.52-.463-1.015-1.011-.99-.548.025-1.012.433-1.012.99zm-17.907 0v3.94c0 .52.464 1.016 1.012.99.548-.024 1.012-.432 1.012-.99v-3.94c0-.52-.464-1.015-1.012-.99-.548.025-1.012.433-1.012.99z" fill="#DC001B"/><path d="M35.463 21.372c-8.001 0-13.536 6.065-13.536 13.166 0 7.943 5.649 13.414 13.536 13.414s13.535-5.52 13.535-13.414c0-7.146-5.56-13.166-13.535-13.166z" fill="#fff"/><path d="M35.463 20.382c-3.157.016-6.298.92-8.827 2.797a14.116 14.116 0 00-5.054 7.04c-1.762 5.52-.06 12.159 4.67 15.765 4.73 3.606 11.761 3.953 16.904 1.08 5.282-2.945 7.533-9.126 6.66-14.836-.872-5.71-5.775-10.728-11.828-11.64a17.27 17.27 0 00-2.53-.202c-1.302-.008-1.302 1.972 0 1.98 2.762.013 5.468.8 7.69 2.435 2.023 1.485 3.52 3.635 4.261 5.995 1.493 4.749.152 10.447-3.831 13.612-3.984 3.164-10.134 3.395-14.51 1.044-4.557-2.451-6.74-7.708-6.015-12.684.367-2.53 1.53-4.93 3.351-6.767 1.821-1.836 4.287-3.049 6.91-3.474a13.763 13.763 0 012.14-.156c1.303-.009 1.303-1.99 0-1.98l.009-.01z" fill="#DC001B"/><path d="M35.472 35.652h4.624c.532 0 1.037-.453 1.012-.99-.025-.536-.443-.99-1.012-.99h-4.624c-.531 0-1.037.454-1.012.99.026.537.443.99 1.012.99z" fill="#DC001B"/><path d="M34.46 27.805v6.853c0 .536.464.99 1.012.99s1.011-.454 1.011-.99v-6.853c0-.537-.463-.99-1.011-.99-.548 0-1.012.453-1.012.99z" fill="#DC001B"/></svg>