<svg width="41" height="40" fill="none" xmlns="http://www.w3.org/2000/svg"><path d="M8.235 2.547H3.092c-1.238 0-2.237.981-2.237 2.193 0 6.469.007 17.607.01 22.303 0 1.211 1.003 2.189 2.24 2.189 8.245 0 22.86-.01 30.986-.014 1.238 0 2.237-.98 2.237-2.192 0-6.916-.007-16.118-.01-22.3 0-1.211-1.003-2.189-2.24-2.189h-4.519" fill="#000"/><path d="M22.075 1.729h-6.422c-1.069 0-1.069 1.624 0 1.624h6.422c1.068 0 1.068-1.624 0-1.624z" fill="#fff"/><path d="M9.953 9.41H8.242a1.07 1.07 0 00-.733.297c-.187.186-.315.464-.304.718.01.253.1.534.304.717.204.183.453.298.733.298h1.71c.267 0 .547-.112.733-.298.187-.186.315-.464.305-.717-.01-.254-.1-.535-.305-.718a1.09 1.09 0 00-.732-.297z" fill="#DC001B"/><path d="M16.35 9.41h-1.71a1.07 1.07 0 00-.734.297c-.186.186-.314.464-.304.718.01.253.1.534.304.717.204.183.453.298.733.298h1.711c.266 0 .546-.112.733-.298.187-.186.315-.464.304-.717-.01-.254-.1-.535-.304-.718a1.09 1.09 0 00-.733-.297zm6.399 0h-1.711c-.267 0-.547.111-.733.297-.187.186-.315.464-.304.718.01.253.1.534.304.717.204.183.453.298.733.298h1.71c.267 0 .547-.112.733-.298.187-.186.315-.464.305-.717-.01-.254-.1-.535-.305-.718a1.09 1.09 0 00-.732-.297zm6.398 0h-1.711a1.07 1.07 0 00-.733.297c-.186.186-.314.464-.304.718.01.253.1.534.304.717.204.183.453.298.733.298h1.711c.266 0 .546-.112.733-.298.187-.186.314-.464.304-.717-.01-.254-.1-.535-.304-.718a1.091 1.091 0 00-.733-.297z" fill="#fff"/><path d="M9.953 15.435H8.242a1.07 1.07 0 00-.733.298c-.187.186-.315.464-.304.718.01.253.1.534.304.717.204.183.453.298.733.298h1.71c.267 0 .547-.112.733-.298.187-.186.315-.464.305-.717-.01-.254-.1-.535-.305-.718a1.09 1.09 0 00-.732-.298z" fill="#DC001B"/><path d="M16.35 15.435h-1.71c-.267 0-.547.112-.734.298-.186.186-.314.464-.304.718.01.253.1.534.304.717.204.183.453.298.733.298h1.711c.266 0 .546-.112.733-.298.187-.186.315-.464.304-.717-.01-.254-.1-.535-.304-.718a1.09 1.09 0 00-.733-.298zm6.399 0h-1.711c-.267 0-.547.112-.733.298-.187.186-.315.464-.304.718.01.253.1.534.304.717.204.183.453.298.733.298h1.71c.267 0 .547-.112.733-.298.187-.186.315-.464.305-.717-.01-.254-.1-.535-.305-.718a1.09 1.09 0 00-.732-.298zm6.398 0h-1.711a1.07 1.07 0 00-.733.298c-.186.186-.314.464-.304.718.01.253.1.534.304.717.204.183.453.298.733.298h1.711c.266 0 .546-.112.733-.298.187-.186.314-.464.304-.717-.01-.254-.1-.535-.304-.718a1.091 1.091 0 00-.733-.298z" fill="#fff"/><path d="M9.953 21.464H8.242a1.07 1.07 0 00-.733.298c-.187.186-.315.464-.304.717.01.254.1.535.304.718.204.182.453.297.733.297h1.71c.267 0 .547-.111.733-.297.187-.186.315-.464.305-.718-.01-.253-.1-.534-.305-.717a1.09 1.09 0 00-.732-.298z" fill="#DC001B"/><path d="M16.35 21.464h-1.71c-.267 0-.547.112-.734.298-.186.186-.314.464-.304.717.01.254.1.535.304.718.204.182.453.297.733.297h1.711c.266 0 .546-.111.733-.297.187-.186.315-.464.304-.718-.01-.253-.1-.534-.304-.717a1.09 1.09 0 00-.733-.298zm6.399 0h-1.711c-.267 0-.547.112-.733.298-.187.186-.315.464-.304.717.01.254.1.535.304.718.204.182.453.297.733.297h1.71c.267 0 .547-.111.733-.297.187-.186.315-.464.305-.718-.01-.253-.1-.534-.305-.717a1.09 1.09 0 00-.732-.298zm6.398 0h-1.711a1.07 1.07 0 00-.733.298c-.186.186-.314.464-.304.717.01.254.1.535.304.718.204.182.453.297.733.297h1.711c.266 0 .546-.111.733-.297.187-.186.314-.464.304-.718-.01-.253-.1-.534-.304-.717a1.091 1.091 0 00-.733-.298z" fill="#fff"/><path d="M8.234 1.736H3.581c-.801 0-1.562.07-2.243.541a3.043 3.043 0 00-1.31 2.287C-.031 5.312.021 6.08.021 6.831v7.687c0 3.296 0 6.591.004 9.89v1.878c0 .744-.007 1.461.349 2.145a3.065 3.065 0 002.032 1.536c.743.159 1.56.074 2.316.074 7.162 0 14.328-.007 21.49-.01h7.276c.858 0 1.663-.054 2.382-.572a3.035 3.035 0 001.269-2.314c.051-.927 0-1.83 0-2.74V18.49c0-3.874 0-7.751-.004-11.625 0-.815.073-1.671-.027-2.483a3.018 3.018 0 00-1.428-2.21c-.647-.4-1.362-.446-2.098-.446h-4.034c-1.068 0-1.068 1.624 0 1.624h3.871c.53 0 1.068-.055 1.514.284.56.426.543 1.035.543 1.664 0 3.53 0 7.062.003 10.59v5.745c0 1.797.049 3.597 0 5.393a1.393 1.393 0 01-.943 1.303c-.574.196-1.32.078-1.919.078h-4.486c-6.869 0-13.74.007-20.609.01-1.445 0-2.893.01-4.338 0-.591-.003-1.14-.26-1.393-.815-.218-.484-.114-1.13-.114-1.648 0-2.88 0-5.762-.004-8.641 0-3.31 0-6.615-.003-9.924V5.238c0-.606 0-1.185.54-1.59.476-.363 1.07-.288 1.638-.288h4.376c1.068 0 1.068-1.624 0-1.624h.01z" fill="#fff"/><path d="M25.335.813v3.23c0 .427.38.833.83.813.449-.02.83-.355.83-.812V.813c0-.427-.381-.833-.83-.812-.45.02-.83.355-.83.812zm-14.685 0v3.23c0 .427.38.833.83.813.45-.02.83-.355.83-.812V.813c0-.427-.38-.833-.83-.812-.45.02-.83.355-.83.812z" fill="#fff"/><path d="M29.08 16.881c-6.561 0-11.1 4.974-11.1 10.797 0 6.513 4.632 11 11.1 11 6.467 0 11.1-4.528 11.1-11 0-5.86-4.56-10.797-11.1-10.797z" fill="#000"/><path d="M29.08 16.068c-2.59.014-5.165.755-7.239 2.294a11.574 11.574 0 00-4.144 5.772c-1.445 4.527-.049 9.971 3.83 12.928 3.878 2.957 9.644 3.242 13.86.887 4.332-2.416 6.178-7.484 5.462-12.167-.715-4.683-4.735-8.797-9.699-9.544a14.164 14.164 0 00-2.074-.166c-1.068-.007-1.068 1.617 0 1.624 2.264.01 4.483.656 6.305 1.996 1.66 1.218 2.886 2.98 3.495 4.916 1.223 3.894.124 8.567-3.142 11.162-3.267 2.595-8.31 2.784-11.898.856-3.737-2.01-5.527-6.32-4.933-10.4a9.923 9.923 0 012.748-5.55c1.493-1.505 3.516-2.5 5.666-2.848a11.29 11.29 0 011.756-.129c1.068-.007 1.068-1.63 0-1.624l.006-.007z" fill="#fff"/><path d="M29.086 28.59h3.792c.436 0 .85-.371.83-.811-.021-.44-.363-.812-.83-.812h-3.792c-.435 0-.85.372-.83.812.021.44.364.812.83.812z" fill="#fff"/><path d="M28.258 22.155v5.62c0 .44.38.812.83.812a.832.832 0 00.829-.812v-5.62c0-.44-.38-.812-.83-.812-.449 0-.83.372-.83.812z" fill="#fff"/></svg>