<svg width="35" height="87" fill="none" xmlns="http://www.w3.org/2000/svg"><g clip-path="url(#clip0_43_7773)"><path d="M31.28 0L2.825.55a2.906 2.906 0 00-2.023.883A2.916 2.916 0 000 3.49l.778 40.458c.162 8.475 6.45 15.37 14.548 16.59l.395 20.582-5.575.108a2.888 2.888 0 00.107 5.773l16.924-.327a2.886 2.886 0 00-.107-5.77l-5.582.108-.395-20.582c8.047-1.528 14.066-8.663 13.904-17.138L34.22 2.834a2.906 2.906 0 00-.883-2.022A2.88 2.88 0 0031.28.001zm-2.493 20.253L6.1 20.691 5.821 6.264l22.688-.437.278 14.426z" fill="#fff"/></g><defs><clipPath id="clip0_43_7773"><path fill="#fff" d="M0 0h35v87H0z"/></clipPath></defs></svg>