<svg width="42" height="71" fill="none" xmlns="http://www.w3.org/2000/svg"><path d="M24.515 67.656c-2.696-1.264-5.21-3.4-7.471-6.346-4.182-5.447-6.986-9.487-10.656-19.64-3.67-10.147-4.098-15.043-4.366-21.9-.476-12.183 6.79-15.752 9.026-16.557l2.483-.892c1.22-.44 2.39-.427 3.379.036 1.078.505 1.863 1.496 2.27 2.864.748 2.504 1.7 8.66 1.969 11.178.295 2.763-1.272 5.255-3.899 6.2l-4.819 1.735c.421 5.116 1.357 9.472 3.02 14.076 1.665 4.603 3.732 8.552 6.683 12.757l4.819-1.734c1.516-.547 3.128-.481 4.544.181a5.964 5.964 0 012.424 2.106c1.404 2.11 4.61 7.454 5.637 9.856.544 1.273.586 2.502.126 3.558-.45 1.034-1.357 1.82-2.62 2.275l-2.463.886c-1.496.54-5.432 1.542-10.088-.64h.002z" stroke="#DC001B" stroke-width="3"/></svg>