<svg width="208" height="230" fill="none" xmlns="http://www.w3.org/2000/svg"><path d="M24.11 201.823c-.18.694-.291.754-.845.804H2.425c-.604-.05-.715-.11-.886-.804l-.09-.352H0v7.383h1.438l.09-.352c.182-.694.293-.745.846-.805h7.252v18.387c-.05.603-.11.714-.805.885l-.352.091v1.438h8.69v-1.438l-.351-.091c-.684-.181-.744-.282-.805-.865v-18.407h7.212c.604.05.714.111.885.805l.09.352h1.44v-7.383h-1.44l-.09.352h.01zm30.83 3.993c-2.706-2.515-5.995-3.641-10.632-3.641s-7.806 1.157-10.562 3.631c-2.625 2.394-4.194 6.025-4.194 9.727 0 3.701 1.529 7.302 4.184 9.726 2.626 2.474 6.096 3.682 10.602 3.682s7.936-1.167 10.591-3.672c2.626-2.394 4.195-5.954 4.195-9.545 0-3.943-1.449-7.373-4.184-9.918v.01zM44.348 223.77c-4.868 0-8.268-3.379-8.268-8.227 0-4.849 3.38-8.188 8.228-8.188s8.298 3.349 8.298 8.338c0 4.678-3.48 8.077-8.268 8.077h.01zm45.424.493l-4.396-6.267c4.265-.895 6.418-3.409 6.418-7.503 0-2.746-1.117-5.05-3.058-6.297-1.74-1.147-3.822-1.569-7.695-1.569H65.028v1.438l.352.091c.694.181.744.292.805.845v21.062c-.05.604-.111.714-.805.885l-.352.091v1.438h8.69v-1.438l-.352-.091c-.683-.181-.744-.281-.804-.865v-7.755h5.924l4.869 7.122c.422.583.804 1.156.814 1.297-.02.03-.15.151-.523.191l-.412.051v1.498h9.958v-1.518l-.443-.031c-.905-.06-1.167-.161-2.967-2.675h-.01zm-17.21-16.577h7.926c2.484 0 3.048.071 3.802.503.714.403 1.137 1.258 1.137 2.274 0 1.015-.423 1.911-1.127 2.303-.754.392-1.348.503-3.812.503h-7.926v-5.583zm54.065 17.281l-9.234-18.649c-.402-.764-.583-1.388-.583-1.649 0-.101.221-.362.744-.513l.342-.101v-1.428h-9.767v1.418l.332.101c.634.201.714.503.714.744 0 .201-.07.584-.402 1.247l-9.143 19.152c-.745 1.458-.956 1.549-1.63 1.649l-.402.061v1.478h9.173v-1.448l-.362-.091c-.553-.13-.835-.342-.835-.623 0-.04.01-.292.292-.956l1.549-3.239h10.722l1.58 3.239c.201.443.291.714.291.926 0 .171 0 .533-.784.653l-.413.061v1.488h10.109v-1.478l-.402-.061c-.745-.11-1.026-.321-1.891-1.981zm-13.811-14.454l3.3 7.272h-6.659l3.359-7.272zm45.827 13.911l-9.294-11.175 8.077-6.508c.805-.684 1.639-1.358 2.303-1.891.111-.111.222-.191.332-.272l.111-.08c.292-.191.442-.272.915-.332l.413-.05v-1.489h-11.155v1.479l.402.06c.493.08.664.211.684.231 0 .04-.101.242-.905.865l-9.123 7.434v-7.655c.05-.604.11-.714.804-.885l.352-.091v-1.438h-8.69v1.438l.352.091c.694.181.744.292.805.845v21.062c-.051.604-.111.714-.805.885l-.352.091v1.438h8.69v-1.438l-.352-.091c-.694-.181-.744-.291-.804-.844v-6.458l3.188-2.615 7.071 8.69c.473.604.735.936.735 1.026 0 0-.081.121-.544.201l-.392.071v1.468h10.662v-1.488l-.412-.051c-.976-.13-1.036-.13-3.098-2.524h.03zm31.05-18.618c-2.705-2.515-5.994-3.641-10.631-3.641-4.637 0-7.806 1.156-10.562 3.631-2.625 2.394-4.194 6.025-4.194 9.726 0 3.702 1.529 7.303 4.184 9.727 2.625 2.474 6.096 3.681 10.602 3.681s7.936-1.167 10.591-3.671c2.626-2.394 4.195-5.955 4.195-9.546 0-3.943-1.449-7.373-4.185-9.917v.01zm-10.591 17.964c-4.869 0-8.268-3.379-8.268-8.228 0-4.848 3.379-8.187 8.228-8.187 4.848 0 8.298 3.349 8.298 8.338 0 4.677-3.48 8.077-8.268 8.077h.01z" fill="#fff"/><path d="M200.826 223.911v-1.385H208v7.174h-1.384v-5.789h-5.79zM208 220.6h-7.174v1.385H208V220.6zm-7.715 1.926V220.6H198.9v9.1h1.385v-1.926h3.862v-1.385h-3.862v-3.863zm4.404 3.311v2.479h-3.863v1.384h5.248v-5.247h-5.248v1.384h3.863z" fill="#DC001B"/><path d="M97.88 164.858c.05-.634.05-1.288.16-1.912.07-.432.403-.482.714-.171 2.032 2.012 3.31 4.426 3.732 7.263.372 2.494-.02 4.938-.684 7.332-.714 2.575-1.76 5.03-2.987 7.403-.443.855-.926 1.68-1.398 2.515-.352.614-.785.634-1.107 0-1.046-2.022-2.092-4.043-3.047-6.105a23.706 23.706 0 01-1.861-6.086c-.262-1.579-.443-3.148-.192-4.778.222-1.398.564-2.746 1.177-4.003a11.888 11.888 0 012.676-3.601c.1-.09.342-.151.433-.09.12.08.22.281.23.442.051.885.061 1.781.111 2.666.121 1.83.262 3.671.393 5.502.09 1.247.19 2.484.311 3.721.02.161.202.312.302.463.11-.121.292-.231.302-.362.11-.855.201-1.72.282-2.585.14-1.489.301-2.967.382-4.456.06-1.056.01-2.112.01-3.168h.06v.01zm25.95 8.67c-.241 1.841-.462 3.973-.815 6.086-.251 1.518-.643 3.017-.995 4.516-.051.211-.232.463-.413.533-.141.05-.432-.101-.573-.241-2.263-2.113-4.275-4.436-5.995-7.001-1.529-2.273-2.786-4.697-3.329-7.423-.614-3.108-.02-6.035 1.508-8.791.101-.171.322-.282.483-.423.141.181.352.332.423.533.462 1.418.855 2.857 1.338 4.275a278.974 278.974 0 002.524 6.9c.071.181.302.292.463.443.04-.201.141-.413.1-.594-.683-3.721-1.398-7.443-2.082-11.165-.07-.362-.503-.845.01-1.086.232-.111.694.201 1.016.382 1.992 1.177 3.501 2.837 4.567 4.889a12.721 12.721 0 011.378 4.446c.131 1.136.251 2.283.402 3.721h-.01zm14.796-8.51c-.141-.422-.231-.865-.422-1.257a1482.645 1482.645 0 00-4.295-8.892c-.221-.452-.543-.855-.775-1.297-.08-.161-.12-.443-.04-.574.07-.11.372-.14.543-.1 2.646.593 4.818 1.991 6.578 4.013 1.539 1.771 2.505 3.873 3.119 6.116.462 1.69.794 3.41 1.096 5.14.201 1.156.241 2.343.322 3.52.06.936.1 1.881.09 2.817 0 .291-.13.704-.342.844-.171.111-.603-.05-.834-.201-1.932-1.257-3.913-2.454-5.764-3.832-2.665-1.992-5.029-4.315-6.598-7.313-.805-1.538-1.228-3.198-1.399-4.938-.14-1.449.161-2.817.433-4.205.03-.171.211-.382.372-.422.131-.04.392.09.483.231 1.73 2.575 3.44 5.17 5.18 7.735.594.875 1.278 1.69 1.931 2.525.051.06.121.1.181.151l.161-.061h-.02zm-83.083.101c.432-.554.895-1.097 1.297-1.67a626.093 626.093 0 004.698-6.779c.422-.614.754-1.288 1.156-1.922.101-.151.312-.332.463-.311.151.01.352.221.392.392.413 1.509.574 3.027.433 4.607-.272 2.967-1.519 5.492-3.44 7.654a31.199 31.199 0 01-4.426 4.124c-1.921 1.469-4.013 2.706-6.045 4.014-.553.352-.945.15-.935-.493.02-1.469.08-2.927.19-4.396.091-1.187.222-2.374.403-3.551.332-2.172.905-4.285 1.79-6.306.735-1.69 1.72-3.229 3.068-4.496 1.64-1.549 3.581-2.575 5.764-3.139.15-.04.372.071.513.181.06.051.06.272 0 .383-1.439 2.866-2.897 5.723-4.325 8.59-.403.794-.735 1.629-1.067 2.454-.07.181-.06.392-.08.593.06.03.11.051.171.081l-.02-.01zm100.344-13.146c-.332-.473-.624-.976-.996-1.408-1.469-1.72-2.937-3.44-4.436-5.14-.965-1.087-1.981-2.123-2.967-3.189-.091-.1-.211-.292-.171-.382.06-.131.231-.272.372-.292 1.237-.241 2.434.061 3.611.342 2.012.483 3.752 1.499 5.311 2.877 1.7 1.509 2.927 3.359 4.013 5.321 1.66 3.007 2.797 6.216 3.662 9.515.191.724-.111 1.026-.865.825a62.815 62.815 0 01-3.31-.976c-3.158-1.046-6.196-2.343-8.952-4.264-1.971-1.368-3.581-3.058-4.667-5.201-.714-1.418-1.187-2.917-1.247-4.526-.02-.463-.03-.935 0-1.398a.591.591 0 01.271-.413c.081-.04.282.111.393.212 2.303 2.001 4.596 4.013 6.91 6.005.764.663 1.579 1.267 2.374 1.881.161.13.362.221.533.331.04-.04.09-.08.131-.13l.03.01zm-73.397 15.52c-.131 2.102-.543 4.003-1.328 5.813-1.127 2.575-2.676 4.879-4.456 7.031-1.207 1.459-2.555 2.797-3.852 4.175-.342.362-.795.241-.916-.252-.382-1.529-.805-3.048-1.086-4.587-.453-2.524-.744-5.069-.614-7.644.151-2.816.735-5.522 2.374-7.896 1.157-1.67 2.585-3.038 4.406-3.973.14-.07.412-.101.513-.02.1.09.12.352.08.513-.463 2.193-.955 4.375-1.398 6.568-.332 1.64-.603 3.289-.895 4.939v.05c.05.252.1.493.16.744.172-.181.433-.342.514-.563a1082.38 1082.38 0 003.218-9.022c.242-.684.383-1.409.604-2.103a.843.843 0 01.382-.432c.07-.03.312.141.393.271.905 1.459 1.508 3.018 1.7 4.728.07.603.15 1.197.2 1.67v-.01zm-36.925-26.031c.14 0 .231-.021.301 0 .252.09.493.191.735.281-.131.211-.232.463-.393.644-1.237 1.388-2.504 2.756-3.731 4.144-1.016 1.157-2.012 2.334-3.008 3.51-.412.483-.805.986-1.187 1.499-.08.111-.07.292-.09.443.13-.051.281-.061.382-.141 1.036-.795 2.082-1.579 3.088-2.404a107.068 107.068 0 003.651-3.058c.925-.815 1.78-1.7 2.676-2.545.1-.1.291-.181.422-.161.11.021.282.192.282.312.03.553.06 1.107 0 1.65-.181 1.408-.453 2.796-1.167 4.053-.553.966-1.076 1.992-1.79 2.827-1.52 1.79-3.42 3.118-5.492 4.245-3.108 1.689-6.428 2.776-9.817 3.701-.664.181-1.026-.171-.835-.835.754-2.605 1.589-5.18 2.746-7.644.875-1.881 1.89-3.682 3.168-5.311 2.092-2.656 4.788-4.406 8.168-4.999.643-.111 1.297-.141 1.9-.211h-.01zm70.269 7.584c-.634.03-1.268.1-1.891.09-3.722.05-7.363-.865-10.813-2.203-4.557-1.438-9.616-1.348-14.112.282-3.812 1.479-7.957 2.233-12.04 1.851a13.175 13.175 0 01-1.881-.191c10.46 10.963 32.368 10.943 42.809-.031-.061 0-.121.021-.181.031-.624.13-1.258.12-1.891.171zm21.555-13.971a33.637 33.637 0 01-1.127 2.052c-1.317 2.133-3.027 4.003-4.898 5.673-1.237 1.056-2.585 1.962-3.993 2.776 7.071-1.609 13.81-4.003 18.226-7.574a56.077 56.077 0 002.172-1.851 13.94 13.94 0 01-.382-1.066h-10.008l.01-.01zM28.486 100.292c-.01.523 0 1.056.01 1.579a14.847 14.847 0 013.832-.513c.533 0 1.046.04 1.56.091.14-4.627 1.276-9.184 2.956-13.318 1.54-3.913 3.782-7.152 5.04-10.994-.06 5.965-2.535 11.688-2.656 17.623a37.349 37.349 0 00.402 8.549 14.886 14.886 0 016.84 8.5h1.79c-.301-.664-.603-1.318-.874-1.992l-.976-2.897c-1.69-5.813-1.992-11.97-.171-17.733.614-1.85 1.378-3.641 2.434-5.22-2.233 7.06-.785 14.675 2.666 20.942l1.317 2.263c.724 1.036 1.57 2.152 2.314 3.178.402.483.885.976 1.297 1.459h.242a24.342 24.342 0 014.114-4.889 31.76 31.76 0 01-6.76-12.24c-.432-1.68-.774-3.37-.855-5.06 2.243 5.944 6.538 10.913 11.769 14.243 6.065-3.672 13.66-4.587 20.429-2.575 2.595-4.698 4.375-9.978 4.345-15.38-.12-3.58-1.469-7.162-2.817-10.642 1.851 3.239 3.773 6.548 4.527 10.44.935 5.674-.07 11.598-2.032 16.96-1.418 3.993-3.35 7.956-3.007 12.17l20.71.101c.352-4.215-1.529-8.147-2.977-12.121-2.022-5.39-3.078-11.376-2.143-17.099.745-3.883 2.656-7.202 4.496-10.44-1.358 3.48-2.715 7.05-2.846 10.631-.05 5.492 1.77 10.833 4.405 15.601 6.629-1.951 14.102-1.046 20.047 2.535 5.351-3.32 9.757-8.38 12.04-14.414-.09 1.69-.432 3.38-.855 5.06-1.328 4.606-3.691 8.831-6.94 12.452a24.472 24.472 0 013.943 4.677h.593c.413-.473.885-.976 1.298-1.459.744-1.036 1.579-2.132 2.313-3.178l1.318-2.263c3.46-6.267 4.898-13.881 2.665-20.942 1.056 1.58 1.821 3.37 2.435 5.22 1.82 5.754 1.518 11.91-.171 17.733l-.976 2.897a57.451 57.451 0 01-.875 1.992h2.685a14.912 14.912 0 015.824-7.856c.574-3.017.735-6.085.523-9.183-.12-5.935-2.595-11.658-2.655-17.623 1.267 3.843 3.5 7.081 5.039 10.994 1.7 4.164 2.837 8.771 2.967 13.428 1.751-.301 3.642-.281 5.392.101.473-13.267-8.268-26.193-7.604-30.457.613-4.476 11.134-13.096 7.624-23.96-2.706-8.378-7.987-11.255-13.72-11.255-7.101-.252-15.943 5.653-19.936 5.492-3.913 0-10.592-3.199-16.637-3.199s-11.577 3.51-17.723 3.51c-6.145 0-11.678-3.51-17.723-3.51-6.045 0-12.724 3.199-16.637 3.199-4.013.15-12.814-5.734-19.926-5.492-5.723 0-11.014 2.866-13.71 11.235-3.51 10.863 7.011 19.494 7.625 23.96.614 4.476-7.292 15.339-7.614 29.079l-.01.01zm45.142-4.476c-10.24-.181-12.613-14.082-3.198-17.733a35.11 35.11 0 002.062 10.642c.523 1.528 1.207 2.997 1.9 4.405-.17-1.58-.301-3.138-.27-4.687.03-3.631.623-7.242 1.87-10.622 10.21 2.957 8.369 17.733-2.374 17.995h.01zm46.611 0c-10.108-.161-12.613-13.82-3.419-17.643a35.18 35.18 0 002.051 10.562c.524 1.528 1.207 2.997 1.902 4.405-.171-1.579-.302-3.138-.272-4.687.03-3.651.634-7.282 1.891-10.672 10.39 2.766 8.691 17.773-2.163 18.045l.01-.01zm23.588-51.228c3.892-1.459 8.137-1.881 12.321-1.922-2.796.312-5.431 1.73-7.151 3.853 4.204-.08 8.218 3.078 8.922 7.02-.785-.894-2.062-1.347-3.279-1.257a1.066 1.066 0 00-.956 1.288c.402 1.971.412 6.528.04 7.222-1.136 2.132-2.635 3.018-5.17 2.625-5.059-.794-9.807-8.49-14.052-11.235 1.891-3.55 5.432-6.146 9.325-7.604v.01zm-37.8 1.297c7.453.03 15.389 2.384 20.549 8.007-4.265-.885-9.777-2.314-13.991-3.29-4.235-1.025-9.837-2.152-13.991-3.57 2.434-.825 4.938-1.127 7.443-1.157l-.01.01zm3.309 9.576c3.742-.171 7.494.302 11.115 1.247 2.685.785 5.311 1.74 7.785 3.028.815.442 1.619.905 2.414 1.368a33.731 33.731 0 018.429 7.131c-1.841-.452-3.52-1.076-5.2-1.66-1.7-.512-3.309-1.166-4.999-1.69-1.65-.532-3.259-1.116-4.919-1.588-1.619-.564-3.279-.956-4.898-1.449-6.79-1.77-13.318-3.027-20.48-3.53 3.239-1.922 7.031-2.646 10.753-2.857zm-4.868 10.18c4.617-.745 9.535-.172 13.719 2.081 2.083 1.197 3.933 2.867 5.03 4.97-2.223-.866-4.185-1.54-6.206-2.063-6.347-1.529-12.604-1.65-19.111-2.716 2.031-1.237 4.284-1.88 6.568-2.263v-.01zm-16.054 3.137c-4.244.433-8.318.886-12.442 1.851-2.022.523-3.983 1.197-6.206 2.062 1.096-2.092 2.947-3.762 5.03-4.969 6.235-3.249 14.131-3.249 20.287.181-2.323.403-4.506.634-6.669.865v.01zM72.421 49.315c6.7-3.38 14.726-4.536 21.968-2.273-4.134 1.418-9.777 2.545-13.991 3.57-4.235.977-9.707 2.395-13.992 3.29 1.68-1.941 3.792-3.4 6.015-4.577v-.01zM62.322 61.104c.795-.463 1.6-.926 2.415-1.368 2.474-1.288 5.11-2.243 7.785-3.028 7.131-1.8 15.269-2.102 21.867 1.61-7.152.503-13.69 1.76-20.48 3.53-1.629.493-3.278.895-4.898 1.449-1.66.472-3.269 1.056-4.918 1.589-1.68.513-3.3 1.177-5 1.69-1.69.573-3.359 1.207-5.2 1.66a34.116 34.116 0 018.43-7.132zM36.825 42.576c7.997-.05 17.582 2.032 21.646 9.525-4.255 2.746-9.002 10.441-14.052 11.236-2.534.392-4.033-.493-5.17-2.626-.372-.694-.362-5.26.04-7.221a1.066 1.066 0 00-.955-1.288c-1.217-.09-2.495.362-3.28 1.257.695-3.943 4.708-7.111 8.923-7.02-1.72-2.123-4.356-3.541-7.152-3.853v-.01zm20.74 96.06c-.845-1.107-1.56-2.314-2.173-3.561H46.49a15.322 15.322 0 01-.623 1.64c.503.432.986.865 1.509 1.287 4.365 3.531 10.984 5.905 17.954 7.514a35.445 35.445 0 01-2.414-1.559c-2.052-1.469-3.802-3.33-5.341-5.311l-.01-.01zm-4.768-14.023c.05-2.535.382-5.08 1.167-7.483H42.738c-1.368-.091-.764-1.861-1.086-2.757a9.66 9.66 0 00-3.188-5.441c-8.299-6.679-19.061 2.625-14.605 11.597a4.481 4.481 0 001.579 1.771c1.91 1.237 4.053 1.84 6.407 2.615-2.152 1.519-5.07 1.609-7.463.523-3.953 5.985.09 14.323 7.332 14.756 4.587.362 9.013-3.008 9.908-7.514.372-.925-.272-2.837 1.116-2.917h10.713a27.765 27.765 0 01-.654-5.14v-.01zm115.411-1.127c-2.182-2.072-5.16-2.967-8.036-3.882 2.957-2.022 7.232-1.539 9.736 1.086 4.024-7.313-3.078-16.064-11.084-13.609-3.33.985-5.975 3.902-6.588 7.322-.322.896.271 2.626-1.077 2.716h-12.432c1.348 4.054 1.549 8.439.603 12.634h11.829c.503 0 .906.412.906.905-.031 3.842 2.404 7.423 5.934 8.841 5.925 2.555 13.016-2.092 13.066-8.549a9.496 9.496 0 00-1.378-5.191 3.015 3.015 0 01-.211-.402c-.322-.684-.694-1.358-1.247-1.871h-.021z" fill="#fff"/><path d="M132.4 135.074c12.382-16.878-4.979-37.529-24.09-32.781 1.71 3.068 3.55 6.327 4.265 9.878.321 2.766 1.599 7.533-1.519 8.982h.161l-8.288 6.769a10.184 10.184 0 01-12.895 0l-8.269-6.759a3.295 3.295 0 01-1.78-2.515c-.634-5.743 1.64-11.356 4.546-16.144-23.718-5.32-39.238 24.543-17.41 38.132 4.827 2.827 10.772 3.641 16.214 2.404 1.579-.332 3.088-.965 4.606-1.499a26.856 26.856 0 0116.929-.05c9.425 4.245 21.183 2.012 27.52-6.427l.01.01zm-69.263-15.138c1.318-1.519 5.693 1.227 4.898 2.685-.794 1.429-5.682-.905-4.898-2.685zm1.177 8.912c-2.555-2.264.342-2.988 2.253-1.751 4.144 2.626.402 4.084-2.253 1.751zm6.357 7.725c-.835 1.508-5.824-1.127-4.899-2.686.835-1.509 5.824 1.126 4.899 2.686zm1.488-10.129c.835-1.509 5.824 1.126 4.899 2.685-.835 1.509-5.824-1.126-4.899-2.685zm6.458 10.591c-.835 1.509-5.824-1.126-4.898-2.685.834-1.509 5.824 1.126 4.898 2.685z" fill="#fff"/><path d="M90.154 123.708c3.37 3.792 9.294 3.792 12.664 0l4.104-4.617H86.05l4.104 4.617z" fill="#fff"/><g clip-path="url(#clip0_4006_671)" fill="#fff"><path d="M104.348 13.143l-1.018.46c-.509.249-.861.415-1.047.505-1.606.65-3.025.983-4.23.983-.831 0-1.435-.051-1.804-.158-.728-.167-1.08-.534-1.08-1.124 0-.79.898-1.803 2.674-3.012 1.551-1.09 2.797-1.735 3.699-1.914.894-.184 1.345-.645 1.345-1.367 0-1.248-.716-1.509-1.316-1.509-.443 0-1.03.18-1.8.543a15.25 15.25 0 00-2.177 1.299c.013-.74.062-1.372.153-1.884.067-.509.1-.855.1-1.056 0-.59-.484-.884-1.432-.884-.513 0-.882.077-1.134.23-.302.197-.468.56-.497 1.082-.14 1.598-.062 3.05.236 4.32-2.185 1.926-3.244 3.511-3.244 4.848 0 .953.53 1.688 1.568 2.188.952.47 2.276.705 3.932.705 2.098 0 4.08-.218 5.897-.65.463-.115.77-.264.931-.457.261-.29.393-.743.393-1.346 0-.123.004-.324.017-.61.024-.317.041-.547.041-.705v-.347a.145.145 0 00-.066-.123.155.155 0 00-.137-.013l-.004-.005zm23.373-2.5c-.306-.27-.542-.393-.703-.372-.195.022-.29.176-.29.466 0 .415.282 1.17.849 2.269.6 1.076 1.092 1.833 1.481 2.268.323.394.637.59.948.59.389 0 .803-.269 1.237-.807.484-.641.745-1.432.778-2.363a2.22 2.22 0 01-.294-.064c-2.023-.705-3.36-1.367-4.006-1.991v.004zm-9.402-.466c-.112 0-.484.282-1.117.842-.778.748-1.54 1.12-2.285 1.12-.293 0-.575-.137-.852-.406-.517 1.162-.778 2.187-.778 3.08 0 .807.356 1.213 1.068 1.213.989 0 1.953-.632 2.888-1.897.906-1.264 1.362-2.486 1.362-3.67 0-.188-.096-.282-.29-.282h.004z"/><path d="M131.727 4.768a8.463 8.463 0 00-.629-.03 149.722 149.722 0 00-7.093-.59V1.847c0-.85-.567-1.273-1.701-1.273-.989 0-1.481.53-1.481 1.585v1.957c-2.897.188-5.086.341-6.555.465-.874.082-1.312.77-1.312 2.051 0 .953.252 1.432.753 1.432.033 0 .77-.137 2.21-.406a35.012 35.012 0 014.904-.654c0 .56-.009 2.457-.025 5.691v3.234c0 1.513.517 2.269 1.556 2.269.583 0 .997-.226 1.237-.684.228-.435.34-1.14.34-2.115l.049-8.425c1.701.124 3.303.355 4.809.684l1.068.277c.471.103.832.154 1.092.154.228 0 .447-.124.654-.372.339-.478.509-1.251.509-2.332v-.372c0-.124-.132-.205-.389-.248l.004.004zm9.394-2.238c-1.005 0-1.506.371-1.506 1.119 0 .914-.066 2.123-.195 3.636-.256 3.046-.989 4.571-2.185 4.571a1.09 1.09 0 01-.629-.218c-.6 1.432-.898 2.756-.898 3.982 0 .727.162 1.257.485 1.586.227.29.509.435.852.435 1.457 0 2.702-1.256 3.741-3.764 1.068-2.61 1.602-5.857 1.602-9.733 0-.623-.1-1.046-.29-1.273-.178-.226-.501-.342-.973-.342h-.004zM154.6 8.592s-.066.081-.145.248c-.066.188-.103.29-.12.312-.484.705-1.32 1.534-2.5 2.487-1.262 1.016-2.152 1.525-2.673 1.525-.422 0-.687-.146-.803-.436-.083-.145-.12-.496-.12-1.055 0-.457.05-2.021.145-4.696.099-2.717.145-4.157.145-4.324 0-.683-.509-1.025-1.531-1.025-1.022 0-1.531.372-1.531 1.12 0 .516.008 1.597.024 3.234.05 1.598.075 2.58.075 2.952 0 1.098-.108 2.55-.315 4.354-.194 1.76-.293 2.85-.293 3.264 0 1.077.38 1.615 1.142 1.615.923 0 2.16-.517 3.716-1.555 2.313-1.534 3.935-2.893 4.858-4.072.518-.684.778-1.359.778-2.02 0-.706-.202-1.274-.608-1.71l-.244-.218zm23.295.496c-4.776-.496-8.016-.765-9.717-.808l.099-3.482c1.328.081 2.711.218 4.155.406l1.895.248c.795 0 1.192-.727 1.192-2.18 0-.435-.323-.662-.972-.683-.923-.064-1.846-.124-2.769-.188a72.774 72.774 0 00-5.562-.218c-1.812 0-3.472.124-4.833.372-.323.064-.617.248-.874.56-.26.247-.389.56-.389.93 0 .996.431 1.492 1.287 1.492.079 0 .203-.021.365-.064a32.01 32.01 0 012.987-.624l-.049 3.546c-2.914.29-4.598.56-5.053.808-.455.226-.762.444-.923.654-.228.29-.339.683-.339 1.183 0 .603.153 1.068.459 1.402.261.247.526.371.803.371.228 0 .786-.175 1.676-.53a20.873 20.873 0 013.327-1.055c0 1.97.137 3.316.414 4.042.356 1.055 1.126 1.816 2.305 2.269 1.2.435 3.149.653 5.852.653 1.117 0 1.887-.188 2.309-.56.422-.414.629-1.17.629-2.268v-.218c0-.056-.017-.085-.042-.09a24 24 0 01-1.171.184c-.856.167-1.701.248-2.524.248-1.751 0-2.88-.26-3.402-.778-.517-.517-.786-1.739-.803-3.67a34.74 34.74 0 015.852.624c1.912.372 2.802.56 2.673.56.551 0 .956-.35 1.213-1.056.194-.56.281-1.243.265-2.05h-.145a1.032 1.032 0 00-.195-.03h.005zm7.043-3.577l2.235.53c.939.21 1.498.312 1.676.312.256 0 .389-.205.389-.624 0-.188-.17-.5-.509-.931-.646-.85-1.457-1.773-2.43-2.769-.471-.457-.811-.683-1.018-.683-.567 0-1.018.269-1.361.807-.29.436-.435.932-.435 1.491 0 1.056.485 1.68 1.457 1.867h-.004zm13.309-.743c-.128-.226-.244-.329-.339-.312-.067 0-.228.3-.485.902-.422.914-.753 1.564-.997 1.957-1.167 1.781-2.905 3.43-5.223 4.943-1.44.932-2.768 1.577-3.985 1.927-.989.27-2.235.406-3.741.406-.323 0-.575.21-.753.624a2.537 2.537 0 00-.244 1.12c0 1.264.339 1.896 1.018 1.896 1.279 0 2.71-.27 4.3-.807a19.16 19.16 0 004.419-2.333 26.879 26.879 0 004.519-4.106c1.507-1.76 2.26-3.17 2.26-4.23 0-.457-.253-1.12-.753-1.991l.004.004zM19.545 14.296c-.774-.568-1.957-1.307-3.526-2.192.497-.645.741-1.162.741-1.576 0-.581-.232-1.274-1.345-1.274-.17 0-.33.141-.513.449-.732 1.265-1.556 2.26-2.454 2.96-.844.723-1.788 1.09-2.81 1.09-.6 0-.629-.247-.637-.333a.141.141 0 00-.083-.115.141.141 0 00-.136.008c-.915.603-1.379 1.333-1.379 2.17 0 .475.232 1.043 1.345 1.043 1.114 0 2.173-.316 3.307-.94a12.65 12.65 0 002.35-1.709 35.266 35.266 0 013.717 2.555c.252.218.476.325.678.325.952 0 1.457-.521 1.457-1.504 0-.244-.22-.547-.703-.957h-.009z"/><path d="M24.553 2.773c-.464-.12-1.242-.18-2.38-.18h-5.93c.029-.435.054-.905.074-1.435 0-.53-.252-1.158-1.456-1.158-.965 0-1.2.513-1.234.957 0 .581-.016 1.128-.045 1.64h-6.12c-.336 0-.613-.033-.82-.106-.236-.081-.555-.124-.94-.124-.384 0-.662.09-.864.26-.244.184-.369.458-.369.812v4.957c0 1.935-.401 3.469-1.208 4.563-.583.965-1.23 1.457-1.916 1.457-.17 0-.19-.065-.199-.094a.15.15 0 00-.103-.103.129.129 0 00-.137.043c-.6.658-.906 1.49-.906 2.465 0 .491.112.897.343 1.222.216.248.58.367 1.114.367.91 0 1.833-.448 2.752-1.337 1.055-1.03 1.858-2.5 2.383-4.362.518-1.897.783-4.362.787-7.328.227-.094 1.345-.235 5.905-.26-.199 1-.468 1.756-.807 2.243-.687 1.025-1.577 1.52-2.731 1.52-.464 0-.53-.11-.534-.136a.148.148 0 00-.091-.09.159.159 0 00-.124.018c-.691.487-1.039 1.179-1.039 2.055 0 .423.232.927 1.345.927a5.588 5.588 0 003.46-1.154A7.471 7.471 0 0014.915 7.9a35.941 35.941 0 013.79 2.538c.29.235.526.35.729.35 1.018 0 1.233-.628 1.233-1.158 0-.282-.228-.62-.724-1.068-.836-.692-2.12-1.568-3.808-2.602a4.237 4.237 0 00-.38-.24 6.96 6.96 0 00.17-.7c4.477.022 5.694.111 5.983.171-.145 2.192-.219 5.91-.219 11.066 0 1.03.087 1.722.265 2.11.157.342.517.518 1.08.518.434 0 .832-.103 1.196-.317.393-.277.592-.679.592-1.187 0-.705-.037-1.393-.112-2.034-.075-.743-.112-2.35-.112-4.768 0-3.388.12-5.537.356-6.38.178-.533.203-.691.203-.768 0-.222-.104-.517-.608-.662l.004.004zm22.343.397a65.646 65.646 0 00-5.989-.543V1.384c0-.487-.17-.867-.513-1.132-.244-.17-.563-.256-.943-.256-.381 0-.708.106-.969.333-.248.26-.376.577-.376.94v1.324c-3.154.026-5.024.26-5.699.705-.48.24-.724.624-.724 1.141 0 .338.095.64.29.906.215.243.455.367.72.367.178 0 .629-.085 1.382-.265 1.1-.367 2.446-.576 4.002-.623V6.54c-2.011.021-3.55.107-4.573.26-.695.137-.844.5-.844.778 0 .082.016.257.174.79.128.45.256 1.436.388 2.957.104.59.456.902 1.006.902.447 0 .77-.222.944-.641.174-.461.269-1.252.29-2.418 0-.039 0-.133.24-.171a27.3 27.3 0 012.35-.222v1.867a16.358 16.358 0 01-3.091 3.072c-.994.692-1.834 1.042-2.487 1.042a.53.53 0 01-.17-.017.143.143 0 00-.079-.085.135.135 0 00-.153.025c-.476.449-.716 1.098-.716 1.923 0 .333.066.607.19.803a.208.208 0 00.025.03c.158.141.39.21.708.21.968 0 2.015-.317 3.116-.945.952-.56 1.838-1.32 2.632-2.26v2.393c0 .995.133 1.563.414 1.786.285.252.625.38 1.014.38.484 0 .844-.218 1.072-.645.256-.428.385-1.017.385-1.748v-2.362c.964.598 1.92 1.247 2.838 1.93.29.236.53.351.733.351.877 0 1.345-.478 1.345-1.389 0-.26-.228-.59-.724-1.038-.84-.675-2.123-1.52-3.808-2.516a6.518 6.518 0 00-.38-.227v-2.58c1.072.038 1.796.124 2.14.239.177.094.198.2.198.27v1.354c0 .61.083 1.034.265 1.316.178.183.426.273.745.273.782 0 1.055-.419 1.146-.79.203-1.594.368-2.581.492-2.94.1-.282.15-.551.15-.799 0-.265-.137-.611-.779-.778-.79-.209-2.255-.333-4.357-.376V4.922a36.81 36.81 0 012.905.444c.91.154 1.577.23 1.978.23a.922.922 0 00.757-.375c.282-.393.435-1.013.476-1.897 0-.077-.05-.145-.124-.154h-.012zm2.16 9.404c.53 0 .885-.307 1.034-.91.129-1.38.195-3.85.195-7.336 0-.474-.215-1.042-1.233-1.042-.352 0-.638.098-.853.299-.232.218-.36.504-.38.859 0 6.319.268 7.434.467 7.711.153.274.418.42.766.42h.004z"/><path d="M55.201.359c-.778-.355-1.465-.325-2.052.085-.273.261-.41.616-.41 1.06v12.625c0 .466-.26.85-.795 1.171-.554.35-1.78.547-3.641.581-.079 0-.141.069-.141.15 0 .931.199 1.679.592 2.226.323.418.728.632 1.2.632 1.568 0 2.934-.384 4.068-1.15 1.08-.717 1.63-1.815 1.63-3.264V2.313c0-.24.038-.582.112-1.039 0-.38-.182-.688-.559-.914h-.004zM70.41 2.431s.004.013.004.022c0-.022 0-.026-.004-.022z"/><path d="M79.543 13.206c-2.57 1.171-4.888 1.76-6.953 1.76-1.17 0-1.99-.393-2.458-1.183-.335-.577-.505-1.491-.505-2.739 0-2.093.141-4.084.418-5.964.216-1.739.336-2.62.36-2.645-.012-.24-.194-.466-.554-.67-.43-.21-.985-.317-1.676-.317-1.246 0-1.87.346-1.87 1.038 0 .133-.03 1.124-.083 2.97-.096 1.824-.141 3.14-.141 3.948 0 3.422.314 5.63.948 6.63.782 1.21 2.578 1.817 5.388 1.817s5.454-.27 7.536-.808c.856-.248 1.452-.577 1.787-.978.352-.402.576-1.017.67-1.846.187-1.248.282-1.978.282-2.192v-.376c-.165.06-.654.286-1.452.692-.8.402-1.37.692-1.701.863h.004z"/></g><defs><clipPath id="clip0_4006_671"><path fill="#fff" d="M0 0h199v19H0z"/></clipPath></defs></svg>