<svg width="240" height="223" fill="none" xmlns="http://www.w3.org/2000/svg"><path d="M27.82 190.905c-.21.799-.337.869-.975.927H2.797c-.696-.058-.824-.128-1.021-.927l-.105-.405H0v8.5h1.66l.104-.406c.209-.799.337-.856.975-.926h8.368v21.168c-.058.695-.128.822-.929 1.019l-.406.105v1.656H19.8v-1.656l-.406-.105c-.79-.208-.86-.324-.929-.996v-21.191h8.322c.696.058.824.127 1.02.926l.105.406h1.66v-8.5h-1.66l-.104.405h.012zm35.572 4.598c-3.122-2.895-6.917-4.192-12.267-4.192s-9.007 1.332-12.187 4.18c-3.029 2.756-4.84 6.937-4.84 11.198 0 4.262 1.765 8.407 4.829 11.198 3.029 2.849 7.033 4.238 12.232 4.238 5.2 0 9.157-1.343 12.221-4.226 3.03-2.756 4.84-6.856 4.84-10.99 0-4.539-1.671-8.488-4.828-11.418v.012zm-12.221 20.67c-5.617 0-9.54-3.891-9.54-9.472 0-5.582 3.9-9.426 9.494-9.426 5.594 0 9.575 3.856 9.575 9.6 0 5.384-4.016 9.298-9.54 9.298h.011zm52.412.567l-5.072-7.214c4.921-1.031 7.405-3.926 7.405-8.639 0-3.161-1.289-5.813-3.528-7.249-2.008-1.32-4.41-1.806-8.88-1.806H75.033v1.655l.406.105c.801.208.86.336.929.972v24.249c-.058.695-.128.822-.929 1.019l-.406.104v1.656H85.06v-1.656l-.406-.104c-.79-.208-.86-.324-.929-.996v-8.928h6.836l5.617 8.199c.488.671.929 1.331.94 1.493-.023.035-.174.174-.603.22l-.476.058v1.726h11.49v-1.749l-.511-.035c-1.044-.069-1.346-.185-3.423-3.08h-.012zm-19.858-19.084h9.146c2.866 0 3.516.081 4.387.579.824.463 1.311 1.448 1.311 2.617 0 1.17-.487 2.201-1.3 2.652-.87.452-1.555.579-4.398.579h-9.146v-6.427zm62.382 19.895l-10.654-21.47c-.464-.88-.673-1.598-.673-1.899 0-.116.255-.417.859-.59l.394-.116v-1.644h-11.269v1.632l.383.116c.731.232.824.579.824.857 0 .232-.081.672-.464 1.436l-10.55 22.048c-.859 1.679-1.103 1.784-1.88 1.899l-.465.07v1.702h10.585v-1.667l-.418-.105c-.638-.15-.963-.393-.963-.718 0-.046.011-.335.336-1.1l1.788-3.728h12.372l1.822 3.728c.232.51.336.823.336 1.066 0 .197 0 .614-.905.752l-.476.07v1.714h11.664v-1.702l-.464-.07c-.859-.127-1.184-.371-2.182-2.281zm-15.935-16.641l3.807 8.373h-7.683l3.876-8.373zm52.877 16.015l-10.724-12.865 9.32-7.492c.929-.788 1.892-1.564 2.658-2.177.128-.128.255-.22.383-.313l.128-.093c.336-.22.51-.312 1.056-.382l.475-.058v-1.713h-12.871v1.702l.465.069c.568.093.766.243.789.267 0 .046-.116.278-1.045.996l-10.526 8.557v-8.812c.058-.695.127-.822.928-1.019l.406-.105v-1.655h-10.027v1.655l.406.105c.801.208.859.336.929.972v24.249c-.058.695-.128.822-.929 1.019l-.406.104v1.656h10.027v-1.656l-.406-.104c-.801-.208-.859-.336-.928-.973v-7.434l3.679-3.011 8.159 10.005c.545.695.847 1.077.847 1.181 0 0-.093.139-.627.232l-.452.081v1.691h12.302v-1.714l-.476-.058c-1.126-.151-1.195-.15-3.574-2.907h.034zm35.828-21.434c-3.122-2.895-6.917-4.192-12.267-4.192s-9.006 1.332-12.186 4.181c-3.029 2.756-4.84 6.936-4.84 11.198 0 4.261 1.764 8.407 4.828 11.197 3.029 2.849 7.033 4.239 12.233 4.239 5.199 0 9.157-1.344 12.221-4.227 3.029-2.756 4.84-6.855 4.84-10.989 0-4.54-1.672-8.489-4.829-11.418v.011zm-12.221 20.682c-5.617 0-9.54-3.891-9.54-9.472 0-5.582 3.9-9.426 9.494-9.426 5.594 0 9.575 3.856 9.575 9.599 0 5.385-4.016 9.299-9.54 9.299h.011z" fill="#000"/><path d="M231.723 216.335v-1.594H240V223h-1.598v-6.665h-6.679zm8.277-3.812h-8.277v1.594H240v-1.594zm-8.902 2.218v-2.218H229.5V223h1.598v-2.218h4.457v-1.594h-4.457v-4.447zm5.082 3.812v2.853h-4.457V223h6.054v-6.041h-6.054v1.594h4.457z" fill="#DC001B"/><path d="M112.937 148.35c.058-.73.058-1.482.186-2.2.081-.498.464-.556.824-.197 2.344 2.316 3.818 5.095 4.306 8.36.429 2.872-.024 5.686-.79 8.442-.824 2.965-2.031 5.79-3.447 8.523-.51.984-1.067 1.934-1.613 2.895-.406.707-.905.73-1.276 0-1.207-2.327-2.414-4.655-3.517-7.029a27.212 27.212 0 01-2.147-7.006c-.302-1.818-.511-3.624-.221-5.5.256-1.61.65-3.162 1.358-4.609a13.707 13.707 0 013.087-4.146c.117-.104.395-.173.5-.104.139.093.255.324.266.51.058 1.019.07 2.049.128 3.068.139 2.108.302 4.227.453 6.334.104 1.436.22 2.861.36 4.285.023.185.232.359.348.533.127-.139.336-.267.348-.417.128-.984.232-1.98.325-2.976.162-1.714.348-3.416.441-5.13.07-1.216.011-2.432.011-3.648h.07v.012zm29.944 9.981c-.279 2.119-.534 4.574-.94 7.006-.291 1.748-.743 3.474-1.149 5.199-.058.243-.267.533-.476.614-.163.058-.499-.116-.662-.278-2.611-2.432-4.932-5.107-6.917-8.06-1.764-2.617-3.215-5.408-3.842-8.546-.708-3.578-.023-6.948 1.741-10.121.116-.197.372-.324.557-.486.163.208.407.382.488.613.534 1.633.986 3.289 1.543 4.922a324.111 324.111 0 002.914 7.944c.081.208.348.336.533.509.047-.231.163-.474.116-.683-.789-4.284-1.613-8.569-2.402-12.854-.081-.417-.58-.972.012-1.25.267-.128.8.231 1.172.44 2.298 1.355 4.039 3.265 5.269 5.628a14.62 14.62 0 011.59 5.118c.151 1.309.29 2.629.464 4.285h-.011zm17.072-9.797c-.162-.487-.267-.996-.487-1.448a1691.305 1691.305 0 00-4.956-10.237c-.255-.521-.627-.984-.894-1.493-.092-.186-.139-.51-.046-.661.081-.127.429-.162.627-.115 3.052.683 5.559 2.292 7.59 4.62 1.776 2.038 2.89 4.458 3.598 7.041.534 1.945.917 3.925 1.265 5.917.232 1.332.279 2.698.371 4.053.07 1.077.116 2.166.105 3.243 0 .335-.151.81-.395.972-.197.128-.696-.058-.963-.231-2.228-1.448-4.515-2.826-6.65-4.412-3.076-2.293-5.803-4.968-7.614-8.419-.928-1.772-1.416-3.682-1.613-5.686-.163-1.667.186-3.242.499-4.84.035-.197.244-.44.429-.487.151-.046.453.105.557.267 1.997 2.964 3.97 5.952 5.978 8.905.684 1.007 1.474 1.945 2.228 2.906.058.07.139.116.209.174l.186-.069h-.024zm-95.865.116c.499-.637 1.033-1.263 1.497-1.923a720.319 720.319 0 005.42-7.805c.487-.706.87-1.482 1.334-2.211.117-.174.36-.383.534-.359.174.011.406.254.453.451.476 1.737.662 3.486.499 5.304-.313 3.416-1.752 6.323-3.97 8.812a35.975 35.975 0 01-5.106 4.748c-2.217 1.691-4.63 3.115-6.975 4.62-.638.406-1.091.174-1.08-.567.024-1.691.093-3.37.221-5.06.105-1.367.255-2.733.464-4.088.383-2.501 1.045-4.933 2.066-7.261.847-1.945 1.985-3.717 3.54-5.176 1.892-1.783 4.132-2.965 6.65-3.613.174-.046.43.081.592.208.07.058.07.313 0 .44-1.66 3.301-3.342 6.589-4.99 9.89-.465.915-.848 1.876-1.23 2.825-.082.209-.07.452-.094.683.07.035.128.058.198.093l-.023-.011zm115.78-15.135c-.383-.544-.719-1.123-1.148-1.621-1.695-1.98-3.389-3.96-5.119-5.917-1.114-1.251-2.286-2.444-3.423-3.671-.105-.116-.244-.336-.198-.44.07-.151.267-.313.43-.336 1.427-.278 2.808.07 4.166.394 2.321.556 4.329 1.725 6.128 3.312 1.962 1.737 3.377 3.867 4.631 6.126 1.915 3.462 3.226 7.156 4.224 10.954.221.834-.127 1.181-.998.95-1.276-.348-2.565-.707-3.818-1.123-3.644-1.205-7.149-2.699-10.329-4.91-2.275-1.575-4.132-3.521-5.385-5.987-.825-1.633-1.37-3.358-1.44-5.211a15.17 15.17 0 010-1.61.678.678 0 01.314-.475c.093-.046.325.128.452.243 2.658 2.305 5.304 4.621 7.974 6.914.882.764 1.822 1.459 2.739 2.165.185.151.417.255.615.382.046-.046.104-.092.151-.15l.034.011zM95.18 151.383c-.15 2.42-.627 4.608-1.532 6.693-1.3 2.964-3.087 5.616-5.141 8.094-1.393 1.679-2.948 3.22-4.445 4.806-.395.417-.917.278-1.057-.289-.44-1.761-.928-3.509-1.253-5.281-.522-2.907-.859-5.836-.708-8.801.174-3.242.847-6.357 2.74-9.09 1.334-1.922 2.982-3.497 5.082-4.574.163-.081.476-.116.592-.023.116.104.14.405.093.59-.534 2.525-1.102 5.038-1.613 7.562-.383 1.887-.696 3.787-1.033 5.686v.058c.058.289.116.567.186.857.197-.209.499-.394.592-.649a1241.38 1241.38 0 003.714-10.387c.278-.788.44-1.621.696-2.42a.972.972 0 01.441-.498c.081-.035.36.162.453.312 1.044 1.679 1.74 3.474 1.961 5.443.081.695.174 1.378.232 1.922v-.011zm-42.605-29.969c.162 0 .266-.023.348 0 .29.104.568.22.847.324-.151.244-.267.533-.453.741-1.427 1.599-2.89 3.173-4.306 4.771-1.172 1.332-2.32 2.687-3.47 4.042a33.476 33.476 0 00-1.37 1.725c-.092.128-.08.336-.104.51.151-.058.325-.07.441-.162 1.196-.915 2.403-1.818 3.563-2.768a122.893 122.893 0 004.213-3.52c1.068-.938 2.055-1.957 3.087-2.93.117-.116.337-.208.488-.185.128.023.325.22.325.359.035.637.07 1.273 0 1.899-.209 1.621-.522 3.219-1.346 4.667-.639 1.111-1.242 2.292-2.066 3.254-1.753 2.061-3.946 3.589-6.337 4.886-3.586 1.946-7.416 3.196-11.328 4.262-.765.208-1.183-.197-.963-.961.87-3 1.834-5.964 3.169-8.801 1.01-2.166 2.181-4.238 3.655-6.114 2.414-3.058 5.525-5.072 9.424-5.756.743-.127 1.498-.162 2.194-.243h-.011zm81.079 8.731c-.732.035-1.463.116-2.182.104-4.295.058-8.496-.996-12.477-2.536-5.257-1.656-11.095-1.552-16.283.324-4.399 1.703-9.18 2.571-13.892 2.131-.731-.011-1.451-.104-2.17-.22 12.07 12.622 37.347 12.599 49.394-.035-.069 0-.139.023-.208.035-.72.151-1.451.139-2.182.197zm24.871-16.084a39.138 39.138 0 01-1.299 2.362c-1.521 2.455-3.494 4.609-5.653 6.531-1.427 1.216-2.982 2.259-4.607 3.197 8.159-1.853 15.935-4.609 21.03-8.72a66.295 66.295 0 002.507-2.131 15.079 15.079 0 01-.441-1.227h-11.548l.011-.012zM32.867 74.017a47.5 47.5 0 00.011 1.818 17.168 17.168 0 014.422-.59c.615 0 1.207.046 1.8.104.162-5.327 1.473-10.573 3.411-15.332 1.776-4.505 4.364-8.234 5.815-12.657-.07 6.867-2.925 13.456-3.064 20.288-.22 3.323-.07 6.589.464 9.843a17.142 17.142 0 017.892 9.785h2.066c-.348-.764-.696-1.517-1.01-2.293l-1.125-3.335c-1.95-6.693-2.298-13.78-.198-20.415.708-2.131 1.59-4.192 2.809-6.01-2.577 8.129-.905 16.895 3.076 24.11l1.52 2.605c.836 1.192 1.81 2.478 2.67 3.659.463.556 1.02 1.123 1.496 1.679h.279a28.03 28.03 0 014.747-5.628c-3.644-4.11-6.29-8.893-7.8-14.093-.498-1.934-.893-3.88-.986-5.825 2.588 6.844 7.544 12.565 13.58 16.398 6.998-4.227 15.76-5.28 23.57-2.965 2.995-5.408 5.049-11.487 5.015-17.705-.14-4.123-1.695-8.245-3.25-12.252 2.135 3.729 4.352 7.538 5.223 12.02 1.079 6.531-.082 13.352-2.345 19.524-1.636 4.597-3.865 9.16-3.47 14.012l23.897.115c.406-4.852-1.764-9.38-3.436-13.953-2.332-6.207-3.551-13.098-2.472-19.687.859-4.47 3.064-8.29 5.188-12.02-1.567 4.007-3.133 8.118-3.284 12.24-.058 6.323 2.042 12.472 5.083 17.961 7.648-2.246 16.272-1.204 23.131 2.918 6.174-3.821 11.258-9.646 13.892-16.594-.104 1.946-.499 3.891-.986 5.825-1.532 5.304-4.26 10.167-8.008 14.336a28.135 28.135 0 014.549 5.385h.685c.476-.545 1.021-1.124 1.497-1.68.859-1.192 1.822-2.455 2.669-3.659l1.521-2.605c3.992-7.215 5.652-15.98 3.075-24.11 1.219 1.818 2.101 3.88 2.809 6.01 2.101 6.624 1.753 13.71-.197 20.416l-1.126 3.335c-.313.764-.662 1.528-1.01 2.293h3.099a17.171 17.171 0 016.72-9.044c.661-3.474.847-7.006.603-10.573-.139-6.832-2.994-13.421-3.064-20.288 1.463 4.423 4.039 8.152 5.815 12.657 1.961 4.794 3.273 10.098 3.424 15.46 2.019-.348 4.201-.325 6.221.115.545-15.274-9.541-30.154-8.775-35.064.708-5.154 12.848-15.078 8.798-27.584C186.681 3.321 180.588.009 173.972.009c-8.194-.29-18.395 6.508-23.003 6.323-4.515 0-12.221-3.683-19.196-3.683-6.975 0-13.359 4.042-20.45 4.042-7.091 0-13.474-4.042-20.45-4.042-6.975 0-14.681 3.683-19.196 3.683-4.63.173-14.786-6.6-22.991-6.323-6.604 0-12.709 3.3-15.82 12.935-4.05 12.506 8.09 22.442 8.798 27.584.708 5.153-8.414 17.659-8.786 33.477l-.011.012zm52.087-5.153c-11.814-.209-14.553-16.212-3.69-20.416A40.34 40.34 0 0083.643 60.7c.603 1.76 1.393 3.45 2.193 5.072-.197-1.818-.348-3.613-.313-5.396.035-4.18.72-8.338 2.159-12.229 11.78 3.405 9.656 20.416-2.74 20.717h.012zm53.782 0c-11.664-.186-14.553-15.911-3.946-20.312a40.45 40.45 0 002.368 12.16c.604 1.76 1.393 3.45 2.194 5.072-.198-1.819-.349-3.614-.314-5.397.035-4.203.731-8.384 2.182-12.286 11.989 3.184 10.028 20.462-2.495 20.774l.011-.011zm27.216-58.977c4.492-1.68 9.39-2.166 14.218-2.212-3.227.359-6.267 1.992-8.252 4.435 4.851-.092 9.482 3.544 10.294 8.083-.905-1.03-2.379-1.552-3.783-1.448a1.227 1.227 0 00-1.103 1.483c.465 2.27.476 7.515.047 8.314-1.312 2.455-3.041 3.474-5.966 3.022-5.838-.914-11.316-9.773-16.213-12.934 2.182-4.088 6.267-7.076 10.758-8.755v.012zm-43.615 1.494c8.6.034 17.757 2.744 23.711 9.217-4.921-1.019-11.281-2.663-16.144-3.786-4.886-1.182-11.35-2.479-16.144-4.111 2.809-.95 5.699-1.297 8.589-1.332l-.012.012zm3.819 11.024c4.317-.197 8.646.347 12.824 1.436 3.099.903 6.128 2.003 8.983 3.485.94.51 1.869 1.043 2.786 1.575a38.89 38.89 0 019.725 8.21c-2.123-.52-4.062-1.239-6-1.91-1.961-.59-3.818-1.344-5.768-1.946-1.903-.614-3.76-1.285-5.675-1.83-1.869-.648-3.784-1.1-5.652-1.667-7.834-2.038-15.367-3.485-23.63-4.064 3.737-2.212 8.112-3.046 12.407-3.29zm-5.618 11.719c5.327-.857 11.003-.197 15.831 2.397 2.402 1.378 4.538 3.3 5.803 5.72-2.565-.996-4.828-1.771-7.161-2.374-7.323-1.76-14.542-1.899-22.051-3.126 2.344-1.425 4.944-2.166 7.578-2.606v-.011zm-18.523 3.613c-4.898.498-9.598 1.019-14.356 2.13-2.333.603-4.596 1.378-7.161 2.374 1.265-2.408 3.4-4.33 5.803-5.72 7.195-3.74 16.306-3.74 23.409.208-2.681.463-5.2.73-7.695.996v.012zM83.562 15.329c7.73-3.89 16.991-5.222 25.347-2.617-4.77 1.633-11.28 2.93-16.144 4.111-4.886 1.123-11.2 2.756-16.144 3.787 1.939-2.235 4.376-3.914 6.94-5.27v-.01zM71.909 28.901c.917-.532 1.846-1.065 2.786-1.575 2.855-1.482 5.896-2.582 8.983-3.485 8.228-2.073 17.618-2.42 25.231 1.852-8.252.58-15.796 2.027-23.63 4.065-1.88.568-3.783 1.03-5.652 1.668-1.915.544-3.772 1.216-5.675 1.83-1.938.59-3.807 1.354-5.768 1.945-1.95.66-3.877 1.39-6 1.91a39.343 39.343 0 019.725-8.21zM42.49 7.571c9.226-.058 20.286 2.339 24.975 10.966-4.91 3.161-10.387 12.02-16.213 12.935-2.925.451-4.654-.568-5.966-3.023-.43-.799-.418-6.056.047-8.314.15-.73-.36-1.424-1.103-1.482-1.404-.104-2.878.417-3.784 1.447.801-4.539 5.432-8.187 10.295-8.083-1.985-2.443-5.026-4.076-8.252-4.435v-.011zM66.42 118.16c-.974-1.273-1.798-2.663-2.506-4.099H53.642a17.572 17.572 0 01-.72 1.888c.581.498 1.138.995 1.742 1.482 5.037 4.064 12.674 6.797 20.716 8.65a40.544 40.544 0 01-2.785-1.795c-2.368-1.69-4.387-3.833-6.163-6.114l-.011-.012zm-5.5-16.142c.057-2.918.44-5.848 1.345-8.616H49.313c-1.578-.104-.882-2.142-1.253-3.173-.476-2.431-1.8-4.655-3.68-6.264-9.574-7.69-21.993 3.022-16.851 13.351a5.155 5.155 0 001.822 2.038c2.205 1.425 4.677 2.12 7.393 3.011-2.484 1.749-5.85 1.853-8.612.602-4.561 6.89.105 16.49 8.46 16.988 5.293.417 10.4-3.462 11.433-8.65.43-1.065-.313-3.266 1.288-3.358h12.36a31.89 31.89 0 01-.754-5.918v-.011zm133.166-1.298c-2.518-2.385-5.953-3.416-9.273-4.47 3.412-2.327 8.345-1.771 11.235 1.251 4.642-8.419-3.552-18.493-12.79-15.668-3.842 1.135-6.894 4.493-7.602 8.43-.371 1.031.314 3.023-1.242 3.127h-14.345c1.556 4.667 1.788 9.716.697 14.545h13.648c.581 0 1.045.475 1.045 1.042-.035 4.424 2.774 8.546 6.847 10.179 6.836 2.941 15.019-2.409 15.077-9.843a10.904 10.904 0 00-1.59-5.975 3.48 3.48 0 01-.244-.464c-.372-.787-.801-1.563-1.439-2.154h-.024z" fill="#000"/><path d="M152.769 114.06c14.287-19.43-5.745-43.205-27.796-37.739 1.973 3.532 4.097 7.284 4.921 11.372.371 3.184 1.845 8.673-1.753 10.34h.186l-9.564 7.794a11.77 11.77 0 01-14.878 0l-9.54-7.782c-1.103-.567-1.892-1.621-2.055-2.895-.731-6.612 1.892-13.074 5.246-18.586-27.367-6.126-45.275 28.256-20.09 43.9 5.571 3.254 12.43 4.192 18.709 2.768 1.822-.382 3.563-1.112 5.316-1.726a31.044 31.044 0 0119.532-.058c10.875 4.887 24.443 2.316 31.754-7.399l.012.011zM72.85 96.632c1.52-1.748 6.57 1.413 5.652 3.092-.917 1.645-6.557-1.042-5.652-3.092zm1.358 10.26c-2.948-2.605.395-3.439 2.6-2.015 4.781 3.023.464 4.702-2.6 2.015zm7.335 8.894c-.963 1.737-6.72-1.297-5.652-3.092.963-1.737 6.72 1.297 5.652 3.092zm1.718-11.661c.963-1.737 6.72 1.297 5.652 3.092-.963 1.737-6.72-1.297-5.652-3.092zm7.45 12.193c-.962 1.737-6.72-1.296-5.651-3.091.963-1.737 6.72 1.297 5.652 3.091z" fill="#000"/><path d="M104.023 100.975c3.888 4.366 10.724 4.366 14.612 0l4.735-5.315H99.288l4.735 5.315z" fill="#000"/></svg>