<svg width="248" height="80" fill="none" xmlns="http://www.w3.org/2000/svg"><path d="M247.985 10.824c0 .408-.348 1.42-1.043 3.052-.965 2.168-1.629 4.842-1.976 8.03-1.869 13.007-2.803 21.98-2.803 26.92 0 2.032-.178 3.286-.517 3.762-.348.34-1.112.506-2.286.506-.208 0-3.737-.204-10.593-.612-6.926-.476-12.709-.71-17.342-.71-4.632 0-9.906.166-15.372.506-5.606.476-8.686.71-9.242.71-2.633 0-6-1.193-3.946-5.181 1.274-2.478 2.818-4.268 5.938-4.472 4.362-.476 8.539-.71 15.04-.71 1.521 0 5.158.038 10.91.098 5.745.136 9.065.204 9.968.204 3.119 0 4.679-1.488 4.679-4.472 0-.136.17-2.334.517-6.601.224-3.445.355-9.352.402-12.547.015-1.073-.788-1.987-1.884-2.123a23.673 23.673 0 00-2.88-.166c-.348 0-1.66-.068-3.946-.204a177.378 177.378 0 00-5.196-.098c-7.404 0-13.913.272-19.519.808-5.466.476-8.029.71-7.682.71-4.254.295-6.517-1.261-4.247-5.793 1.429-2.856 1.344-4.91 5.289-5.182h4.478l6.007-.098c4.981-.068 8.239-.098 9.76-.098 1.521 0 6.47.136 15.064.407 8.647.34 13.465.507 14.438.507 5.328 0 7.999.951 7.999 2.847h-.015zM14.369 54.831c0 2.455-3.614 3.15-7.381 3.15-3.768 0-6.2-.536-6.2-2.38v-.075c.548-10.288.942-24.194.942-35.328 0-6.602-.155-12.214-.471-15.515C1.18 3.528 0 3.225 0 2.07 0 .914 3.613 0 6.988 0c5.026 0 7.458 1.533 7.458 2.304 0 .77-.548.846-.625 1.843-.232 3.3-.394 10.212-.394 18.355.232-.234.394-.536.71-.77 1.336-1.307 2.116-1.919 4.085-1.919 1.019 0 2.355.151 4.238.46 5.413.847 22.608 8.831 31.873 10.372 1.096.151 1.49.536 1.49 1.148 0 .151-.077.46-.154.695-1.413 4.683-7.142 11.829-10.91 11.829-.394 0-.788-.076-1.096-.227-3.429-1.639-18.307-12.1-27.202-15.175-.224-.075-.602-.189-1.011-.317-.996-.302-2 .43-1.977 1.45.155 8.755.394 17.887.904 24.716v.075l-.008-.008zm138.098-15.628c-.169 1.058-1.582 1.465-2.246 2.848-7.66 16.293-34.305 36.725-47.871 37.949h-.417c-4.91 0-10.493-6.436-11.659-11.648-.085-.241-.085-.407-.085-.65 0-.732.502-.974 1.668-.974h1.583c16.423 0 35.942-13.377 42.79-25.07.479-.823-.093-1.843-1.058-1.904-2.478-.143-6.717-.226-11.759-.226-12.238 0-29.054.408-36.22 1.14h-.663c-1.498 0-2.162-.732-2.162-1.79 0-1.14.664-2.606 1.498-4.071 2-3.505 3.83-5.862 6.91-5.862 2.502 0 28.977-.241 41.547-.241 3.081 0 5.328.083 6.161.083h.248c1.497 0 1.328-.65 2.578-.65.17 0 .417.083.664.083 3.081.408 8.493 7.66 8.493 10.757v.241-.015zm-9.574-14.745c-5.574-2.039-15.905-2.772-25.564-2.772s-18.484.733-21.65 1.707c-.834.242-1.583.408-2.162.408-1.413 0-2.084-.732-2.084-2.04 0-1.057.417-2.363 1.08-3.987 2-4.721 3.66-5.862 5.83-6.028 2.417-.242 7.08-.325 12.655-.325 13.071 0 31.309.491 38.381.899.996.083.996.408.996 1.224-.17 4.396-3.66 10.998-6.825 10.998-.17 0-.417 0-.664-.084h.007z" fill="#fff"/></svg>