<svg width="29" height="120" viewBox="0 0 29 120" fill="none" xmlns="http://www.w3.org/2000/svg">
<path d="M9.06211 95.2009L9.06211 103.873C8.995 104.996 7.40093 104.475 6.63746 104.776C2.87883 105.493 0.0682521 109.084 0.370285 112.797C0.722656 118.659 7.6778 121.933 12.6781 118.733C11.7636 116.795 11.8391 114.442 13.1144 112.691C13.7604 114.596 14.2638 116.331 15.2957 117.878C15.6649 118.423 16.1767 118.871 16.7723 119.156C24.2476 122.763 31.9998 114.051 26.429 107.333C25.2712 106.006 23.652 105.078 21.8901 104.752C21.1434 104.483 19.6668 104.98 19.5913 103.873C19.5913 101.332 19.5913 16.1212 19.5913 16.1212C19.6668 15.022 21.1099 15.5024 21.8565 15.25C24.7175 14.7533 27.1421 12.6118 27.9643 9.91663C30.0114 3.42709 22.7123 -2.3215 16.6129 0.943627C18.8027 2.9711 19.2054 6.43166 17.519 8.82555C16.7556 6.4968 16.0089 4.08662 14.2806 2.3197C13.8443 1.87187 13.2906 1.5706 12.7201 1.31004C12.611 1.26118 12.4935 1.20419 12.3845 1.13905C11.126 0.398087 9.64101 -0.0171882 8.05533 0.0235223C2.66909 0.0560924 -1.21539 5.79654 0.924006 10.6006C2.09858 13.4667 5.09374 15.4291 8.29864 15.4046C8.71813 15.4046 9.05372 15.7304 9.05372 16.1375L9.05372 95.2009L9.06211 95.2009Z" fill="#DC001B"/>
</svg>
