<svg width="29" height="120" fill="none" xmlns="http://www.w3.org/2000/svg"><path d="M9.062 95.2v8.673c-.067 1.123-1.661.602-2.425.903-3.758.717-6.569 4.308-6.267 8.021.353 5.862 7.308 9.136 12.308 5.936-.914-1.938-.839-4.291.436-6.042.646 1.905 1.15 3.64 2.182 5.187.369.545.88.993 1.476 1.278 7.476 3.607 15.228-5.105 9.657-11.823a7.994 7.994 0 00-4.539-2.581c-.747-.269-2.223.228-2.299-.879V16.121c.076-1.099 1.519-.619 2.265-.871 2.861-.497 5.286-2.638 6.108-5.333 2.047-6.49-5.252-12.239-11.351-8.973 2.19 2.027 2.592 5.488.906 7.882-.763-2.33-1.51-4.74-3.238-6.506-.437-.448-.99-.75-1.56-1.01a3.252 3.252 0 01-.337-.171A8.098 8.098 0 008.055.024C2.67.056-1.215 5.797.924 10.6c1.175 2.866 4.17 4.828 7.375 4.804a.74.74 0 01.755.732V95.2h.008z" fill="#DC001B"/></svg>