<svg width="231" height="152" viewBox="0 0 231 152" fill="none" xmlns="http://www.w3.org/2000/svg">
<path d="M184.123 72.328C185.12 72.4146 185.683 72.5877 185.857 72.8691C186.03 73.1506 186.247 73.5619 186.528 74.103C186.81 74.6442 186.637 75.3153 186.052 76.1379C185.228 76.5708 184.145 77.3718 182.758 78.5624C181.393 79.753 179.248 81.7878 176.366 84.7102C177.016 85.2298 177.427 85.706 177.622 86.1606C177.817 86.6152 177.817 87.979 177.622 90.2952C177.427 92.5899 177.102 95.5123 176.647 99.0191C176.192 102.548 175.867 105.47 175.65 107.808C175.434 110.146 175.542 111.813 175.976 112.808C176.322 114.194 176.041 115.081 175.13 115.493C174.22 115.904 173.332 115.688 172.422 114.887C171.988 113.977 171.663 112.938 171.447 111.726C171.273 109.67 171.338 107.527 171.642 105.34C172.292 99.582 172.747 95.4257 173.028 92.8929C173.31 90.3602 173.505 88.6717 173.635 87.8707C171.23 90.1004 169.171 92.1136 167.481 93.8887C165.791 95.6638 164.339 97.3523 163.126 98.9109C161.912 100.469 161.089 101.53 160.612 102.028C160.222 102.461 159.962 102.829 159.81 103.132C159.659 103.435 159.507 103.998 159.334 104.799C159.334 105.925 158.748 106.466 157.6 106.466C156.517 106.336 155.823 105.903 155.476 105.167C155.13 104.431 155.151 103.522 155.52 102.418C155.888 101.314 157.058 99.4954 159.074 96.8977C161.067 94.3216 163.342 91.6807 165.878 88.9964C168.413 86.3121 170.97 83.6495 173.549 81.0085C176.127 78.3676 178.229 76.3544 179.876 74.9906C181.501 73.6052 182.931 72.7176 184.145 72.2847L184.123 72.328Z" fill="white"/>
<path d="M47.867 7.36349C47.9971 9.35504 48.0837 24.7896 48.1054 27.0409C48.1271 29.3139 48.1921 31.5436 48.2788 33.7732C48.3654 36.0029 48.4088 37.6698 48.4304 38.7521C49.1455 38.8387 50.034 38.8171 51.0958 38.6655C53.5444 38.1893 55.8413 37.6914 57.9866 37.1935C60.1318 36.6956 62.1471 36.2843 64.054 35.9813C65.3324 36.1111 66.0692 36.4142 66.2209 36.9337C66.3726 37.4533 66.4592 38.146 66.4809 39.0119C65.0291 39.6613 63.0788 40.2891 60.6519 40.8952C58.2249 41.5013 56.2747 41.9776 54.7795 42.3456C53.2844 42.7136 52.2659 42.995 51.6808 43.1898C51.0958 43.3847 50.1423 43.3847 48.7988 43.1898C48.5605 44.532 48.5388 46.1988 48.7338 48.1471C48.9288 50.0953 49.1889 52.2601 49.5572 54.6196C49.904 56.9792 50.4023 59.4253 51.0524 61.9797C51.7025 64.5341 55.4513 81.7221 56.1447 83.4322C54.5628 84.06 53.4144 84.1682 52.7426 83.7786C52.0925 83.3673 51.6158 82.6529 51.2474 81.6571C50.9007 80.6397 47.3036 63.6466 46.6536 60.7675C46.0035 57.8884 45.3968 53.5156 44.855 47.6059C44.3133 41.6962 43.9882 36.6307 43.9016 32.3662C43.8149 28.1016 43.7282 11.9527 43.7065 10.5024C43.6632 9.07363 43.5115 7.42843 43.2298 5.61005C43.1648 4.78745 43.4248 4.33286 43.9666 4.24627C44.465 4.15968 45.2451 4.3978 46.2635 4.98228C47.282 5.56676 47.8237 6.34606 47.867 7.34184V7.36349Z" fill="white"/>
<path d="M103.795 32.107C102.907 31.8256 101.845 31.6957 100.61 31.7174C99.3748 31.739 97.2296 32.2802 94.2175 33.3626C91.2055 34.4449 88.7569 35.5922 86.8933 36.8478C85.0298 38.0817 83.8163 39.0125 83.2096 39.597C82.8629 39.8784 82.5161 40.1165 82.1694 40.333C81.8227 40.5495 81.3894 40.5711 80.8693 40.3979C79.9375 39.8135 79.2224 39.0342 78.7457 38.0167C78.7024 37.7137 78.7457 37.4106 78.9407 37.0643C79.1141 36.7179 79.3308 36.4581 79.5475 36.2417C81.086 35.0511 83.7513 33.579 87.5434 31.7823C91.3355 30.0072 95.171 28.7084 99.0498 27.8858C100.285 27.6693 101.542 27.6477 102.82 27.8425C104.099 28.0373 105.226 28.5136 106.201 29.3145C106.807 29.7258 107.306 30.2453 107.761 30.8731C108.194 31.5009 108.433 32.1503 108.433 32.843C108.433 33.5357 108.303 34.2717 107.999 35.0078C107.132 37.2591 105.811 39.7702 104.034 42.5843C102.257 45.3768 100.588 47.9096 99.0498 50.1392C97.5113 52.3689 96.3628 54.2089 95.6694 55.6377C95.301 56.2654 94.9976 56.72 94.7809 56.9798C94.5642 57.2396 94.0225 57.2612 93.1557 57.0664C92.1156 56.6334 91.4655 56.1788 91.2055 55.7026C90.9455 55.2264 91.1405 54.3821 91.8123 53.1699C95.2577 47.9745 97.988 43.7533 100.003 40.5062C101.997 37.2591 103.189 35.2459 103.535 34.4882C103.882 33.7306 103.99 32.9296 103.839 32.0854L103.795 32.107ZM101.823 16.088C101.412 16.4993 101.13 16.8024 100.935 16.9972C100.74 17.192 100.22 17.2137 99.3098 17.1271C98.508 16.7807 97.3596 16.824 95.8427 17.2137C94.3476 17.6033 92.809 18.0579 91.2272 18.5774C89.667 19.097 88.0635 19.6598 86.4166 20.2659C84.7697 20.8721 83.2096 21.6081 81.6927 22.4307C80.9126 22.7337 80.1325 22.7337 79.3308 22.4307C78.529 22.1059 77.9656 21.5431 77.6622 20.7205C77.4889 20.2659 77.5756 19.8113 77.9223 19.3567C78.2473 18.9021 78.6374 18.6207 79.0491 18.5125C80.9776 17.6033 83.1879 16.7158 85.6582 15.8499C88.1285 14.984 90.4688 14.248 92.679 13.6418C94.0442 13.2738 95.3227 12.9708 96.4495 12.7759C97.1212 12.6461 97.7713 12.5595 98.378 12.4945C99.4182 12.4512 100.198 12.7759 100.762 13.512C101.325 14.248 101.672 15.0922 101.845 16.0663L101.823 16.088Z" fill="white"/>
<path d="M120.784 19.5505C121.716 19.1609 123.103 18.5331 124.901 17.6456C126.7 16.758 129.17 15.7406 132.29 14.5717C135.281 13.446 137.838 12.6883 139.94 12.2987L140.2 12.2554C142.367 11.909 144.057 11.8225 145.292 11.974C146.527 12.1255 147.459 12.7749 148.087 13.9439C149.192 15.4592 149.842 17.1693 150.037 19.096C150.146 22.9708 150.037 26.2612 149.756 29.0321C149.452 31.7813 149.192 33.4914 148.954 34.1409C150.037 35.05 150.471 35.851 150.297 36.5653C150.124 37.2797 149.734 37.8209 149.149 38.1673C148.564 38.5353 147.806 38.8383 146.895 39.0981C145.314 39.7692 143.125 40.6567 140.351 41.7607C137.578 42.8647 134.132 44.2502 130.015 45.9386C129.452 46.2201 128.845 46.3932 128.173 46.4582C127.501 46.5231 126.916 46.3716 126.396 45.9819C125.876 45.5923 125.356 45.2026 124.858 44.813C124.576 44.4233 124.403 44.0337 124.316 43.6224C124.229 43.2111 124.359 42.8431 124.684 42.5184C124.988 42.172 125.53 41.8906 126.266 41.6092C128.173 41.0463 130.188 40.4835 132.29 39.8557C134.392 39.2496 136.451 38.5569 138.444 37.7993C140.438 37.0416 142.497 36.2839 144.598 35.5696C144.837 33.2533 145.054 31.0236 145.249 28.8805C145.444 26.7375 145.595 24.3996 145.704 21.8668C145.834 19.3341 145.747 17.5806 145.487 16.5632C144.685 16.1736 143.818 16.0437 142.93 16.1303C142.042 16.2169 140.091 16.7364 137.101 17.6456C134.111 18.5548 131.467 19.6155 129.148 20.8061C126.83 21.9967 125.378 22.8193 124.793 23.2739C124.294 23.6202 123.818 23.88 123.363 24.0532C122.908 24.2264 122.409 24.2264 121.846 24.0532C121.391 23.7285 121.001 23.3172 120.676 22.7977C120.351 22.2565 120.069 21.6936 119.896 21.1092C119.701 20.503 120.004 19.9835 120.806 19.5505H120.784Z" fill="white"/>
<path d="M185.943 16.5858C185.293 16.391 184.578 16.4343 183.798 16.6941C183.018 16.9539 181.393 17.6682 178.923 18.7939C176.452 19.9195 174.719 20.8071 173.7 21.4565C172.682 22.1059 171.923 22.6038 171.447 22.9935C170.97 23.3831 170.385 23.6645 169.735 23.8161C169.106 23.9243 168.326 23.6645 167.438 23.0151C166.549 22.3657 166.008 21.7812 165.856 21.2617C165.704 20.7421 165.856 20.2659 166.354 19.8329C168.175 18.8155 171.273 17.4301 175.65 15.6983C180.028 13.9665 183.365 12.7976 185.705 12.1698C186.745 11.8884 187.634 11.9966 188.349 12.4945C189.064 12.9707 189.735 13.5769 190.342 14.2696C190.949 14.9623 191.166 15.8931 191.036 17.0621C190.407 18.4908 189.584 20.0927 188.544 21.8894C187.504 23.6862 186.333 26.1756 185.012 29.3794C183.69 32.5832 182.866 34.748 182.498 35.9169C182.13 37.0642 182.216 37.9734 182.78 38.6228C183.321 39.2723 184.361 39.8134 185.857 40.268C187.352 40.7226 188.262 40.9391 188.565 40.9391C188.869 40.9391 189.93 40.701 191.729 40.2464C192.119 40.2464 192.487 40.3979 192.812 40.636C193.138 40.8742 193.354 41.2205 193.484 41.6535C193.614 42.0864 193.593 42.5843 193.441 43.1255C193.289 43.6667 192.943 44.1213 192.401 44.4893C191.946 45.0954 191.101 45.3552 189.865 45.2902C188.63 45.2253 187.439 45.0737 186.268 44.814C185.12 44.5542 183.885 44.1213 182.606 43.5368C181.328 42.9307 180.201 42.173 179.248 41.2422C178.337 40.3113 177.774 39.5537 177.536 38.9692C177.297 38.3847 177.384 37.2807 177.817 35.6788C179.378 31.6957 180.938 27.994 182.476 24.5521C184.015 21.1101 185.185 18.4692 185.987 16.5642L185.943 16.5858ZM196.345 10.1133C196.128 11.1524 195.803 11.7801 195.369 12.0183C194.936 12.2564 194.481 12.1698 194.004 11.7585C193.181 11.2606 192.422 10.6112 191.772 9.85353C190.841 8.48975 189.952 7.10432 189.129 5.67559C188.609 4.98288 188.587 4.31181 189.042 3.66239C189.735 2.88309 190.407 2.66662 191.079 2.96968C191.751 3.29439 192.227 3.6191 192.509 3.96546C193.874 6.26007 195.153 8.29492 196.345 10.0917V10.1133ZM200.158 6.8662C199.378 5.13441 198.772 3.5758 198.36 2.21202C197.991 1.41107 198.078 0.76165 198.598 0.263761C198.75 0.155524 198.945 0.0689351 199.14 0.0256404C199.638 -0.0609489 200.332 0.0689351 201.177 0.458587C201.87 1.17295 202.434 2.10378 202.845 3.27274C203.279 4.4417 203.517 5.76218 203.604 7.2342C203.56 7.94856 203.257 8.40316 202.715 8.64128C202.174 8.8794 201.675 8.8361 201.22 8.51139C200.765 8.18668 200.418 7.6455 200.137 6.8662H200.158Z" fill="white"/>
<path d="M23.2291 141.296C24.746 141.946 25.9595 142.227 26.8696 142.119C28.3864 139.023 29.8383 135.56 31.2251 131.706C32.6119 127.853 33.4353 123.935 33.7387 119.93C33.2187 119.8 32.0919 119.93 30.3366 120.363C28.6031 120.774 26.5229 121.445 24.1392 122.376C21.734 123.329 19.632 124.26 17.7902 125.212C16.7067 129.866 15.6449 134.715 14.6265 139.694C13.608 144.673 12.9363 148.786 12.5895 151.947C11.8095 152.033 11.116 152.012 10.5093 151.903C9.03579 151.773 8.42905 150.929 8.68908 149.392C8.92744 147.509 9.20914 145.604 9.53418 143.677C10.1409 140.841 10.7043 138.136 11.2027 135.581C11.7011 133.027 12.1995 130.559 12.6762 128.199C11.6144 128.762 10.6176 129.347 9.68586 129.975C8.75409 130.602 7.23724 131.706 5.15699 133.243C4.33356 133.828 3.68349 134.152 3.20676 134.217C2.73004 134.282 1.88494 133.784 0.671463 132.745C-0.0652911 131.836 0.0647243 130.927 1.06151 130.039C2.73004 129.087 4.3769 128.091 6.02376 127.052C7.67063 126.013 8.92744 125.255 9.79421 124.801C10.661 124.346 12.0912 123.545 14.0847 122.42C14.4964 120.212 14.9298 118.112 15.3415 116.099C15.7533 114.085 16.1433 111.033 16.49 106.942C16.555 106.379 16.7284 106.033 17.0101 105.859L17.1401 105.816C17.4651 105.73 18.0719 105.773 18.917 105.924C19.7404 106.639 20.3038 107.396 20.6072 108.197C20.6072 109.366 20.5205 110.427 20.3471 111.401C19.9788 114.259 19.5237 117.181 18.982 120.125C20.9972 119.302 22.8391 118.566 24.551 117.895C26.2628 117.224 28.5381 116.64 31.3984 116.142C32.5902 115.947 33.7387 116.099 34.8655 116.575C35.9923 117.051 36.7724 117.852 37.2275 118.999C37.7042 120.147 37.8342 121.294 37.6608 122.463C37.3575 125.299 36.7941 128.156 35.949 131.014C35.1039 133.871 34.0854 136.664 32.9153 139.391C32.0485 141.404 31.0951 143.418 30.0766 145.387C29.3832 146.297 28.4948 146.665 27.368 146.513C26.1978 146.621 25.3961 146.297 24.9627 145.561C24.5293 144.825 24.1826 144.218 23.9009 143.742C23.6192 143.266 23.4025 142.443 23.2508 141.274L23.2291 141.296Z" fill="white"/>
<path d="M50.4674 106.097C52.5476 106.335 54.0861 106.573 55.1479 106.79C56.188 107.028 58.3983 107.764 61.7787 109.02C62.9488 109.864 63.5339 110.73 63.5339 111.639C63.5339 112.548 63.3606 113.024 62.9705 113.024C62.6021 113.024 62.1904 112.981 61.757 112.894C59.5901 112.158 57.9216 111.639 56.7298 111.401C55.538 111.141 54.3245 110.968 53.046 110.86C51.7675 110.946 50.7924 110.557 50.0773 109.691C49.3622 108.825 48.9939 108.219 48.9072 107.872C48.8422 107.504 48.8638 107.136 49.0372 106.747C49.1022 106.508 49.3622 106.314 49.8173 106.205C50.034 106.14 50.229 106.119 50.4674 106.097ZM88.5185 109.236C84.7048 112.938 81.3894 116.336 78.5507 119.41C75.712 122.484 73.3934 125.32 71.5949 127.961C69.7963 130.58 68.0411 133.265 66.3292 136.014C65.9175 136.75 65.3325 137.269 64.574 137.551C63.8373 137.832 63.0789 137.767 62.3421 137.356C61.8004 137.183 61.3237 136.88 60.9119 136.403C60.5002 135.949 60.3702 135.408 60.5436 134.802C60.7169 134.195 60.9769 133.698 61.367 133.265C63.6856 130.321 66.0909 127.312 68.5612 124.259C71.0531 121.207 73.5668 118.393 76.0804 115.838C78.6157 113.284 80.8693 111.228 82.8195 109.691C84.7914 108.154 86.2866 107.093 87.3267 106.487C87.8251 106.205 88.2802 106.205 88.6919 106.444C89.1036 106.682 89.2553 107.093 89.1903 107.634C89.1253 108.197 88.8869 108.716 88.4969 109.236H88.5185Z" fill="white"/>
<path d="M108.346 98.4779C109.213 97.8934 109.928 97.677 110.469 97.8285C111.033 97.98 111.51 98.2614 111.9 98.6511C112.29 99.0407 112.55 99.4953 112.636 100.015C112.745 100.556 112.658 101.184 112.42 101.92C111.141 104.712 109.884 108.068 108.671 111.986C107.457 115.904 106.569 119.454 105.984 122.636C105.399 125.818 105.334 128.373 105.767 130.321C104.229 130.559 103.102 130.386 102.409 129.758C101.715 129.131 101.282 128.33 101.13 127.291C100.978 126.251 100.957 125.061 101.087 123.697C101.195 122.333 101.455 120.775 101.867 119.043C102.257 117.311 102.929 114.887 103.86 111.748C104.792 108.631 105.637 105.99 106.417 103.868C107.197 101.747 107.826 99.9499 108.324 98.4779H108.346ZM123.601 96.7894C124.663 96.7678 125.595 96.9842 126.396 97.4605C127.198 97.9367 128.108 98.6294 129.105 99.5603C130.123 100.491 131.705 101.833 133.872 103.565C136.039 105.318 138.835 106.531 142.215 107.202C142.627 107.223 143.06 107.375 143.537 107.635C144.013 107.895 144.252 108.263 144.274 108.695C144.274 109.128 144.339 109.626 144.447 110.189C143.06 110.795 141.717 111.012 140.46 110.882C139.203 110.73 137.903 110.384 136.581 109.799C134.457 108.869 132.442 107.678 130.557 106.228C128.672 104.777 126.83 103.262 125.053 101.638C124.294 100.989 123.818 100.253 123.579 99.4304C123.341 98.6078 123.363 97.7203 123.579 96.7461L123.601 96.7894ZM135.259 76.311C135.866 76.5492 136.516 76.5925 137.231 76.4409C138.379 75.943 139.55 75.8997 140.698 76.2894C141.847 76.679 142.865 77.3068 143.71 78.1511C144.794 79.1901 145.617 80.3807 146.202 81.7445C146.787 83.1083 147.004 84.5154 146.895 86.0091C146.787 87.4811 146.419 88.8881 145.812 90.2086C144.837 92.3517 143.623 94.3 142.193 96.0751C141.045 97.5904 139.55 98.3264 137.708 98.3047C135.866 98.2614 134.349 97.5254 133.157 96.0751C131.619 94.1701 130.6 92.2435 130.123 90.2519C129.647 88.2604 129.625 85.9008 130.037 83.1732C130.232 82.4589 130.514 81.7878 130.86 81.1817C131.207 80.5756 131.51 79.9694 131.792 79.3633C132.182 78.0212 132.659 77.0687 133.244 76.5708C133.461 76.4193 133.699 76.311 133.959 76.2461C134.371 76.1379 134.804 76.1812 135.259 76.3543V76.311ZM133.851 88.9964C134.024 89.9705 134.392 91.0745 134.934 92.3084C135.476 93.5423 136.104 94.1052 136.863 93.9969C137.621 93.8887 138.509 93.4124 139.593 92.5898C141.695 90.1437 142.995 87.3728 143.537 84.234C143.645 83.3464 143.537 82.5022 143.147 81.6796C142.757 80.857 142.15 80.2942 141.305 80.056C140.46 79.7963 139.593 79.8179 138.748 80.0777C137.881 80.3158 137.058 80.6622 136.299 81.1384C135.541 81.6146 134.956 82.2641 134.566 83.1083C134.176 83.9526 133.937 84.8617 133.872 85.8575C133.807 86.8533 133.807 87.8924 133.872 88.9964H133.851Z" fill="white"/>
<path d="M218.837 60.1833C217.169 61.8285 214.308 65.79 210.256 72.0893C206.204 78.3887 203.712 83.5191 202.824 87.4589C202.672 88.0434 202.434 88.498 202.13 88.8011C201.805 89.1041 201.242 89.1474 200.418 88.8877C199.833 88.3681 199.552 87.8919 199.53 87.4373C199.508 86.9827 199.53 86.5281 199.595 86.0302C200.18 83.2594 201.264 80.337 202.845 77.2847C204.406 74.2324 206.247 70.8987 208.349 67.2403C210.451 63.6036 212.575 59.9885 214.763 56.4383C215.5 55.356 216.237 54.9663 216.995 55.2694C217.754 55.5724 218.339 56.1136 218.794 56.8496C219.227 57.5856 219.487 58.2134 219.552 58.7329C219.617 59.2525 219.401 59.7287 218.881 60.1617L218.837 60.1833ZM198.035 103.478C197.471 103.391 196.973 103.326 196.583 103.283C196.171 103.262 195.825 103.067 195.521 102.699C195.218 102.352 195.109 101.854 195.196 101.227C194.719 100.014 194.958 98.1744 195.89 95.7282C196.431 94.6459 197.211 94.3645 198.252 94.9056C199.465 95.6849 199.942 96.7889 199.66 98.2177C199.01 100.556 198.468 102.309 198.035 103.478Z" fill="white"/>
<path d="M229.672 76.8735C227.96 77.761 225.013 80.1855 220.788 84.147C216.562 88.1084 213.94 91.5287 212.943 94.3862C212.77 94.8191 212.532 95.1005 212.206 95.2737C211.881 95.4469 211.318 95.3387 210.495 94.949C209.931 94.4078 209.65 93.9532 209.628 93.6069C209.628 93.2389 209.65 92.8925 209.736 92.5245C210.408 90.4897 211.556 88.4765 213.225 86.4632C214.872 84.45 216.8 82.2853 218.989 79.9258C221.178 77.5662 223.409 75.2716 225.685 72.9986C226.443 72.3275 227.202 72.1977 227.938 72.609C228.675 73.0203 229.26 73.5831 229.694 74.2758C230.105 74.9469 230.344 75.5097 230.387 75.921C230.43 76.3323 230.214 76.657 229.694 76.8735H229.672ZM207.743 105.773C207.179 105.556 206.703 105.405 206.291 105.275C205.879 105.145 205.532 104.928 205.251 104.582C204.969 104.236 204.861 103.824 204.947 103.348C204.514 102.287 204.796 100.902 205.771 99.2135C206.334 98.4992 207.136 98.4775 208.154 99.1269C209.346 100.014 209.78 100.989 209.476 102.049C208.761 103.716 208.176 104.972 207.699 105.773H207.743Z" fill="white"/>
</svg>
