<svg width="64" height="64" viewBox="0 0 64 64" fill="none" xmlns="http://www.w3.org/2000/svg">
<circle cx="32" cy="32" r="32" fill="black"/>
<path d="M39.6695 15.3696H24.3308C19.3815 15.3696 15.3701 19.3817 15.3701 24.3311V39.6683C15.3701 44.6176 19.3822 48.6297 24.3315 48.6297H39.6688C44.6181 48.6297 48.6302 44.6176 48.6302 39.6683V24.3311C48.6302 19.3817 44.6188 15.3696 39.6695 15.3696Z" stroke="white" stroke-width="1.5" stroke-miterlimit="10"/>
<path d="M32.0001 40.0286C36.4341 40.0286 40.0286 36.4341 40.0286 32.0001C40.0286 27.5661 36.4341 23.9717 32.0001 23.9717C27.5661 23.9717 23.9717 27.5661 23.9717 32.0001C23.9717 36.4341 27.5661 40.0286 32.0001 40.0286Z" stroke="white" stroke-width="1.5" stroke-miterlimit="10"/>
<path d="M43.303 22.2514C43.303 23.1094 42.6075 23.8049 41.7495 23.8049C40.8915 23.8049 40.196 23.1094 40.196 22.2514C40.196 21.3934 40.8915 20.6979 41.7495 20.6979C42.6075 20.6979 43.303 21.3934 43.303 22.2514Z" fill="white" stroke="white" stroke-width="0.333333"/>
</svg>
