<svg width="42" height="71" viewBox="0 0 42 71" fill="none" xmlns="http://www.w3.org/2000/svg">
<path d="M24.5147 67.6556C21.8191 66.3917 19.3054 64.2563 17.044 61.3098C12.8622 55.8634 10.0584 51.8231 6.38781 41.6708C2.71721 31.5218 2.28952 26.6263 2.02241 19.7688C1.54556 7.58735 8.81138 4.01795 11.0482 3.21349L13.5307 2.32073C14.7515 1.88089 15.9215 1.89397 16.9096 2.3567C17.9879 2.86194 18.7728 3.85281 19.1808 5.22138C19.9281 7.7247 20.8801 13.8808 21.1489 16.3988C21.4438 19.1621 19.8773 21.654 17.2505 22.5991L12.4312 24.3339C12.8523 29.4501 13.788 33.806 15.4512 38.4104C17.1161 43.0132 19.1825 46.9619 22.1337 51.1674L26.953 49.4326C28.4688 48.8864 30.0812 48.9518 31.497 49.614C32.4687 50.0702 33.3077 50.7979 33.9206 51.72C35.3249 53.8293 38.5318 59.1744 39.5576 61.5764C40.1016 62.8485 40.1442 64.0781 39.6837 65.1343C39.2331 66.1677 38.3269 66.9542 37.0635 67.4087L34.6006 68.2949C33.1045 68.8345 29.1685 69.8368 24.513 67.6556H24.5147Z" stroke="#DC001B" stroke-width="3"/>
</svg>
