<svg width="26" height="87" viewBox="0 0 26 87" fill="none" xmlns="http://www.w3.org/2000/svg">
<path d="M20.3101 3.2354C18.3212 1.08842 15.8283 0.0858295 12.8909 0.00373172C12.7122 -0.00124391 12.5334 -0.00124391 12.3546 0.00373172C9.41973 0.0833417 6.92682 1.08593 4.93795 3.2354C0.550519 7.97717 -0.306111 16.6522 0.294771 22.6403C0.699498 26.6656 2.58408 30.4346 5.89638 33.8429C6.00812 33.9574 6.11985 34.0793 6.23158 34.2012C8.67236 36.9104 9.99827 40.4605 10.0181 44.1101C10.0181 44.1574 10.0181 44.2047 10.0181 44.2495V85.4252C10.0181 86.2959 10.7208 87 11.5899 87H13.6582C14.5272 87 15.2299 86.2959 15.2299 85.4252V44.2495C15.2299 44.2022 15.2299 44.1549 15.2299 44.1101C15.2498 40.4605 16.5757 36.9104 19.0165 34.2012C19.1282 34.0793 19.2399 33.9574 19.3517 33.8429C22.664 30.4346 24.551 26.6631 24.9533 22.6403C25.5542 16.6522 24.6975 7.97717 20.3101 3.23789V3.2354Z" fill="white"/>
</svg>
