<svg width="86" height="86" viewBox="0 0 86 86" fill="none" xmlns="http://www.w3.org/2000/svg">
<path d="M43 2C65.6076 2 84 20.3924 84 43C84 65.6076 65.6076 84 43 84C20.3924 84 2 65.6076 2 43C2 20.3924 20.3924 2 43 2Z" stroke="white" stroke-width="2.5" stroke-miterlimit="10"/>
<path d="M48.7667 58.9231C49.069 58.7914 49.3684 58.6447 49.6528 58.4861C50.488 58.028 51.2394 57.4533 51.907 56.7887C53.0656 55.6362 53.9667 54.2083 54.5265 52.5498C55.0085 51.1099 55.1342 49.661 54.8917 48.2361C54.7989 47.6763 54.5983 47.1255 54.3858 46.5358C54.0146 45.503 53.5924 44.3355 53.6942 42.9435C53.805 41.4377 54.4307 39.902 55.5982 38.2466C59.0798 33.3222 60.2234 28.6462 58.996 24.3505C58.8164 23.7218 58.5949 23.0932 58.3344 22.4855C56.8615 19.0369 54.1493 16.0164 50.5 13.7473C43.4619 9.3737 33.6576 11.3135 29.0952 17.9802C24.7814 24.2906 25.91 32.2565 26.9638 36.4415C27.5894 38.9201 28.4396 41.4258 29.4964 43.8954C30.8914 47.1644 32.6637 50.4064 34.7533 53.5407C35.9986 55.4087 37.3368 56.8456 38.8426 57.9412C40.0162 58.7914 41.4322 59.3273 42.92 59.5727C43.9109 59.7374 44.9258 59.7673 45.9346 59.6506C46.9076 59.5338 47.8656 59.3033 48.7667 58.9201L48.7667 58.9231ZM35.6304 16.6301C35.6304 16.0942 36.0615 15.6632 36.5944 15.6632C37.1273 15.6632 37.5613 16.0972 37.5613 16.6301C37.5613 17.1629 37.1303 17.594 36.5944 17.594C36.0585 17.594 35.6304 17.1629 35.6304 16.6301ZM32.7625 19.3273C32.7625 18.7944 33.1936 18.3604 33.7265 18.3604C34.2593 18.3604 34.6934 18.7914 34.6934 19.3273C34.6934 19.8631 34.2593 20.2912 33.7265 20.2912C33.1936 20.2912 32.7625 19.8601 32.7625 19.3273ZM30.143 22.0275C30.143 21.4946 30.5771 21.0636 31.11 21.0636C31.6429 21.0636 32.0739 21.4946 32.0739 22.0275C32.0739 22.5603 31.6429 22.9944 31.11 22.9944C30.5771 22.9944 30.143 22.5603 30.143 22.0275ZM35.6304 22.0275C35.6304 21.4946 36.0615 21.0636 36.5944 21.0636C37.1273 21.0636 37.5613 21.4946 37.5613 22.0275C37.5613 22.5603 37.1303 22.9944 36.5944 22.9944C36.0585 22.9944 35.6304 22.5603 35.6304 22.0275ZM32.7625 24.7277C32.7625 24.1948 33.1936 23.7608 33.7265 23.7608C34.2593 23.7608 34.6934 24.1948 34.6934 24.7277C34.6934 25.2605 34.2593 25.6916 33.7265 25.6916C33.1936 25.6916 32.7625 25.2605 32.7625 24.7277ZM37.5613 27.4249C37.5613 27.9577 37.1303 28.3918 36.5944 28.3918C36.0585 28.3918 35.6304 27.9577 35.6304 27.4249C35.6304 26.892 36.0615 26.4609 36.5944 26.4609C37.1273 26.4609 37.5613 26.892 37.5613 27.4249ZM30.143 27.6105C30.143 27.0776 30.5771 26.6465 31.11 26.6465C31.6429 26.6465 32.0739 27.0776 32.0739 27.6105C32.0739 28.1433 31.6429 28.5774 31.11 28.5774C30.5771 28.5774 30.143 28.1463 30.143 27.6105ZM32.7625 30.1221C32.7625 29.5892 33.1936 29.1551 33.7265 29.1551C34.2593 29.1551 34.6934 29.5892 34.6934 30.1221C34.6934 30.6549 34.2593 31.086 33.7265 31.086C33.1936 31.086 32.7625 30.6549 32.7625 30.1221ZM37.5613 32.8223C37.5613 33.3551 37.1303 33.7892 36.5944 33.7892C36.0585 33.7892 35.6304 33.3581 35.6304 32.8223C35.6304 32.2864 36.0615 31.8583 36.5944 31.8583C37.1273 31.8583 37.5613 32.2894 37.5613 32.8223ZM30.143 32.8522C30.143 32.3193 30.5771 31.8853 31.11 31.8853C31.6429 31.8853 32.0739 32.3193 32.0739 32.8522C32.0739 33.3851 31.6429 33.8161 31.11 33.8161C30.5771 33.8161 30.143 33.3851 30.143 32.8522ZM32.7625 35.5225C32.7625 34.9896 33.1936 34.5555 33.7265 34.5555C34.2593 34.5555 34.6934 34.9896 34.6934 35.5225C34.6934 36.0553 34.2593 36.4894 33.7265 36.4894C33.1936 36.4894 32.7625 36.0553 32.7625 35.5225ZM30.143 38.046C30.143 37.5132 30.5771 37.0821 31.11 37.0821C31.6429 37.0821 32.0739 37.5132 32.0739 38.046C32.0739 38.5789 31.6429 39.0129 31.11 39.0129C30.5771 39.0129 30.143 38.5819 30.143 38.046ZM35.6304 38.2226C35.6304 37.6868 36.0615 37.2557 36.5944 37.2557C37.1273 37.2557 37.5613 37.6868 37.5613 38.2226C37.5613 38.7585 37.1303 39.1866 36.5944 39.1866C36.0585 39.1866 35.6304 38.7555 35.6304 38.2226ZM33.014 40.9198C33.014 40.39 33.445 39.9559 33.9779 39.9559C34.5108 39.9559 34.9449 40.39 34.9449 40.9198C34.9449 41.4497 34.5138 41.8868 33.9779 41.8868C33.4421 41.8868 33.014 41.4527 33.014 40.9198ZM35.6304 43.617C35.6304 43.0842 36.0615 42.6531 36.5944 42.6531C37.1273 42.6531 37.5613 43.0842 37.5613 43.617C37.5613 44.1499 37.1303 44.584 36.5944 44.584C36.0585 44.584 35.6304 44.1529 35.6304 43.617ZM33.014 46.3172C33.014 45.7844 33.445 45.3533 33.9779 45.3533C34.5108 45.3533 34.9449 45.7844 34.9449 46.3172C34.9449 46.8501 34.5138 47.2842 33.9779 47.2842C33.4421 47.2842 33.014 46.8501 33.014 46.3172ZM35.6304 49.0174C35.6304 48.4846 36.0615 48.0505 36.5944 48.0505C37.1273 48.0505 37.5613 48.4846 37.5613 49.0174C37.5613 49.5503 37.1303 49.9814 36.5944 49.9814C36.0585 49.9814 35.6304 49.5503 35.6304 49.0174Z" fill="white"/>
<path d="M51.7908 76.9297C52.5961 76.5825 53.2128 75.8909 53.4733 75.0228C53.593 74.6396 53.8774 74.3223 54.2456 74.1667C54.6169 74.005 55.039 74.02 55.4012 74.2026C56.2065 74.6097 57.1315 74.6426 57.9398 74.2984C59.4726 73.6458 60.1821 71.8676 59.5295 70.3349C58.8798 68.8202 57.1345 68.1077 55.6108 68.7274C55.5838 68.7393 55.5569 68.7483 55.5329 68.7603C54.8384 69.0596 54.0331 68.7333 53.7367 68.0418L50.7311 61.001C50.4377 61.1536 50.1443 61.3063 49.839 61.438C48.9468 61.8212 48.0038 62.0757 47.0429 62.2433L50.1713 69.5626C50.4676 70.2601 50.1443 71.0653 49.4498 71.3587C49.4288 71.3707 49.3989 71.3797 49.3719 71.3916C47.8751 72.0592 47.1836 73.8164 47.8272 75.3341C48.4828 76.8669 50.2611 77.5793 51.7908 76.9267L51.7908 76.9297Z" fill="white"/>
</svg>
