<?xml version="1.0" encoding="UTF-8"?>
<svg id="_レイヤー_2" data-name="レイヤー 2" xmlns="http://www.w3.org/2000/svg" viewBox="0 0 72 69.4">
  <defs>
    <style>
      .cls-1 {
        fill: #dc001b;
        stroke-width: 0px;
      }
    </style>
  </defs>
  <g id="_レイヤー_1-2" data-name="レイヤー 1">
    <path class="cls-1" d="M38.76,3.04h-11.28c-1.88,0-1.88,2.85,0,2.85h11.28c1.88,0,1.88-2.85,0-2.85Z"/>
    <path class="cls-1" d="M17.48,16.53h-3c-.47,0-.96.2-1.29.52-.33.33-.55.81-.53,1.26.02.45.18.94.53,1.26.36.32.8.52,1.29.52h3c.47,0,.96-.2,1.29-.52.33-.33.55-.81.53-1.26-.02-.45-.18-.94-.53-1.26-.36-.32-.8-.52-1.29-.52Z"/>
    <path class="cls-1" d="M28.71,16.53h-3c-.47,0-.96.2-1.29.52-.33.33-.55.81-.53,1.26.02.45.18.94.53,1.26.36.32.8.52,1.29.52h3c.47,0,.96-.2,1.29-.52.33-.33.55-.81.53-1.26-.02-.45-.18-.94-.53-1.26-.36-.32-.8-.52-1.29-.52Z"/>
    <path class="cls-1" d="M39.95,16.53h-3c-.47,0-.96.2-1.29.52-.33.33-.55.81-.53,1.26.02.45.18.94.53,1.26.36.32.8.52,1.29.52h3c.47,0,.96-.2,1.29-.52.33-.33.55-.81.53-1.26-.02-.45-.18-.94-.53-1.26-.36-.32-.8-.52-1.29-.52Z"/>
    <path class="cls-1" d="M51.18,16.53h-3c-.47,0-.96.2-1.29.52-.33.33-.55.81-.53,1.26.02.45.18.94.53,1.26.36.32.8.52,1.29.52h3c.47,0,.96-.2,1.29-.52.33-.33.55-.81.53-1.26-.02-.45-.18-.94-.53-1.26-.36-.32-.8-.52-1.29-.52Z"/>
    <path class="cls-1" d="M17.48,27.11h-3c-.47,0-.96.2-1.29.52-.33.33-.55.81-.53,1.26.02.45.18.94.53,1.26.36.32.8.52,1.29.52h3c.47,0,.96-.2,1.29-.52.33-.33.55-.81.53-1.26s-.18-.94-.53-1.26c-.36-.32-.8-.52-1.29-.52Z"/>
    <path class="cls-1" d="M28.71,27.11h-3c-.47,0-.96.2-1.29.52-.33.33-.55.81-.53,1.26s.18.94.53,1.26c.36.32.8.52,1.29.52h3c.47,0,.96-.2,1.29-.52s.55-.81.53-1.26c-.02-.45-.18-.94-.53-1.26-.36-.32-.8-.52-1.29-.52Z"/>
    <path class="cls-1" d="M39.95,27.11h-3c-.47,0-.96.2-1.29.52-.33.33-.55.81-.53,1.26s.18.94.53,1.26c.36.32.8.52,1.29.52h3c.47,0,.96-.2,1.29-.52.33-.33.55-.81.53-1.26s-.18-.94-.53-1.26c-.36-.32-.8-.52-1.29-.52Z"/>
    <path class="cls-1" d="M51.18,27.11h-3c-.47,0-.96.2-1.29.52-.33.33-.55.81-.53,1.26s.18.94.53,1.26c.36.32.8.52,1.29.52h3c.47,0,.96-.2,1.29-.52.33-.33.55-.81.53-1.26s-.18-.94-.53-1.26c-.36-.32-.8-.52-1.29-.52Z"/>
    <path class="cls-1" d="M17.48,37.69h-3c-.47,0-.96.2-1.29.52-.33.33-.55.81-.53,1.26.02.45.18.94.53,1.26.36.32.8.52,1.29.52h3c.47,0,.96-.2,1.29-.52.33-.33.55-.81.53-1.26s-.18-.94-.53-1.26c-.36-.32-.8-.52-1.29-.52Z"/>
    <path class="cls-1" d="M28.71,37.69h-3c-.47,0-.96.2-1.29.52-.33.33-.55.81-.53,1.26s.18.94.53,1.26c.36.32.8.52,1.29.52h3c.47,0,.96-.2,1.29-.52.33-.33.55-.81.53-1.26-.02-.45-.18-.94-.53-1.26-.36-.32-.8-.52-1.29-.52Z"/>
    <path class="cls-1" d="M51.89,5.88h6.8c.93,0,1.88-.1,2.66.5.98.75.95,1.82.95,2.92,0,6.2,0,12.4,0,18.6v5.47c1.11.04,2.16.45,2.91,1.3v-2.21c0-6.8,0-13.61,0-20.41,0-1.43.13-2.94-.05-4.36-.2-1.6-1.1-3.02-2.51-3.88-1.14-.7-2.39-.78-3.68-.78h-7.08c-1.88,0-1.88,2.85,0,2.85Z"/>
    <path class="cls-1" d="M31.41,49.89c-6.07,0-12.14,0-18.2,0-2.54,0-5.08.02-7.62,0-1.04,0-2-.46-2.45-1.43-.38-.85-.2-1.98-.2-2.89,0-5.06,0-10.12,0-15.17,0-5.81,0-11.62,0-17.43v-3.78c0-1.06,0-2.08.95-2.79.84-.64,1.88-.51,2.88-.51h7.68c1.88,0,1.88-2.85,0-2.85H6.29c-1.41,0-2.74.12-3.94.95C.98,4.94.18,6.39.05,8.02c-.1,1.31-.01,2.66-.01,3.98v13.5c0,5.79,0,11.57,0,17.37v3.3c0,1.31-.01,2.57.61,3.77.7,1.34,2.06,2.38,3.57,2.7,1.31.28,2.74.13,4.07.13,7.71,0,15.41,0,23.12-.01-.18-.92-.17-1.87,0-2.85Z"/>
    <path class="cls-1" d="M44.49,1.43v5.67c0,.75.67,1.46,1.46,1.43.79-.04,1.46-.62,1.46-1.43V1.43c0-.75-.67-1.46-1.46-1.43-.79.04-1.46.62-1.46,1.43Z"/>
    <path class="cls-1" d="M18.7,1.43v5.67c0,.75.67,1.46,1.46,1.43.79-.04,1.46-.62,1.46-1.43V1.43C21.62.68,20.95-.03,20.16,0c-.79.04-1.46.62-1.46,1.43Z"/>
    <path class="cls-1" d="M51.07,28.22c-4.55.02-9.07,1.32-12.71,4.03-3.45,2.55-5.99,6.1-7.28,10.14-2.54,7.95-.09,17.51,6.73,22.7,6.81,5.19,16.94,5.69,24.34,1.56,7.61-4.24,10.85-13.14,9.59-21.37-1.26-8.22-8.32-15.45-17.03-16.76-1.21-.18-2.42-.29-3.64-.29-1.88-.01-1.88,2.84,0,2.85,3.98.02,7.87,1.15,11.07,3.51,2.91,2.14,5.07,5.23,6.14,8.63,2.15,6.84.22,15.04-5.52,19.6-5.74,4.56-14.59,4.89-20.89,1.5-6.56-3.53-9.71-11.1-8.66-18.26.53-3.64,2.2-7.1,4.83-9.74s6.17-4.39,9.95-5c1.02-.17,2.05-.22,3.08-.23,1.88-.01,1.88-2.86,0-2.85h.01Z"/>
    <path class="cls-1" d="M51.08,50.21h6.66c.76,0,1.49-.65,1.46-1.43s-.64-1.43-1.46-1.43h-6.66c-.76,0-1.49.65-1.46,1.43.04.77.64,1.43,1.46,1.43Z"/>
    <path class="cls-1" d="M49.62,38.91v9.87c0,.77.67,1.43,1.46,1.43s1.46-.65,1.46-1.43v-9.87c0-.77-.67-1.43-1.46-1.43s-1.46.65-1.46,1.43Z"/>
  </g>
</svg>