<svg width="53" height="12" viewBox="0 0 53 12" fill="none" xmlns="http://www.w3.org/2000/svg">
<path d="M11.2463 8.25591H7.48854C7.00162 8.28467 7.22744 8.96784 7.09689 9.29504C6.78639 10.9059 5.23036 12.1104 3.62141 11.981C1.08096 11.83 -0.337462 8.84918 1.0492 6.70619C1.88896 7.09812 2.90867 7.06575 3.66728 6.51922C2.84163 6.24236 2.09008 6.02662 1.41968 5.58436C1.18328 5.42615 0.989218 5.20682 0.865724 4.95153C-0.697359 1.74782 3.07803 -1.57454 5.98897 0.812961C6.5641 1.30916 6.96633 2.00311 7.10747 2.75819C7.22391 3.07821 7.00867 3.71104 7.48854 3.7434C8.5894 3.7434 45.5141 3.7434 45.5141 3.7434C45.9905 3.71104 45.7823 3.09259 45.8917 2.77258C46.1069 1.54647 47.0349 0.507333 48.2028 0.154961C51.0149 -0.722372 53.506 2.40582 52.0911 5.01984C51.2125 4.08139 49.7129 3.90879 48.6756 4.63152C49.6847 4.95872 50.7291 5.27873 51.4948 6.01943C51.6889 6.2064 51.8194 6.44371 51.9323 6.68821C51.9535 6.73496 51.9782 6.7853 52.0064 6.83204C52.3275 7.37138 52.5075 8.00781 52.4898 8.68738C52.4757 10.9958 49.9882 12.6606 47.9064 11.7437C46.6644 11.2403 45.8141 9.95664 45.8247 8.58311C45.8247 8.40333 45.6835 8.2595 45.5071 8.2595L11.2463 8.2595V8.25591Z" fill="#DC001B"/>
</svg>
