<svg width="41" height="40" viewBox="0 0 41 40" fill="none" xmlns="http://www.w3.org/2000/svg">
<path d="M8.23541 2.54726C6.89769 2.54726 4.11163 2.54726 3.09192 2.54726C1.85444 2.54726 0.855469 3.52844 0.855469 4.73969C0.855469 11.2087 0.862382 22.3468 0.865839 27.043C0.865839 28.2542 1.86827 29.232 3.10575 29.232C11.3499 29.232 25.9646 29.2219 34.0911 29.2185C35.3286 29.2185 36.3276 28.2373 36.3276 27.0261C36.3276 20.1104 36.3207 10.9076 36.3172 4.72616C36.3172 3.51491 35.3148 2.53711 34.0773 2.53711C33.3722 2.53711 30.5239 2.53711 29.5595 2.53711" fill="black"/>
<path d="M22.0751 1.72852C19.9354 1.72852 17.7923 1.72852 15.6526 1.72852C14.5845 1.72852 14.5845 3.35254 15.6526 3.35254C17.7923 3.35254 19.9354 3.35254 22.0751 3.35254C23.1432 3.35254 23.1432 1.72852 22.0751 1.72852Z" fill="white"/>
<path d="M9.95273 9.40967C9.38238 9.40967 8.81203 9.40967 8.24168 9.40967C7.97552 9.40967 7.69553 9.52132 7.50887 9.70741C7.32221 9.89349 7.19432 10.1709 7.20469 10.4247C7.21506 10.6784 7.30493 10.9593 7.50887 11.142C7.71282 11.3247 7.9617 11.4397 8.24168 11.4397C8.81203 11.4397 9.38238 11.4397 9.95273 11.4397C10.2189 11.4397 10.4989 11.328 10.6855 11.142C10.8722 10.9559 11.0001 10.6784 10.9897 10.4247C10.9793 10.1709 10.8895 9.89011 10.6855 9.70741C10.4816 9.5247 10.2327 9.40967 9.95273 9.40967Z" fill="#DC001B"/>
<path d="M16.3502 9.40967C15.7798 9.40967 15.2095 9.40967 14.6391 9.40967C14.373 9.40967 14.093 9.52132 13.9063 9.70741C13.7197 9.89349 13.5918 10.1709 13.6022 10.4247C13.6125 10.6784 13.7024 10.9593 13.9063 11.142C14.1103 11.3247 14.3592 11.4397 14.6391 11.4397C15.2095 11.4397 15.7798 11.4397 16.3502 11.4397C16.6163 11.4397 16.8963 11.328 17.083 11.142C17.2697 10.9559 17.3976 10.6784 17.3872 10.4247C17.3768 10.1709 17.2869 9.89011 17.083 9.70741C16.8791 9.5247 16.6302 9.40967 16.3502 9.40967Z" fill="white"/>
<path d="M22.7486 9.40967C22.1783 9.40967 21.6079 9.40967 21.0376 9.40967C20.7714 9.40967 20.4914 9.52132 20.3048 9.70741C20.1181 9.89349 19.9902 10.1709 20.0006 10.4247C20.011 10.6784 20.1008 10.9593 20.3048 11.142C20.5087 11.3247 20.7576 11.4397 21.0376 11.4397C21.6079 11.4397 22.1783 11.4397 22.7486 11.4397C23.0148 11.4397 23.2948 11.328 23.4814 11.142C23.6681 10.9559 23.796 10.6784 23.7856 10.4247C23.7752 10.1709 23.6854 9.89011 23.4814 9.70741C23.2775 9.5247 23.0286 9.40967 22.7486 9.40967Z" fill="white"/>
<path d="M29.1471 9.40967C28.5767 9.40967 28.0064 9.40967 27.436 9.40967C27.1699 9.40967 26.8899 9.52132 26.7032 9.70741C26.5166 9.89349 26.3887 10.1709 26.399 10.4247C26.4094 10.6784 26.4993 10.9593 26.7032 11.142C26.9072 11.3247 27.156 11.4397 27.436 11.4397C28.0064 11.4397 28.5767 11.4397 29.1471 11.4397C29.4132 11.4397 29.6932 11.328 29.8799 11.142C30.0665 10.9559 30.1944 10.6784 30.1841 10.4247C30.1737 10.1709 30.0838 9.89011 29.8799 9.70741C29.6759 9.5247 29.427 9.40967 29.1471 9.40967Z" fill="white"/>
<path d="M9.95273 15.4355C9.38238 15.4355 8.81203 15.4355 8.24168 15.4355C7.97552 15.4355 7.69553 15.5472 7.50887 15.7333C7.32221 15.9194 7.19432 16.1968 7.20469 16.4506C7.21506 16.7043 7.30493 16.9851 7.50887 17.1678C7.71282 17.3505 7.9617 17.4656 8.24168 17.4656C8.81203 17.4656 9.38238 17.4656 9.95273 17.4656C10.2189 17.4656 10.4989 17.3539 10.6855 17.1678C10.8722 16.9818 11.0001 16.7043 10.9897 16.4506C10.9793 16.1968 10.8895 15.916 10.6855 15.7333C10.4816 15.5506 10.2327 15.4355 9.95273 15.4355Z" fill="#DC001B"/>
<path d="M16.3502 15.4355C15.7798 15.4355 15.2095 15.4355 14.6391 15.4355C14.373 15.4355 14.093 15.5472 13.9063 15.7333C13.7197 15.9194 13.5918 16.1968 13.6022 16.4506C13.6125 16.7043 13.7024 16.9851 13.9063 17.1678C14.1103 17.3505 14.3592 17.4656 14.6391 17.4656C15.2095 17.4656 15.7798 17.4656 16.3502 17.4656C16.6163 17.4656 16.8963 17.3539 17.083 17.1678C17.2697 16.9818 17.3976 16.7043 17.3872 16.4506C17.3768 16.1968 17.2869 15.916 17.083 15.7333C16.8791 15.5506 16.6302 15.4355 16.3502 15.4355Z" fill="white"/>
<path d="M22.7486 15.4355C22.1783 15.4355 21.6079 15.4355 21.0376 15.4355C20.7714 15.4355 20.4914 15.5472 20.3048 15.7333C20.1181 15.9194 19.9902 16.1968 20.0006 16.4506C20.011 16.7043 20.1008 16.9851 20.3048 17.1678C20.5087 17.3505 20.7576 17.4656 21.0376 17.4656C21.6079 17.4656 22.1783 17.4656 22.7486 17.4656C23.0148 17.4656 23.2948 17.3539 23.4814 17.1678C23.6681 16.9818 23.796 16.7043 23.7856 16.4506C23.7752 16.1968 23.6854 15.916 23.4814 15.7333C23.2775 15.5506 23.0286 15.4355 22.7486 15.4355Z" fill="white"/>
<path d="M29.1471 15.4355C28.5767 15.4355 28.0064 15.4355 27.436 15.4355C27.1699 15.4355 26.8899 15.5472 26.7032 15.7333C26.5166 15.9194 26.3887 16.1968 26.399 16.4506C26.4094 16.7043 26.4993 16.9851 26.7032 17.1678C26.9072 17.3505 27.156 17.4656 27.436 17.4656C28.0064 17.4656 28.5767 17.4656 29.1471 17.4656C29.4132 17.4656 29.6932 17.3539 29.8799 17.1678C30.0665 16.9818 30.1944 16.7043 30.1841 16.4506C30.1737 16.1968 30.0838 15.916 29.8799 15.7333C29.6759 15.5506 29.427 15.4355 29.1471 15.4355Z" fill="white"/>
<path d="M9.95273 21.4644C9.38238 21.4644 8.81203 21.4644 8.24168 21.4644C7.97552 21.4644 7.69553 21.576 7.50887 21.7621C7.32221 21.9482 7.19432 22.2256 7.20469 22.4794C7.21506 22.7331 7.30493 23.0139 7.50887 23.1966C7.71282 23.3794 7.9617 23.4944 8.24168 23.4944C8.81203 23.4944 9.38238 23.4944 9.95273 23.4944C10.2189 23.4944 10.4989 23.3827 10.6855 23.1966C10.8722 23.0106 11.0001 22.7331 10.9897 22.4794C10.9793 22.2256 10.8895 21.9448 10.6855 21.7621C10.4816 21.5794 10.2327 21.4644 9.95273 21.4644Z" fill="#DC001B"/>
<path d="M16.3502 21.4644C15.7798 21.4644 15.2095 21.4644 14.6391 21.4644C14.373 21.4644 14.093 21.576 13.9063 21.7621C13.7197 21.9482 13.5918 22.2256 13.6022 22.4794C13.6125 22.7331 13.7024 23.0139 13.9063 23.1966C14.1103 23.3794 14.3592 23.4944 14.6391 23.4944C15.2095 23.4944 15.7798 23.4944 16.3502 23.4944C16.6163 23.4944 16.8963 23.3827 17.083 23.1966C17.2697 23.0106 17.3976 22.7331 17.3872 22.4794C17.3768 22.2256 17.2869 21.9448 17.083 21.7621C16.8791 21.5794 16.6302 21.4644 16.3502 21.4644Z" fill="white"/>
<path d="M22.7486 21.4644C22.1783 21.4644 21.6079 21.4644 21.0376 21.4644C20.7714 21.4644 20.4914 21.576 20.3048 21.7621C20.1181 21.9482 19.9902 22.2256 20.0006 22.4794C20.011 22.7331 20.1008 23.0139 20.3048 23.1966C20.5087 23.3794 20.7576 23.4944 21.0376 23.4944C21.6079 23.4944 22.1783 23.4944 22.7486 23.4944C23.0148 23.4944 23.2948 23.3827 23.4814 23.1966C23.6681 23.0106 23.796 22.7331 23.7856 22.4794C23.7752 22.2256 23.6854 21.9448 23.4814 21.7621C23.2775 21.5794 23.0286 21.4644 22.7486 21.4644Z" fill="white"/>
<path d="M29.1471 21.4644C28.5767 21.4644 28.0064 21.4644 27.436 21.4644C27.1699 21.4644 26.8899 21.576 26.7032 21.7621C26.5166 21.9482 26.3887 22.2256 26.399 22.4794C26.4094 22.7331 26.4993 23.0139 26.7032 23.1966C26.9072 23.3794 27.156 23.4944 27.436 23.4944C28.0064 23.4944 28.5767 23.4944 29.1471 23.4944C29.4132 23.4944 29.6932 23.3827 29.8799 23.1966C30.0665 23.0106 30.1944 22.7331 30.1841 22.4794C30.1737 22.2256 30.0838 21.9448 29.8799 21.7621C29.6759 21.5794 29.427 21.4644 29.1471 21.4644Z" fill="white"/>
<path d="M8.23412 1.73574C6.68209 1.73574 5.13351 1.73574 3.58147 1.73574C2.77953 1.73574 2.01907 1.80679 1.33811 2.27708C0.560362 2.81504 0.104084 3.64058 0.0280381 4.56425C-0.0307249 5.31197 0.0211248 6.08 0.0211248 6.83111C0.0211248 7.63974 0.0211248 8.45176 0.0211248 9.26039C0.0211248 11.013 0.0211248 12.7656 0.0211248 14.5182C0.0211248 17.8136 0.0211248 21.109 0.0245815 24.4078C0.0245815 25.0337 0.0245815 25.6597 0.0245815 26.2856C0.0245815 27.0299 0.0176682 27.7472 0.373703 28.4306C0.774674 29.1953 1.54896 29.784 2.40621 29.9667C3.14939 30.1257 3.96516 30.0411 4.72217 30.0411C11.8843 30.0411 19.05 30.0344 26.2122 30.031C27.9025 30.031 29.5893 30.031 31.2796 30.031C32.0159 30.031 32.7521 30.031 33.4884 30.031C34.3456 30.031 35.151 29.9769 35.87 29.4592C36.6339 28.9077 37.0868 28.072 37.1386 27.145C37.1905 26.2179 37.1386 25.3145 37.1386 24.4044C37.1386 22.4319 37.1386 20.4628 37.1386 18.4903C37.1386 14.6163 37.1386 10.7389 37.1352 6.86495C37.1352 6.04955 37.2077 5.19356 37.1075 4.38154C36.9934 3.46803 36.4784 2.66278 35.6799 2.17219C35.0335 1.77295 34.318 1.72559 33.5817 1.72559C32.8455 1.72559 32.1714 1.72559 31.4628 1.72559C30.8233 1.72559 30.1873 1.72559 29.5478 1.72559C28.4797 1.72559 28.4797 3.34961 29.5478 3.34961C30.8371 3.34961 32.1265 3.34961 33.4193 3.34961C33.9481 3.34961 34.4874 3.29548 34.9333 3.63382C35.4933 4.06012 35.476 4.66913 35.476 5.29844C35.476 8.82731 35.476 12.3596 35.4794 15.8884C35.4794 17.8034 35.4794 19.7184 35.4794 21.6334C35.4794 23.43 35.5278 25.23 35.4794 27.0265C35.4656 27.6119 35.1096 28.1329 34.5358 28.3291C33.962 28.5254 33.2153 28.407 32.6173 28.407C31.1206 28.407 29.6273 28.407 28.1306 28.407C21.2622 28.407 14.3904 28.4137 7.52205 28.4171C6.07717 28.4171 4.62884 28.4273 3.18396 28.4171C2.59287 28.4137 2.04326 28.1566 1.79093 27.6017C1.57316 27.1179 1.67686 26.4717 1.67686 25.954C1.67686 23.0747 1.67686 20.1921 1.6734 17.3128C1.6734 14.0039 1.6734 10.6983 1.66995 7.38937C1.66995 6.6721 1.66995 5.95482 1.66995 5.23754C1.66995 4.63191 1.66995 4.05335 2.20918 3.64735C2.6862 3.28533 3.28074 3.35976 3.84764 3.35976C4.61155 3.35976 5.37547 3.35976 6.13939 3.35976C6.83418 3.35976 7.52897 3.35976 8.22375 3.35976C9.29186 3.35976 9.29186 1.73574 8.22375 1.73574H8.23412Z" fill="white"/>
<path d="M25.335 0.812743C25.335 1.88866 25.335 2.96796 25.335 4.04388C25.335 4.47018 25.7152 4.87619 26.1646 4.85589C26.6139 4.83559 26.9942 4.50063 26.9942 4.04388C26.9942 2.96796 26.9942 1.88866 26.9942 0.812743C26.9942 0.386437 26.6139 -0.0195697 26.1646 0.000730587C25.7152 0.0210309 25.335 0.355986 25.335 0.812743Z" fill="white"/>
<path d="M10.6504 0.812743C10.6504 1.88866 10.6504 2.96796 10.6504 4.04388C10.6504 4.47018 11.0306 4.87619 11.48 4.85589C11.9294 4.83559 12.3096 4.50063 12.3096 4.04388C12.3096 2.96796 12.3096 1.88866 12.3096 0.812743C12.3096 0.386437 11.9294 -0.0195697 11.48 0.000730587C11.0306 0.0210309 10.6504 0.355986 10.6504 0.812743Z" fill="white"/>
<path d="M29.0798 16.8813C22.519 16.8813 17.9805 21.8549 17.9805 27.6777C17.9805 34.1907 22.6124 38.6771 29.0798 38.6771C35.5472 38.6771 40.1791 34.1501 40.1791 27.6777C40.1791 21.8177 35.6197 16.8813 29.0798 16.8813Z" fill="black"/>
<path d="M29.0795 16.0684C26.4905 16.0819 23.9153 16.8229 21.8413 18.3623C19.8779 19.8172 18.433 21.8336 17.6968 24.1344C16.2519 28.6613 17.6484 34.1052 21.5267 37.0623C25.4051 40.0193 31.1708 40.3035 35.3879 37.9487C39.7191 35.533 41.5649 30.4647 40.8494 25.7821C40.1339 21.0995 36.1138 16.9853 31.15 16.2375C30.4622 16.1326 29.7743 16.0751 29.0761 16.0717C28.0079 16.065 28.0079 17.689 29.0761 17.6958C31.3402 17.7059 33.5593 18.3521 35.381 19.692C37.0402 20.91 38.2673 22.6727 38.8757 24.608C40.0993 28.5023 39.0001 33.1748 35.7336 35.7698C32.467 38.3649 27.4238 38.5543 23.8358 36.6258C20.0991 34.6161 18.3086 30.3056 18.9031 26.2253C19.2039 24.1513 20.1579 22.1821 21.6512 20.6765C23.1444 19.1709 25.1666 18.1762 27.3166 17.8277C27.8973 17.733 28.485 17.7025 29.0726 17.6992C30.1407 17.6924 30.1407 16.0684 29.0726 16.0751L29.0795 16.0684Z" fill="white"/>
<path d="M29.0862 28.5908C30.3513 28.5908 31.613 28.5908 32.8781 28.5908C33.3137 28.5908 33.7285 28.2186 33.7077 27.7788C33.687 27.339 33.3448 26.9668 32.8781 26.9668C31.613 26.9668 30.3513 26.9668 29.0862 26.9668C28.6507 26.9668 28.2359 27.339 28.2566 27.7788C28.2773 28.2186 28.6196 28.5908 29.0862 28.5908Z" fill="white"/>
<path d="M28.2578 22.1553C28.2578 24.0297 28.2578 25.9007 28.2578 27.7751C28.2578 28.2149 28.638 28.5871 29.0874 28.5871C29.5368 28.5871 29.917 28.2149 29.917 27.7751C29.917 25.9007 29.917 24.0297 29.917 22.1553C29.917 21.7154 29.5368 21.3433 29.0874 21.3433C28.638 21.3433 28.2578 21.7154 28.2578 22.1553Z" fill="white"/>
</svg>
