<svg width="80" height="80" viewBox="0 0 80 80" fill="none" xmlns="http://www.w3.org/2000/svg">
<path d="M68.75 47.5C68.75 47.8315 68.6183 48.1495 68.3839 48.3839C68.1495 48.6183 67.8315 48.75 67.5 48.75H58.75V56.25H65C65.3315 56.25 65.6495 56.3817 65.8839 56.6161C66.1183 56.8505 66.25 57.1685 66.25 57.5C66.25 57.8315 66.1183 58.1495 65.8839 58.3839C65.6495 58.6183 65.3315 58.75 65 58.75H58.75V65C58.75 65.3315 58.6183 65.6495 58.3839 65.8839C58.1495 66.1183 57.8315 66.25 57.5 66.25C57.1685 66.25 56.8505 66.1183 56.6161 65.8839C56.3817 65.6495 56.25 65.3315 56.25 65V47.5C56.25 47.1685 56.3817 46.8505 56.6161 46.6161C56.8505 46.3817 57.1685 46.25 57.5 46.25H67.5C67.8315 46.25 68.1495 46.3817 68.3839 46.6161C68.6183 46.8505 68.75 47.1685 68.75 47.5ZM27.5 53.75C27.5 55.7391 26.7098 57.6468 25.3033 59.0533C23.8968 60.4598 21.9891 61.25 20 61.25H16.25V65C16.25 65.3315 16.1183 65.6495 15.8839 65.8839C15.6495 66.1183 15.3315 66.25 15 66.25C14.6685 66.25 14.3505 66.1183 14.1161 65.8839C13.8817 65.6495 13.75 65.3315 13.75 65V47.5C13.75 47.1685 13.8817 46.8505 14.1161 46.6161C14.3505 46.3817 14.6685 46.25 15 46.25H20C21.9891 46.25 23.8968 47.0402 25.3033 48.4467C26.7098 49.8532 27.5 51.7609 27.5 53.75ZM25 53.75C25 52.4239 24.4732 51.1521 23.5355 50.2145C22.5979 49.2768 21.3261 48.75 20 48.75H16.25V58.75H20C21.3261 58.75 22.5979 58.2232 23.5355 57.2855C24.4732 56.3479 25 55.0761 25 53.75ZM50 56.25C50 58.9022 48.9464 61.4457 47.0711 63.3211C45.1957 65.1964 42.6522 66.25 40 66.25H35C34.6685 66.25 34.3505 66.1183 34.1161 65.8839C33.8817 65.6495 33.75 65.3315 33.75 65V47.5C33.75 47.1685 33.8817 46.8505 34.1161 46.6161C34.3505 46.3817 34.6685 46.25 35 46.25H40C42.6522 46.25 45.1957 47.3036 47.0711 49.1789C48.9464 51.0543 50 53.5978 50 56.25ZM47.5 56.25C47.5 54.2609 46.7098 52.3532 45.3033 50.9467C43.8968 49.5402 41.9891 48.75 40 48.75H36.25V63.75H40C41.9891 63.75 43.8968 62.9598 45.3033 61.5533C46.7098 60.1468 47.5 58.2391 47.5 56.25ZM13.75 35V12.5C13.75 11.5054 14.1451 10.5516 14.8483 9.84835C15.5516 9.14509 16.5054 8.75 17.5 8.75H47.5C47.6642 8.74987 47.8268 8.78209 47.9786 8.84483C48.1303 8.90756 48.2682 8.99958 48.3844 9.11563L65.8844 26.6156C66.0004 26.7318 66.0924 26.8697 66.1552 27.0214C66.2179 27.1732 66.2501 27.3358 66.25 27.5V35C66.25 35.3315 66.1183 35.6495 65.8839 35.8839C65.6495 36.1183 65.3315 36.25 65 36.25C64.6685 36.25 64.3505 36.1183 64.1161 35.8839C63.8817 35.6495 63.75 35.3315 63.75 35V28.75H47.5C47.1685 28.75 46.8505 28.6183 46.6161 28.3839C46.3817 28.1495 46.25 27.8315 46.25 27.5V11.25H17.5C17.1685 11.25 16.8505 11.3817 16.6161 11.6161C16.3817 11.8505 16.25 12.1685 16.25 12.5V35C16.25 35.3315 16.1183 35.6495 15.8839 35.8839C15.6495 36.1183 15.3315 36.25 15 36.25C14.6685 36.25 14.3505 36.1183 14.1161 35.8839C13.8817 35.6495 13.75 35.3315 13.75 35ZM48.75 26.25H61.9812L48.75 13.0156V26.25Z" fill="black"/>
</svg>
