<svg width="25" height="83" viewBox="0 0 25 83" fill="none" xmlns="http://www.w3.org/2000/svg">
<path d="M14.5011 81.6584C14.5119 82.404 15.1166 83 15.8568 83H19.135C19.5065 83 19.859 82.8503 20.1166 82.5809C20.3742 82.3115 20.507 81.9496 20.4908 81.5768L17.6085 19.5118H18.5602C22.1177 19.5118 24.9973 16.619 25 13.0487C25 9.47833 22.1177 6.5883 18.5602 6.58557H17.0092L16.7625 1.29807C16.7272 0.571475 16.1334 0 15.4094 0L14.7316 0C14.3682 0 14.0211 0.146951 13.7663 0.405475C13.5114 0.664 13.3704 1.01777 13.3758 1.37698L13.449 6.58285H11.5537L11.6269 1.37698C11.6323 1.01505 11.4913 0.661279 11.2364 0.405475C10.9816 0.14423 10.6345 0 10.2712 0L9.59328 0C8.86931 0 8.27277 0.571475 8.24023 1.29807L7.99349 6.58557H6.43981C2.88232 6.58557 0.0027115 9.47833 0 13.0487C0 16.619 2.88232 19.5091 6.43981 19.5118H7.39424L4.51192 81.5768C4.49565 81.9523 4.62852 82.3088 4.88611 82.5809C5.1437 82.853 5.49619 83 5.86767 83H9.14316C9.8834 83 10.4881 82.4013 10.4989 81.6584L11.372 19.5118H13.6334L14.5065 81.6584H14.5011ZM6.43438 16.7878C4.37635 16.785 2.70878 15.1114 2.70607 13.046C2.70878 10.9805 4.37635 9.30688 6.43438 9.30416H7.86063L7.51355 16.7878H6.43438ZM11.4046 16.7878L11.5103 9.30416H13.4843L13.59 16.7878H11.4046ZM17.4783 16.7878L17.1312 9.30416H18.5548C20.6128 9.30688 22.2804 10.9805 22.2831 13.046C22.2804 15.1114 20.6128 16.785 18.5548 16.7878H17.4756H17.4783Z" fill="white"/>
</svg>
