<svg width="35" height="87" viewBox="0 0 35 87" fill="none" xmlns="http://www.w3.org/2000/svg">
<g clip-path="url(#clip0_43_7773)">
<path d="M31.2803 0.000546297L2.82544 0.548733C2.06828 0.563711 1.32907 0.884236 0.802354 1.43242C0.278626 1.98061 -0.0146619 2.7295 0.000301771 3.49037L0.778412 43.9484C0.94002 52.4228 7.22775 59.3186 15.3261 60.5378L15.7211 81.1203L10.1457 81.2281C8.55353 81.2611 7.2876 82.5761 7.31753 84.1698C7.34746 85.7634 8.66426 87.0305 10.2534 87.0005L27.1773 86.674C28.7694 86.6441 30.0354 85.326 30.0054 83.7324C29.9755 82.1418 28.6587 80.8716 27.0696 80.9046L21.4881 81.0124L21.0931 60.4299C29.1405 58.9022 35.1589 51.7668 34.9973 43.2924L34.2192 2.83434C34.2042 2.07347 33.881 1.33657 33.3363 0.812343C32.7887 0.279133 32.0405 -0.0144315 31.2803 0.000546297ZM28.7874 20.2535L6.09949 20.6909L5.82117 6.26426L28.5091 5.82691L28.7874 20.2535Z" fill="white"/>
</g>
<defs>
<clipPath id="clip0_43_7773">
<rect width="35" height="87" fill="white"/>
</clipPath>
</defs>
</svg>
