<svg width="40" height="41" viewBox="0 0 40 41" fill="none" xmlns="http://www.w3.org/2000/svg">
<path d="M28.7623 1.21289H11.2377C5.58304 1.21289 1 5.79674 1 11.4514V28.9744C1 34.629 5.58385 39.2129 11.2385 39.2129H28.7615C34.4161 39.2129 39 34.629 39 28.9744V11.4514C39 5.79674 34.417 1.21289 28.7623 1.21289Z" stroke="#DC001B" stroke-width="2" stroke-miterlimit="10"/>
<path d="M20.0002 29.3847C25.066 29.3847 29.1727 25.278 29.1727 20.2121C29.1727 15.1463 25.066 11.0396 20.0002 11.0396C14.9343 11.0396 10.8276 15.1463 10.8276 20.2121C10.8276 25.278 14.9343 29.3847 20.0002 29.3847Z" stroke="#DC001B" stroke-width="2" stroke-miterlimit="10"/>
<path d="M31.1053 11.3471C32.1907 11.3471 33.0706 10.4672 33.0706 9.38183C33.0706 8.29641 32.1907 7.4165 31.1053 7.4165C30.0199 7.4165 29.14 8.29641 29.14 9.38183C29.14 10.4672 30.0199 11.3471 31.1053 11.3471Z" fill="#DC001B"/>
</svg>
