<svg width="21" height="87" viewBox="0 0 21 87" fill="none" xmlns="http://www.w3.org/2000/svg">
<path d="M17.7731 0.0024877C16.4308 0.0024877 15.3395 1.11698 15.3395 2.4877V17.1801C15.3395 17.9115 14.7524 18.4836 14.0045 18.4836C13.2566 18.4836 12.6695 17.9115 12.6695 17.1801V2.56731C12.6695 1.28117 11.7633 0.186578 10.5624 0.024877C9.86565 -0.067168 9.16163 0.149262 8.63544 0.619438C8.10681 1.0921 7.80231 1.77373 7.80231 2.4877V17.1801C7.80231 17.9115 7.21766 18.4836 6.46979 18.4836C5.72192 18.4836 5.13727 17.9115 5.13727 17.1801V2.56731C5.1397 1.27868 4.23349 0.186578 3.03252 0.024877C2.92776 0.00995082 2.82058 0.00497541 2.71583 0.00497541C2.1263 0.0024877 1.55383 0.221406 1.1056 0.619438C0.579409 1.0921 0.274902 1.77373 0.274902 2.4877V25.5836C0.274902 28.7554 1.68294 31.6934 4.13605 33.6437C6.39183 35.4373 7.68538 39.3032 7.68538 44.2513V85.4253C7.68538 86.2935 8.37722 87 9.2274 87H11.2323C12.0825 87 12.7743 86.2935 12.7743 85.4253V44.316C12.7743 39.3555 14.0873 35.4772 16.3748 33.6736C18.8522 31.7232 20.2749 28.7728 20.2749 25.5786L20.2018 2.48522C20.2018 1.11449 19.1105 0 17.7682 0L17.7731 0.0024877Z" fill="white"/>
</svg>
