<svg width="208" height="230" viewBox="0 0 208 230" fill="none" xmlns="http://www.w3.org/2000/svg">
<path d="M24.1103 201.823C23.9292 202.517 23.8186 202.577 23.2654 202.627H2.4241C1.82059 202.577 1.70995 202.517 1.53895 201.823L1.44843 201.471H0V208.854H1.43837L1.52889 208.502C1.70995 207.808 1.82059 207.757 2.37381 207.697H9.626V226.084C9.57571 226.687 9.51536 226.798 8.82132 226.969L8.46927 227.06V228.498H17.1598V227.06L16.8078 226.969C16.1238 226.788 16.0635 226.687 16.0031 226.104V207.697H23.2151C23.8186 207.747 23.9292 207.808 24.1002 208.502L24.1907 208.854H25.6291V201.471H24.1907L24.1002 201.823H24.1103Z" fill="white"/>
<path d="M54.9396 205.816C52.2338 203.301 48.9447 202.175 44.3077 202.175C39.6707 202.175 36.5023 203.332 33.7463 205.806C31.121 208.2 29.5519 211.831 29.5519 215.533C29.5519 219.234 31.0808 222.835 33.7362 225.259C36.3615 227.733 39.8317 228.941 44.3379 228.941C48.8441 228.941 52.2741 227.774 54.9295 225.269C57.5548 222.875 59.1239 219.315 59.1239 215.724C59.1239 211.781 57.6755 208.351 54.9396 205.806V205.816ZM44.348 223.77C39.4796 223.77 36.0799 220.391 36.0799 215.543C36.0799 210.694 39.4595 207.355 44.3077 207.355C49.1559 207.355 52.606 210.704 52.606 215.693C52.606 220.371 49.1258 223.77 44.3379 223.77H44.348Z" fill="white"/>
<path d="M89.7719 224.263L85.3763 217.996C89.6411 217.101 91.7937 214.587 91.7937 210.493C91.7937 207.747 90.6772 205.443 88.7359 204.196C86.9958 203.049 84.9136 202.627 81.0411 202.627H65.028V204.065L65.38 204.156C66.074 204.337 66.1243 204.448 66.1847 205.001V226.063C66.1344 226.667 66.074 226.777 65.38 226.948L65.028 227.039V228.477H73.7185V227.039L73.3665 226.948C72.6825 226.767 72.6221 226.667 72.5618 226.083V218.328H78.4862L83.3546 225.45C83.777 226.033 84.1593 226.606 84.1693 226.747C84.1492 226.777 84.0184 226.898 83.6463 226.938L83.2339 226.989V228.487H93.1918V226.969L92.7492 226.938C91.844 226.878 91.5824 226.777 89.782 224.263H89.7719ZM72.5618 207.686H80.4879C82.9723 207.686 83.5356 207.757 84.29 208.189C85.0042 208.592 85.4266 209.447 85.4266 210.463C85.4266 211.478 85.0042 212.374 84.3001 212.766C83.5457 213.158 82.9522 213.269 80.4879 213.269H72.5618V207.686Z" fill="white"/>
<path d="M126.627 224.967L117.393 206.318C116.991 205.554 116.81 204.93 116.81 204.669C116.81 204.568 117.031 204.307 117.554 204.156L117.896 204.055V202.627H108.129V204.045L108.461 204.146C109.095 204.347 109.175 204.649 109.175 204.89C109.175 205.091 109.105 205.474 108.773 206.137L99.6297 225.289C98.8854 226.747 98.6741 226.838 98.0002 226.938L97.5979 226.999V228.477H106.771V227.029L106.409 226.938C105.856 226.808 105.574 226.596 105.574 226.315C105.574 226.275 105.584 226.023 105.866 225.359L107.415 222.12H118.137L119.717 225.359C119.918 225.802 120.008 226.073 120.008 226.285C120.008 226.456 120.008 226.818 119.224 226.938L118.811 226.999V228.487H128.92V227.009L128.518 226.948C127.773 226.838 127.492 226.627 126.627 224.967ZM112.816 210.513L116.116 217.785H109.457L112.816 210.513Z" fill="white"/>
<path d="M158.643 224.424L149.349 213.249L157.426 206.741C158.231 206.057 159.065 205.383 159.729 204.85C159.84 204.739 159.951 204.659 160.061 204.578L160.172 204.498C160.464 204.307 160.614 204.226 161.087 204.166L161.5 204.116V202.627H150.345V204.106L150.747 204.166C151.24 204.246 151.411 204.377 151.431 204.397C151.431 204.437 151.33 204.639 150.526 205.262L141.403 212.696V205.041C141.453 204.437 141.513 204.327 142.207 204.156L142.559 204.065V202.627H133.869V204.065L134.221 204.156C134.915 204.337 134.965 204.448 135.026 205.001V226.063C134.975 226.667 134.915 226.777 134.221 226.948L133.869 227.039V228.477H142.559V227.039L142.207 226.948C141.513 226.767 141.463 226.657 141.403 226.104V219.646L144.591 217.031L151.662 225.721C152.135 226.325 152.397 226.657 152.397 226.747C152.397 226.747 152.316 226.868 151.853 226.948L151.461 227.019V228.487H162.123V226.999L161.711 226.948C160.735 226.818 160.675 226.818 158.613 224.424H158.643Z" fill="white"/>
<path d="M189.693 205.806C186.988 203.291 183.699 202.165 179.062 202.165C174.425 202.165 171.256 203.321 168.5 205.796C165.875 208.19 164.306 211.821 164.306 215.522C164.306 219.224 165.835 222.825 168.49 225.249C171.115 227.723 174.586 228.93 179.092 228.93C183.598 228.93 187.028 227.763 189.683 225.259C192.309 222.865 193.878 219.304 193.878 215.713C193.878 211.77 192.429 208.34 189.693 205.796V205.806ZM179.102 223.77C174.233 223.77 170.834 220.391 170.834 215.542C170.834 210.694 174.213 207.355 179.062 207.355C183.91 207.355 187.36 210.704 187.36 215.693C187.36 220.37 183.88 223.77 179.092 223.77H179.102Z" fill="white"/>
<path d="M200.826 223.911V222.526H208V229.7H206.616V223.911H200.826ZM208 220.6H200.826V221.985H208V220.6ZM200.285 222.526V220.6H198.9V229.7H200.285V227.774H204.147V226.389H200.285V222.526ZM204.689 225.837V228.316H200.826V229.7H206.074V224.453H200.826V225.837H204.689Z" fill="#DC001B"/>
<path d="M97.8793 164.858C97.9296 164.224 97.9296 163.57 98.0403 162.946C98.1107 162.514 98.4426 162.464 98.7544 162.775C100.786 164.787 102.064 167.201 102.486 170.038C102.858 172.532 102.466 174.976 101.802 177.37C101.088 179.945 100.042 182.4 98.8148 184.773C98.3722 185.628 97.8894 186.453 97.4166 187.288C97.0646 187.902 96.6321 187.922 96.3102 187.288C95.2641 185.266 94.218 183.245 93.2625 181.183C92.3773 179.251 91.7436 177.209 91.4016 175.097C91.1401 173.518 90.9591 171.949 91.2105 170.319C91.4318 168.921 91.7738 167.573 92.3874 166.316C93.0512 164.958 93.9364 163.741 95.0629 162.715C95.1635 162.625 95.4049 162.564 95.4955 162.625C95.6162 162.705 95.7167 162.906 95.7268 163.067C95.7771 163.952 95.7871 164.848 95.8374 165.733C95.9581 167.563 96.099 169.404 96.2297 171.235C96.3202 172.482 96.4208 173.719 96.5415 174.956C96.5617 175.117 96.7427 175.268 96.8433 175.419C96.9539 175.298 97.135 175.188 97.145 175.057C97.2557 174.202 97.3462 173.337 97.4267 172.472C97.5675 170.983 97.7284 169.505 97.8089 168.016C97.8693 166.96 97.819 165.904 97.819 164.848C97.8391 164.848 97.8592 164.848 97.8793 164.848V164.858Z" fill="white"/>
<path d="M123.83 173.528C123.589 175.369 123.368 177.501 123.015 179.614C122.764 181.132 122.372 182.631 122.02 184.13C121.969 184.341 121.788 184.593 121.607 184.663C121.466 184.713 121.175 184.562 121.034 184.422C118.771 182.309 116.759 179.986 115.039 177.421C113.51 175.148 112.253 172.724 111.71 169.998C111.096 166.89 111.69 163.963 113.218 161.207C113.319 161.036 113.54 160.925 113.701 160.784C113.842 160.965 114.053 161.116 114.124 161.317C114.586 162.735 114.979 164.174 115.462 165.592C116.266 167.906 117.121 170.199 117.986 172.492C118.057 172.673 118.288 172.784 118.449 172.935C118.489 172.734 118.59 172.522 118.549 172.341C117.866 168.62 117.151 164.898 116.467 161.176C116.397 160.814 115.964 160.331 116.477 160.09C116.709 159.979 117.171 160.291 117.493 160.472C119.485 161.649 120.994 163.309 122.06 165.361C122.784 166.749 123.257 168.237 123.438 169.807C123.569 170.943 123.689 172.09 123.84 173.528H123.83Z" fill="white"/>
<path d="M138.626 165.018C138.485 164.596 138.395 164.153 138.204 163.761C136.786 160.794 135.347 157.827 133.909 154.869C133.688 154.417 133.366 154.014 133.134 153.572C133.054 153.411 133.014 153.129 133.094 152.998C133.164 152.888 133.466 152.858 133.637 152.898C136.283 153.491 138.455 154.889 140.215 156.911C141.754 158.682 142.72 160.784 143.334 163.027C143.796 164.717 144.128 166.437 144.43 168.167C144.631 169.323 144.671 170.51 144.752 171.687C144.812 172.623 144.852 173.568 144.842 174.504C144.842 174.795 144.712 175.208 144.5 175.348C144.329 175.459 143.897 175.298 143.666 175.147C141.734 173.89 139.753 172.693 137.902 171.315C135.237 169.323 132.873 167 131.304 164.002C130.499 162.464 130.076 160.804 129.905 159.064C129.765 157.615 130.066 156.247 130.338 154.859C130.368 154.688 130.549 154.477 130.71 154.437C130.841 154.397 131.102 154.527 131.193 154.668C132.923 157.243 134.633 159.838 136.373 162.403C136.967 163.278 137.651 164.093 138.304 164.928C138.355 164.988 138.425 165.028 138.485 165.079L138.646 165.018H138.626Z" fill="white"/>
<path d="M55.5428 165.119C55.9754 164.565 56.438 164.022 56.8404 163.449C58.4196 161.196 59.9887 158.943 61.5377 156.67C61.9602 156.056 62.2921 155.382 62.6944 154.748C62.795 154.597 63.0063 154.416 63.1571 154.437C63.308 154.447 63.5092 154.658 63.5494 154.829C63.9618 156.338 64.1228 157.856 63.9819 159.436C63.7104 162.403 62.4631 164.928 60.5419 167.09C59.2041 168.599 57.7155 169.997 56.1162 171.214C54.195 172.683 52.1028 173.92 50.071 175.228C49.5178 175.58 49.1255 175.378 49.1356 174.735C49.1557 173.266 49.216 171.808 49.3267 170.339C49.4172 169.152 49.548 167.965 49.729 166.788C50.0609 164.616 50.6343 162.503 51.5194 160.482C52.2537 158.792 53.2394 157.253 54.5873 155.986C56.2268 154.437 58.1681 153.411 60.3508 152.847C60.5017 152.807 60.723 152.918 60.8638 153.028C60.9241 153.079 60.9241 153.3 60.8638 153.411C59.4254 156.277 57.9669 159.134 56.5386 162.001C56.1363 162.795 55.8044 163.63 55.4724 164.455C55.402 164.636 55.4121 164.847 55.392 165.048C55.4523 165.078 55.5026 165.099 55.563 165.129L55.5428 165.119Z" fill="white"/>
<path d="M155.887 151.973C155.555 151.5 155.263 150.997 154.891 150.565C153.422 148.845 151.954 147.125 150.455 145.425C149.49 144.338 148.474 143.302 147.488 142.236C147.397 142.136 147.277 141.944 147.317 141.854C147.377 141.723 147.548 141.582 147.689 141.562C148.926 141.321 150.123 141.623 151.3 141.904C153.312 142.387 155.052 143.403 156.611 144.781C158.311 146.29 159.538 148.14 160.624 150.102C162.284 153.109 163.421 156.318 164.286 159.617C164.477 160.341 164.175 160.643 163.421 160.442C162.314 160.14 161.198 159.828 160.111 159.466C156.953 158.42 153.915 157.123 151.159 155.202C149.188 153.834 147.578 152.144 146.492 150.001C145.778 148.583 145.305 147.084 145.245 145.475C145.225 145.012 145.215 144.54 145.245 144.077C145.255 143.926 145.386 143.735 145.516 143.664C145.597 143.624 145.798 143.775 145.909 143.876C148.212 145.877 150.505 147.889 152.819 149.881C153.583 150.544 154.398 151.148 155.193 151.762C155.354 151.892 155.555 151.983 155.726 152.093C155.766 152.053 155.816 152.013 155.857 151.963L155.887 151.973Z" fill="white"/>
<path d="M82.4896 167.493C82.3589 169.595 81.9465 171.496 81.1619 173.306C80.0353 175.881 78.4863 178.185 76.706 180.337C75.4989 181.796 74.1511 183.134 72.8536 184.512C72.5116 184.874 72.0589 184.753 71.9382 184.26C71.556 182.731 71.1335 181.212 70.8519 179.673C70.3993 177.149 70.1076 174.604 70.2383 172.029C70.3892 169.213 70.9726 166.507 72.6122 164.133C73.7689 162.463 75.1972 161.095 77.0178 160.16C77.1586 160.09 77.4302 160.059 77.5308 160.14C77.6314 160.23 77.6515 160.492 77.6112 160.653C77.1485 162.846 76.6557 165.028 76.2131 167.221C75.8812 168.861 75.6096 170.51 75.3179 172.16C75.3179 172.18 75.3179 172.19 75.3179 172.21C75.3682 172.462 75.4185 172.703 75.4788 172.954C75.6498 172.773 75.9113 172.612 75.9918 172.391C77.0781 169.384 78.1544 166.376 79.2105 163.369C79.4519 162.685 79.5928 161.96 79.814 161.266C79.8744 161.095 80.0353 160.914 80.1963 160.834C80.2667 160.804 80.5081 160.975 80.5886 161.105C81.4938 162.564 82.0973 164.123 82.2884 165.833C82.3588 166.436 82.4393 167.03 82.4896 167.503V167.493Z" fill="white"/>
<path d="M45.5646 141.462C45.7054 141.462 45.796 141.441 45.8664 141.462C46.1178 141.552 46.3592 141.653 46.6006 141.743C46.4699 141.954 46.3693 142.206 46.2084 142.387C44.9712 143.775 43.7038 145.143 42.4767 146.531C41.4607 147.688 40.465 148.865 39.4692 150.041C39.0568 150.524 38.6645 151.027 38.2823 151.54C38.2018 151.651 38.2118 151.832 38.1917 151.983C38.3225 151.932 38.4734 151.922 38.5739 151.842C39.61 151.047 40.6561 150.263 41.6619 149.438C42.8991 148.442 44.1263 147.426 45.3132 146.38C46.2385 145.565 47.0935 144.68 47.9887 143.835C48.0893 143.735 48.2804 143.654 48.4112 143.674C48.5218 143.695 48.6928 143.866 48.6928 143.986C48.723 144.539 48.7532 145.093 48.6928 145.636C48.5118 147.044 48.2402 148.432 47.526 149.689C46.9728 150.655 46.4498 151.681 45.7356 152.516C44.2168 154.306 42.3157 155.634 40.2437 156.761C37.1356 158.45 33.8163 159.537 30.4266 160.462C29.7627 160.643 29.4006 160.291 29.5917 159.627C30.3461 157.022 31.1809 154.447 32.3377 151.983C33.2128 150.102 34.2287 148.301 35.5061 146.672C37.5983 144.016 40.294 142.266 43.6736 141.673C44.3174 141.562 44.9712 141.532 45.5747 141.462H45.5646Z" fill="white"/>
<path d="M115.834 149.046C115.2 149.076 114.566 149.146 113.943 149.136C110.221 149.186 106.58 148.271 103.13 146.933C98.5734 145.495 93.5139 145.585 89.0178 147.215C85.2056 148.694 81.0615 149.448 76.9777 149.066C76.3441 149.056 75.7204 148.975 75.0968 148.875C85.5577 159.838 107.465 159.818 117.906 148.844C117.845 148.844 117.785 148.865 117.725 148.875C117.101 149.005 116.467 148.995 115.834 149.046Z" fill="white"/>
<path d="M137.389 135.075C137.037 135.769 136.665 136.453 136.262 137.127C134.945 139.26 133.235 141.13 131.364 142.8C130.127 143.856 128.779 144.762 127.371 145.576C134.442 143.967 141.181 141.573 145.597 138.002C146.351 137.399 147.065 136.775 147.769 136.151C147.629 135.799 147.498 135.447 147.387 135.085H137.379L137.389 135.075Z" fill="white"/>
<path d="M28.4856 100.292C28.4756 100.815 28.4856 101.348 28.4957 101.871C29.7228 101.539 31.0405 101.358 32.328 101.358C32.8611 101.358 33.3741 101.398 33.8871 101.449C34.0279 96.8216 35.1645 92.2651 36.8443 88.131C38.3832 84.2183 40.6263 80.9794 41.8836 77.1371C41.8232 83.1018 39.3488 88.8251 39.2281 94.7596C39.037 97.6464 39.1678 100.483 39.6305 103.309C42.8693 105.16 45.3437 108.178 46.4703 111.809H48.2607C47.9589 111.145 47.6572 110.491 47.3856 109.817L46.4099 106.92C44.7201 101.107 44.4183 94.9507 46.2389 89.1872C46.8525 87.3364 47.6169 85.546 48.6731 83.9668C46.4401 91.0279 47.8885 98.6422 51.3386 104.909L52.6562 107.172C53.3805 108.208 54.2254 109.324 54.9697 110.35C55.3721 110.833 55.8549 111.326 56.2673 111.809H56.5087C57.6654 109.998 59.0535 108.349 60.6226 106.92C57.4642 103.35 55.1709 99.1954 53.8633 94.6791C53.4308 92.9994 53.0888 91.3095 53.0083 89.6197C55.2514 95.5643 59.5463 100.533 64.7768 103.863C70.8421 100.191 78.4362 99.2759 85.2056 101.288C87.8007 96.5903 89.5811 91.3095 89.5509 85.9081C89.4302 82.3273 88.0824 78.7464 86.7345 75.2662C88.5853 78.505 90.5065 81.8143 91.2608 85.7069C92.1963 91.3799 91.1904 97.3044 89.229 102.666C87.8108 106.659 85.8795 110.622 86.2215 114.836L106.932 114.937C107.284 110.722 105.403 106.79 103.955 102.816C101.933 97.4251 100.877 91.4403 101.812 85.717C102.557 81.8344 104.468 78.5151 106.308 75.2763C104.95 78.7565 103.593 82.3273 103.462 85.9081C103.412 91.4001 105.232 96.7411 107.867 101.509C114.496 99.5575 121.969 100.463 127.914 104.044C133.265 100.724 137.671 95.6649 139.954 89.6298C139.864 91.3196 139.522 93.0094 139.099 94.6892C137.771 99.296 135.408 103.521 132.159 107.142C133.657 108.52 134.985 110.099 136.102 111.819H136.695C137.108 111.346 137.58 110.843 137.993 110.36C138.737 109.324 139.572 108.228 140.306 107.182L141.624 104.919C145.084 98.6523 146.522 91.038 144.289 83.9769C145.345 85.5561 146.11 87.3465 146.724 89.1972C148.544 94.9507 148.242 101.107 146.553 106.93L145.577 109.827C145.305 110.491 145.004 111.155 144.702 111.819H147.387C148.393 108.59 150.475 105.834 153.211 103.963C153.785 100.946 153.946 97.8777 153.734 94.7797C153.614 88.8452 151.139 83.1219 151.079 77.1572C152.346 80.9996 154.579 84.2384 156.118 88.1512C157.818 92.3154 158.955 96.9222 159.085 101.579C160.836 101.278 162.727 101.298 164.477 101.68C164.95 88.4127 156.209 75.4875 156.873 71.2227C157.486 66.7466 168.007 58.1265 164.497 47.2633C161.791 38.8845 156.51 36.0078 150.777 36.0078C143.676 35.7563 134.834 41.6607 130.841 41.4998C126.928 41.4998 120.249 38.3012 114.204 38.3012C108.159 38.3012 102.627 41.8116 96.4812 41.8116C90.3355 41.8116 84.8033 38.3012 78.7581 38.3012C72.7129 38.3012 66.0341 41.4998 62.1213 41.4998C58.108 41.6506 49.3068 35.7664 42.1954 36.0078C36.4721 36.0078 31.1813 38.8745 28.4856 47.2432C24.9752 58.1064 35.4964 66.7366 36.11 71.2026C36.7236 75.6786 28.8176 86.5418 28.4957 100.282L28.4856 100.292ZM73.6283 95.8158C63.3887 95.6347 61.0149 81.7338 70.4297 78.0826C70.5604 81.7238 71.2645 85.3247 72.4916 88.7245C73.0147 90.2534 73.6987 91.7219 74.3927 93.1301C74.2217 91.5509 74.091 89.9919 74.1211 88.4429C74.1513 84.8117 74.7448 81.2007 75.992 77.8211C86.2014 80.7783 84.3607 95.5542 73.6182 95.8158H73.6283ZM120.239 95.8158C110.131 95.6548 107.626 81.9953 116.82 78.1731C116.95 81.7841 117.664 85.3649 118.871 88.7346C119.395 90.2634 120.078 91.732 120.773 93.1402C120.602 91.561 120.471 90.0019 120.501 88.4529C120.531 84.8017 121.135 81.1705 122.392 77.7808C132.782 80.5469 131.083 95.5542 120.229 95.8258L120.239 95.8158ZM143.827 44.5877C147.719 43.1292 151.964 42.7068 156.148 42.6665C153.352 42.9784 150.717 44.3966 148.997 46.519C153.201 46.4385 157.215 49.5969 157.919 53.5398C157.134 52.6446 155.857 52.192 154.64 52.2825C153.996 52.3328 153.553 52.9363 153.684 53.57C154.086 55.5415 154.096 60.098 153.724 60.792C152.588 62.9244 151.089 63.8096 148.554 63.4173C143.495 62.6226 138.747 54.9279 134.502 52.1819C136.393 48.6313 139.934 46.0362 143.827 44.5777V44.5877ZM106.027 45.8853C113.48 45.9154 121.416 48.2691 126.576 53.8919C122.311 53.0067 116.799 51.5784 112.585 50.6027C108.35 49.5767 102.748 48.4502 98.5935 47.0319C101.028 46.2071 103.532 45.9054 106.037 45.8752L106.027 45.8853ZM109.336 55.461C113.078 55.29 116.83 55.7627 120.451 56.7082C123.136 57.4928 125.762 58.4484 128.236 59.7359C129.051 60.1784 129.855 60.6411 130.65 61.1038C133.828 62.9948 136.685 65.4189 139.079 68.2353C137.238 67.7827 135.559 67.159 133.879 66.5756C132.179 66.0627 130.57 65.4089 128.88 64.8858C127.23 64.3527 125.621 63.7693 123.961 63.2966C122.342 62.7333 120.682 62.341 119.063 61.8481C112.273 60.0778 105.745 58.8205 98.5835 58.3176C101.822 56.3964 105.614 55.6722 109.336 55.461ZM104.468 65.6402C109.085 64.8959 114.003 65.4692 118.187 67.7223C120.27 68.9193 122.12 70.589 123.217 72.6912C120.994 71.8262 119.032 71.1523 117.011 70.6292C110.664 69.1003 104.407 68.9796 97.8995 67.9134C99.9313 66.6762 102.184 66.0325 104.468 65.6503V65.6402ZM88.4143 68.7785C84.1696 69.211 80.0959 69.6636 75.9719 70.6292C73.9501 71.1523 71.9887 71.8262 69.7658 72.6912C70.8622 70.5991 72.7129 68.9293 74.7951 67.7223C81.0313 64.4734 88.9273 64.4734 95.0831 67.9034C92.7596 68.3057 90.5769 68.5371 88.4143 68.7684V68.7785ZM72.4212 49.3152C79.1202 45.9356 87.1469 44.7788 94.389 47.042C90.255 48.4603 84.6122 49.5868 80.3976 50.6128C76.163 51.5885 70.6912 53.0067 66.4062 53.9019C68.086 51.9606 70.1983 50.5021 72.4212 49.3253V49.3152ZM62.3225 61.1038C63.1171 60.6411 63.9218 60.1784 64.7365 59.7359C67.2109 58.4484 69.8463 57.4928 72.5218 56.7082C79.6533 54.9078 87.7907 54.606 94.389 58.3176C87.2374 58.8205 80.6994 60.0778 73.9099 61.8481C72.2804 62.341 70.6308 62.7433 69.0114 63.2966C67.3517 63.7693 65.7424 64.3527 64.0928 64.8858C62.413 65.3988 60.7936 66.0627 59.0937 66.5756C57.4039 67.149 55.7342 67.7827 53.8935 68.2353C56.2874 65.4189 59.1541 63.0049 62.3225 61.1038ZM36.8241 42.576C44.8207 42.5257 54.4064 44.6078 58.4701 52.1014C54.2153 54.8474 49.4677 62.5422 44.4183 63.3368C41.8836 63.7291 40.3849 62.8439 39.2482 60.7115C38.8761 60.0175 38.8861 55.4509 39.2885 53.4895C39.4192 52.8558 38.9767 52.2523 38.3329 52.202C37.1158 52.1115 35.8384 52.5641 35.0538 53.4593C35.7479 49.5164 39.7612 46.348 43.9758 46.4385C42.2557 44.3161 39.6204 42.8979 36.8241 42.5861V42.576Z" fill="white"/>
<path d="M57.5649 138.636C56.72 137.529 56.0059 136.322 55.3923 135.075H46.4905C46.3195 135.638 46.0982 136.182 45.8669 136.715C46.3698 137.147 46.8526 137.58 47.3757 138.002C51.7411 141.533 58.3596 143.907 65.3301 145.516C64.5053 145.023 63.6906 144.51 62.9161 143.957C60.8641 142.488 59.114 140.627 57.575 138.646L57.5649 138.636Z" fill="white"/>
<path d="M52.7969 124.613C52.8472 122.078 53.1791 119.533 53.9637 117.13C50.8254 117.13 45.8666 117.13 42.7384 117.13C41.3704 117.039 41.9739 115.269 41.6521 114.373C41.2397 112.261 40.093 110.33 38.4635 108.932C30.1652 102.253 19.4026 111.557 23.8586 120.529C24.2207 121.253 24.7638 121.867 25.4377 122.3C27.3489 123.537 29.4913 124.14 31.845 124.915C29.6925 126.434 26.7755 126.524 24.3816 125.438C20.4286 131.423 24.4721 139.761 31.7143 140.194C36.3009 140.556 40.7267 137.186 41.6219 132.68C41.9941 131.755 41.3503 129.843 42.7384 129.763H53.4507C53.0685 128.073 52.8573 126.343 52.7969 124.623V124.613Z" fill="white"/>
<path d="M168.208 123.486C166.026 121.414 163.048 120.519 160.172 119.604C163.129 117.582 167.404 118.065 169.908 120.69C173.932 113.377 166.83 104.626 158.824 107.081C155.494 108.066 152.849 110.983 152.236 114.403C151.914 115.299 152.507 117.029 151.159 117.119H138.727C140.075 121.173 140.276 125.558 139.33 129.753H151.159C151.662 129.753 152.065 130.165 152.065 130.658C152.034 134.5 154.469 138.081 157.999 139.499C163.924 142.054 171.015 137.407 171.065 130.95C171.115 129.049 170.602 127.268 169.687 125.759C169.607 125.629 169.536 125.498 169.476 125.357C169.154 124.673 168.782 123.999 168.229 123.486H168.208Z" fill="white"/>
<path d="M132.4 135.074C144.782 118.196 127.421 97.5455 108.31 102.293C110.02 105.361 111.86 108.62 112.575 112.171C112.896 114.937 114.174 119.704 111.056 121.153H111.217L102.929 127.922C99.1767 130.99 93.7853 130.99 90.0335 127.922L81.7654 121.163C80.8098 120.67 80.1258 119.755 79.985 118.648C79.3513 112.905 81.6246 107.292 84.5315 102.504C60.8135 97.1834 45.2932 127.047 67.1202 140.636C71.9483 143.463 77.8929 144.277 83.3345 143.04C84.9137 142.708 86.4225 142.075 87.9413 141.541C93.393 139.701 99.408 139.681 104.87 141.491C114.295 145.736 126.053 143.503 132.39 135.064L132.4 135.074ZM63.137 119.936C64.4547 118.417 68.8301 121.163 68.0355 122.621C67.2409 124.05 62.3525 121.716 63.137 119.936ZM64.3139 128.848C61.759 126.584 64.6559 125.86 66.567 127.097C70.7111 129.723 66.9693 131.181 64.3139 128.848ZM70.6708 136.573C69.836 138.081 64.847 135.446 65.7723 133.887C66.6072 132.378 71.5962 135.013 70.6708 136.573ZM72.1595 126.444C72.9944 124.935 77.9834 127.57 77.058 129.129C76.2231 130.638 71.2341 128.003 72.1595 126.444ZM78.6171 137.035C77.7822 138.544 72.7932 135.909 73.7186 134.35C74.5534 132.841 79.5425 135.476 78.6171 137.035Z" fill="white"/>
<path d="M90.1541 123.708C93.5237 127.5 99.4482 127.5 102.818 123.708L106.922 119.091H86.0502L90.1541 123.708Z" fill="white"/>
<g clip-path="url(#clip0_4006_671)">
<path d="M104.348 13.1425L103.33 13.6039C102.821 13.8518 102.469 14.0184 102.283 14.1081C100.677 14.7575 99.2579 15.0908 98.0537 15.0908C97.2219 15.0908 96.6177 15.0395 96.2494 14.9327C95.521 14.7661 95.1692 14.3986 95.1692 13.809C95.1692 13.0186 96.0673 12.006 97.8426 10.7969C99.3945 9.70739 100.64 9.06223 101.542 8.88278C102.436 8.69906 102.887 8.23763 102.887 7.51557C102.887 6.26799 102.171 6.00736 101.571 6.00736C101.128 6.00736 100.541 6.18681 99.7711 6.54998C99.0262 6.91314 98.2937 7.34894 97.5943 7.84883C97.6067 7.10968 97.6564 6.47734 97.7474 5.96464C97.8136 5.4562 97.8468 5.11013 97.8468 4.90932C97.8468 4.31971 97.3626 4.0249 96.4149 4.0249C95.9017 4.0249 95.5334 4.10181 95.281 4.25562C94.9789 4.45216 94.8133 4.81532 94.7844 5.33657C94.6437 6.9345 94.7223 8.38717 95.0203 9.65611C92.8352 11.583 91.7758 13.1681 91.7758 14.5055C91.7758 15.4582 92.3055 16.1931 93.3442 16.693C94.2961 17.163 95.6203 17.398 97.2757 17.398C99.3738 17.398 101.356 17.1801 103.173 16.7485C103.636 16.6332 103.943 16.4836 104.104 16.2914C104.365 16.0008 104.497 15.548 104.497 14.9455C104.497 14.8216 104.501 14.6208 104.514 14.3345C104.538 14.0184 104.555 13.7877 104.555 13.6296V13.2835C104.555 13.2322 104.53 13.1852 104.489 13.1596C104.447 13.134 104.398 13.1297 104.352 13.1468L104.348 13.1425Z" fill="white"/>
<path d="M127.721 10.6431C127.415 10.3739 127.179 10.25 127.018 10.2714C126.823 10.2928 126.728 10.4466 126.728 10.7371C126.728 11.1515 127.01 11.9078 127.577 13.0058C128.177 14.0825 128.669 14.8387 129.058 15.2745C129.381 15.6676 129.695 15.8642 130.006 15.8642C130.395 15.8642 130.809 15.595 131.243 15.0566C131.727 14.4158 131.988 13.6253 132.021 12.6939C131.893 12.6726 131.793 12.6512 131.727 12.6298C129.704 11.9249 128.367 11.2626 127.721 10.6388V10.6431Z" fill="white"/>
<path d="M118.319 10.1772C118.207 10.1772 117.835 10.4592 117.202 11.0189C116.424 11.7666 115.662 12.1383 114.917 12.1383C114.624 12.1383 114.342 12.0016 114.065 11.7325C113.548 12.8946 113.287 13.92 113.287 14.813C113.287 15.6205 113.643 16.0264 114.355 16.0264C115.344 16.0264 116.308 15.394 117.243 14.1293C118.149 12.8647 118.605 11.6427 118.605 10.4592C118.605 10.2712 118.509 10.1772 118.315 10.1772H118.319Z" fill="white"/>
<path d="M131.727 4.76839C131.454 4.74703 131.243 4.73848 131.098 4.73848C128.797 4.49068 126.434 4.29414 124.005 4.14887V1.84597C124.005 0.995736 123.438 0.572754 122.304 0.572754C121.315 0.572754 120.823 1.10255 120.823 2.15787V4.11469C117.926 4.30268 115.737 4.4565 114.268 4.5804C113.394 4.66158 112.956 5.34946 112.956 6.63122C112.956 7.584 113.208 8.06252 113.709 8.06252C113.742 8.06252 114.479 7.9258 115.919 7.65663C117.52 7.32337 119.155 7.10974 120.823 7.00293C120.823 7.56263 120.814 9.45964 120.798 12.694V15.9283C120.798 17.4408 121.315 18.197 122.354 18.197C122.937 18.197 123.351 17.9706 123.591 17.5134C123.819 17.0776 123.931 16.3726 123.931 15.3985L123.98 6.97302C125.681 7.09693 127.283 7.32764 128.789 7.65663L129.857 7.93435C130.328 8.03689 130.689 8.08816 130.949 8.08816C131.177 8.08816 131.396 7.96425 131.603 7.71645C131.942 7.23792 132.112 6.46459 132.112 5.38364V5.01193C132.112 4.88802 131.98 4.80684 131.723 4.76412L131.727 4.76839Z" fill="white"/>
<path d="M141.121 2.5293C140.116 2.5293 139.615 2.90101 139.615 3.6487C139.615 4.56303 139.549 5.77216 139.42 7.28464C139.164 10.331 138.431 11.8563 137.235 11.8563C137.024 11.8563 136.813 11.7836 136.606 11.6384C136.006 13.0697 135.708 14.3941 135.708 15.6204C135.708 16.3467 135.87 16.8765 136.193 17.2055C136.42 17.496 136.702 17.6413 137.045 17.6413C138.502 17.6413 139.747 16.3852 140.786 13.8772C141.854 11.2666 142.388 8.01951 142.388 4.14432C142.388 3.52053 142.288 3.09754 142.098 2.8711C141.92 2.64466 141.597 2.5293 141.125 2.5293H141.121Z" fill="white"/>
<path d="M154.6 8.59218C154.6 8.59218 154.534 8.67335 154.455 8.83998C154.389 9.02798 154.352 9.13052 154.335 9.15188C153.851 9.85685 153.015 10.6857 151.835 11.6385C150.573 12.6554 149.683 13.1638 149.162 13.1638C148.74 13.1638 148.475 13.0185 148.359 12.728C148.276 12.5827 148.239 12.2324 148.239 11.6727C148.239 11.2155 148.289 9.65177 148.384 6.97715C148.483 4.25982 148.529 2.81997 148.529 2.65334C148.529 1.96973 148.02 1.62793 146.998 1.62793C145.976 1.62793 145.467 1.99964 145.467 2.74734C145.467 3.26431 145.475 4.34527 145.491 5.98165C145.541 7.57958 145.566 8.56227 145.566 8.93398C145.566 10.032 145.458 11.4847 145.251 13.2877C145.057 15.048 144.958 16.1375 144.958 16.5519C144.958 17.6286 145.338 18.1669 146.1 18.1669C147.023 18.1669 148.26 17.65 149.816 16.6117C152.129 15.0779 153.751 13.7192 154.674 12.54C155.192 11.8564 155.452 11.1813 155.452 10.5191C155.452 9.81412 155.25 9.24587 154.844 8.81008L154.6 8.59218Z" fill="white"/>
<path d="M177.895 9.08754C173.119 8.59192 169.879 8.32275 168.178 8.28002L168.277 4.7979C169.605 4.87908 170.988 5.0158 172.432 5.20379L174.327 5.4516C175.122 5.4516 175.519 4.72527 175.519 3.2726C175.519 2.8368 175.196 2.61036 174.547 2.589C173.624 2.52491 172.701 2.46509 171.778 2.40101C169.883 2.25574 168.029 2.18311 166.216 2.18311C164.404 2.18311 162.744 2.30701 161.383 2.55482C161.06 2.6189 160.766 2.80262 160.509 3.11452C160.249 3.36233 160.12 3.67422 160.12 4.04593C160.12 5.04144 160.551 5.53705 161.407 5.53705C161.486 5.53705 161.61 5.51569 161.772 5.47296C162.922 5.18243 163.915 4.97735 164.759 4.84917L164.71 8.39538C161.796 8.68592 160.112 8.95509 159.657 9.20289C159.202 9.42934 158.895 9.64724 158.734 9.85659C158.506 10.1471 158.395 10.5402 158.395 11.0401C158.395 11.6425 158.548 12.1082 158.854 12.4415C159.115 12.6893 159.38 12.8132 159.657 12.8132C159.885 12.8132 160.443 12.638 161.333 12.2834C162.322 11.869 163.431 11.5143 164.66 11.2281C164.66 13.1977 164.797 14.5436 165.074 15.2699C165.43 16.3252 166.2 17.0857 167.379 17.5386C168.579 17.9744 170.528 18.1923 173.231 18.1923C174.348 18.1923 175.118 18.0043 175.54 17.6326C175.962 17.2182 176.169 16.4619 176.169 15.3639V15.146C176.169 15.0905 176.152 15.0606 176.127 15.0563C176.086 15.0691 175.697 15.1332 174.956 15.24C174.1 15.4066 173.255 15.4878 172.432 15.4878C170.681 15.4878 169.552 15.2272 169.03 14.7102C168.513 14.1932 168.244 12.9713 168.227 11.0401C170.185 11.0828 172.138 11.2879 174.079 11.6639C175.991 12.0356 176.881 12.2236 176.752 12.2236C177.303 12.2236 177.708 11.8732 177.965 11.1683C178.159 10.6086 178.246 9.92495 178.23 9.11744H178.085C177.99 9.09608 177.924 9.08754 177.89 9.08754H177.895Z" fill="white"/>
<path d="M184.938 5.51143L187.173 6.04123C188.112 6.25058 188.671 6.35312 188.849 6.35312C189.105 6.35312 189.238 6.14804 189.238 5.72933C189.238 5.54134 189.068 5.22945 188.729 4.79792C188.083 3.94768 187.272 3.02481 186.299 2.02931C185.828 1.57215 185.488 1.3457 185.281 1.3457C184.714 1.3457 184.263 1.61487 183.92 2.15321C183.63 2.58901 183.485 3.08463 183.485 3.64433C183.485 4.69965 183.97 5.32344 184.942 5.51143H184.938Z" fill="white"/>
<path d="M198.247 4.76831C198.119 4.54187 198.003 4.43933 197.908 4.45642C197.841 4.45642 197.68 4.7555 197.423 5.35793C197.001 6.27225 196.67 6.92168 196.426 7.31475C195.259 9.0964 193.521 10.7456 191.203 12.2581C189.763 13.1895 188.435 13.8347 187.218 14.185C186.229 14.4542 184.983 14.5909 183.477 14.5909C183.154 14.5909 182.902 14.8002 182.724 15.2147C182.563 15.5479 182.48 15.9197 182.48 16.3341C182.48 17.5988 182.819 18.2311 183.498 18.2311C184.777 18.2311 186.208 17.9619 187.798 17.4236C189.366 16.8425 190.839 16.0649 192.217 15.0908C193.885 13.8902 195.391 12.5187 196.736 10.9849C198.243 9.22458 198.996 7.81464 198.996 6.75505C198.996 6.29789 198.743 5.63564 198.243 4.76404L198.247 4.76831Z" fill="white"/>
<path d="M19.5453 14.296C18.7715 13.7277 17.5879 12.9886 16.0195 12.1042C16.5161 11.459 16.7602 10.942 16.7602 10.5276C16.7602 9.94655 16.5285 9.25439 15.4153 9.25439C15.2456 9.25439 15.0842 9.39539 14.9021 9.70301C14.1696 10.9677 13.3461 11.9632 12.4481 12.6639C11.6039 13.3859 10.6603 13.7534 9.63817 13.7534C9.03811 13.7534 9.00915 13.5056 9.00087 13.4201C8.99673 13.3689 8.96362 13.3261 8.9181 13.3048C8.87258 13.2834 8.82292 13.2877 8.78154 13.3133C7.86697 13.9157 7.40347 14.6463 7.40347 15.4838C7.40347 15.958 7.63522 16.5263 8.74843 16.5263C9.86164 16.5263 10.9211 16.2101 12.055 15.5863C12.8868 15.1206 13.6772 14.5438 14.4055 13.8773C15.6719 14.6293 16.9216 15.4923 18.1218 16.4323C18.3742 16.6502 18.5977 16.757 18.8004 16.757C19.7523 16.757 20.2571 16.2357 20.2571 15.253C20.2571 15.0095 20.0378 14.7062 19.5536 14.296H19.5453Z" fill="white"/>
<path d="M24.5527 2.77288C24.0892 2.65325 23.3112 2.59343 22.1732 2.59343H16.243C16.2719 2.15763 16.2968 1.68765 16.3174 1.15786C16.3174 0.628064 16.065 0 14.8608 0C13.8965 0 13.6606 0.512705 13.6275 0.95705C13.6275 1.53812 13.611 2.085 13.582 2.59771H7.46141C7.12621 2.59771 6.84894 2.56353 6.64202 2.49089C6.40614 2.40971 6.08749 2.36699 5.70262 2.36699C5.31776 2.36699 5.04049 2.45671 4.83771 2.62761C4.59355 2.81133 4.4694 3.08478 4.4694 3.4394V8.39555C4.4694 10.331 4.06798 11.8649 3.26101 12.9586C2.6775 13.9242 2.03192 14.4156 1.34496 14.4156C1.17529 14.4156 1.15459 14.3515 1.14632 14.3216C1.12976 14.2703 1.09252 14.2318 1.04286 14.219C0.9932 14.2062 0.939402 14.219 0.906295 14.2617C0.306237 14.9197 0 15.7529 0 16.727C0 17.2183 0.111735 17.6242 0.343482 17.949C0.558675 18.1968 0.922848 18.3164 1.45669 18.3164C2.36713 18.3164 3.28997 17.8678 4.20868 16.9791C5.26396 15.9494 6.0668 14.4796 6.59236 12.6168C7.10966 10.7198 7.37451 8.25455 7.37865 5.28941C7.60626 5.19541 8.72361 5.05442 13.284 5.02878C13.0854 6.02856 12.8164 6.7848 12.4771 7.27187C11.7901 8.29728 10.9004 8.79289 9.74577 8.79289C9.28228 8.79289 9.21607 8.68181 9.21193 8.65617C9.19538 8.61345 9.16227 8.57927 9.12089 8.56645C9.0795 8.55363 9.03398 8.56218 8.99674 8.58354C8.30563 9.07061 7.95801 9.76276 7.95801 10.6386C7.95801 11.0616 8.18976 11.5658 9.30297 11.5658C10.5941 11.5658 11.757 11.177 12.7626 10.4122C13.6482 9.75849 14.3724 8.91253 14.9146 7.89993C16.1974 8.64335 17.4762 9.49786 18.7053 10.4378C18.9949 10.6728 19.2308 10.7882 19.4336 10.7882C20.4516 10.7882 20.6668 10.1601 20.6668 9.63031C20.6668 9.34832 20.4392 9.01079 19.9426 8.56218C19.1067 7.87003 17.8238 6.99415 16.1354 5.9602C16.0071 5.87047 15.8788 5.7893 15.7546 5.72094C15.8208 5.49876 15.8788 5.26377 15.9243 5.02024C20.402 5.0416 21.6187 5.13132 21.9083 5.19114C21.7635 7.38295 21.689 11.1001 21.689 16.257C21.689 17.2867 21.7759 17.9789 21.9539 18.3677C22.1111 18.7095 22.4711 18.8846 23.034 18.8846C23.4685 18.8846 23.8658 18.7821 24.2299 18.5685C24.6231 18.2908 24.8217 17.8891 24.8217 17.3807C24.8217 16.6757 24.7845 15.9879 24.71 15.347C24.6355 14.6036 24.5982 12.9971 24.5982 10.5788C24.5982 7.19069 24.7183 5.0416 24.9541 4.19991C25.1321 3.66584 25.1569 3.50776 25.1569 3.43085C25.1569 3.20868 25.0535 2.91387 24.5486 2.76861L24.5527 2.77288Z" fill="white"/>
<path d="M46.8956 3.17011C44.8181 2.88812 42.8028 2.70867 40.9074 2.62749V1.38418C40.9074 0.897112 40.7377 0.516856 40.3943 0.251958C40.1501 0.0810563 39.8314 -0.00439453 39.4507 -0.00439453C39.07 -0.00439453 38.7431 0.102419 38.4823 0.328864C38.234 0.589489 38.1058 0.905657 38.1058 1.26882V2.59331C34.9524 2.61895 33.0818 2.85394 32.4073 3.29828C31.9272 3.53754 31.6831 3.92207 31.6831 4.43905C31.6831 4.77658 31.7783 5.07993 31.9728 5.34483C32.1879 5.58836 32.428 5.71227 32.6928 5.71227C32.8708 5.71227 33.3218 5.62682 34.075 5.44737C35.1758 5.07993 36.5208 4.87058 38.0768 4.82358V6.54114C36.0656 6.5625 34.5261 6.64796 33.5039 6.80177C32.8087 6.93849 32.6597 7.30165 32.6597 7.57937C32.6597 7.66055 32.6763 7.83572 32.8335 8.36979C32.9618 8.81841 33.0901 9.80536 33.2225 11.3264C33.326 11.916 33.6777 12.2279 34.2281 12.2279C34.6751 12.2279 34.9979 12.0057 35.1717 11.587C35.3455 11.1256 35.4407 10.3352 35.4614 9.16876C35.4614 9.1303 35.4614 9.03631 35.7014 8.99785C36.4587 8.89104 37.2491 8.81841 38.052 8.77568V10.6428C37.125 11.8391 36.0821 12.873 34.9606 13.7147C33.9674 14.4069 33.1273 14.7572 32.4735 14.7572C32.3742 14.7572 32.3245 14.7487 32.3038 14.7402C32.2914 14.7017 32.2624 14.6718 32.2252 14.6547C32.1714 14.6291 32.1135 14.6419 32.0721 14.6803C31.5962 15.129 31.3561 15.7784 31.3561 16.603C31.3561 16.9362 31.4224 17.2097 31.5465 17.4062C31.5548 17.419 31.5631 17.4276 31.5713 17.4361C31.7286 17.5771 31.9603 17.6455 32.279 17.6455C33.2474 17.6455 34.2944 17.3293 35.3952 16.7012C36.347 16.1415 37.2326 15.381 38.0271 14.4411V16.8337C38.0271 17.8292 38.1596 18.3974 38.441 18.6196C38.7265 18.8717 39.0659 18.9999 39.4549 18.9999C39.939 18.9999 40.2991 18.782 40.5267 18.3547C40.7833 17.9275 40.9116 17.3379 40.9116 16.6073V14.2445C41.8758 14.8427 42.8317 15.4921 43.7504 16.1757C44.0401 16.4107 44.2802 16.5261 44.4829 16.5261C45.3603 16.5261 45.8279 16.0476 45.8279 15.1375C45.8279 14.8769 45.6003 14.5479 45.1037 14.0993C44.2636 13.4242 42.9807 12.5782 41.2964 11.5827C41.1764 11.5058 41.0481 11.4289 40.9157 11.3563V8.77568C41.9875 8.81414 42.7117 8.89959 43.0552 9.01494C43.2332 9.10894 43.2538 9.21575 43.2538 9.28411V10.6385C43.2538 11.2495 43.3366 11.6725 43.5187 11.9545C43.6967 12.1382 43.945 12.2279 44.2636 12.2279C45.0457 12.2279 45.3189 11.8092 45.4099 11.4375C45.6127 9.84382 45.7782 8.85686 45.9024 8.49797C46.0017 8.21598 46.0514 7.94681 46.0514 7.699C46.0514 7.4341 45.9148 7.08803 45.2734 6.9214C44.4829 6.71204 43.018 6.58814 40.9157 6.54541V4.92185C41.8178 5.02012 42.7945 5.16966 43.8208 5.36619C44.7312 5.52 45.3975 5.59691 45.7989 5.59691C46.1052 5.59691 46.3576 5.47301 46.5562 5.22093C46.8376 4.82785 46.9908 4.20833 47.0321 3.32392C47.0321 3.24701 46.9825 3.17865 46.908 3.17011H46.8956Z" fill="white"/>
<path d="M49.0558 12.5742C49.5855 12.5742 49.9414 12.2665 50.0904 11.6641C50.2187 10.2841 50.2849 7.81454 50.2849 4.32815C50.2849 3.85389 50.0697 3.28564 49.0516 3.28564C48.6999 3.28564 48.4143 3.38391 48.1991 3.58472C47.9674 3.80262 47.8391 4.08888 47.8184 4.4435C47.8184 10.7626 48.0874 11.8777 48.2861 12.1554C48.4392 12.4289 48.704 12.5742 49.0516 12.5742H49.0558Z" fill="white"/>
<path d="M55.2012 0.358981C54.4232 0.00436025 53.7363 0.0342681 53.1486 0.444432C52.8755 0.705057 52.7389 1.05968 52.7389 1.50402V14.1294C52.7389 14.5951 52.4782 14.9796 51.9444 15.3001C51.3898 15.6504 50.1649 15.847 48.3026 15.8811C48.224 15.8811 48.1619 15.9495 48.1619 16.0307C48.1619 16.9621 48.3606 17.7098 48.7537 18.2567C49.0765 18.6754 49.4821 18.889 49.9538 18.889C51.5223 18.889 52.8879 18.5045 54.0218 17.7397C55.1019 17.0219 55.6523 15.9239 55.6523 14.4755V2.31153C55.6523 2.07227 55.6896 1.73047 55.764 1.27331C55.764 0.893049 55.582 0.585426 55.2054 0.358981H55.2012Z" fill="white"/>
<path d="M70.4096 2.43118C70.4096 2.43118 70.4141 2.44399 70.4141 2.45254C70.4141 2.43118 70.4141 2.4269 70.4096 2.43118Z" fill="white"/>
<path d="M79.5429 13.2063C76.973 14.377 74.6555 14.9666 72.5905 14.9666C71.4193 14.9666 70.5999 14.5735 70.1323 13.7831C69.7971 13.2063 69.6274 12.292 69.6274 11.0444C69.6274 8.95083 69.7681 6.95982 70.0454 5.0799C70.2606 3.34098 70.3806 2.46083 70.4054 2.4352C70.393 2.19594 70.2109 1.96949 69.8509 1.76441C69.4205 1.55506 68.866 1.44824 68.1749 1.44824C66.9292 1.44824 66.3043 1.79432 66.3043 2.48647C66.3043 2.61892 66.2754 3.61015 66.2216 5.45589C66.1264 7.28026 66.0809 8.59621 66.0809 9.40372C66.0809 12.826 66.3954 15.0349 67.0286 16.0347C67.8107 17.2438 69.6067 17.8505 72.4167 17.8505C75.2266 17.8505 77.871 17.5814 79.9526 17.043C80.8092 16.7952 81.4051 16.4662 81.7403 16.0646C82.0921 15.663 82.3156 15.0477 82.4107 14.2189C82.597 12.9713 82.6921 12.2407 82.6921 12.0271V11.6511C82.5266 11.7109 82.0383 11.9373 81.2396 12.3432C80.4409 12.7448 79.8698 13.0354 79.5387 13.2063H79.5429Z" fill="white"/>
</g>
<defs>
<clipPath id="clip0_4006_671">
<rect width="199" height="19" fill="white"/>
</clipPath>
</defs>
</svg>
