<svg width="240" height="223" viewBox="0 0 240 223" fill="none" xmlns="http://www.w3.org/2000/svg">
<path d="M27.8195 190.905C27.6106 191.704 27.483 191.774 26.8446 191.832H2.79704C2.10068 191.774 1.97302 191.704 1.77571 190.905L1.67126 190.5H0V199H1.65965L1.76411 198.594C1.97302 197.795 2.10068 197.738 2.73901 197.668H11.1069V218.836C11.0489 219.531 10.9793 219.658 10.1784 219.855L9.77223 219.96V221.616H19.7998V219.96L19.3936 219.855C18.6044 219.647 18.5347 219.531 18.4651 218.859V197.668H26.7866C27.483 197.726 27.6106 197.795 27.8079 198.594L27.9124 199H29.572V190.5H27.9124L27.8079 190.905H27.8195Z" fill="white"/>
<path d="M63.3921 195.503C60.2701 192.608 56.475 191.311 51.1246 191.311C45.7742 191.311 42.1184 192.643 38.9383 195.491C35.9092 198.247 34.0986 202.428 34.0986 206.689C34.0986 210.951 35.8627 215.096 38.9267 217.887C41.9559 220.736 45.9599 222.125 51.1594 222.125C56.3589 222.125 60.3165 220.782 63.3805 217.899C66.4097 215.143 68.2202 211.043 68.2202 206.909C68.2202 202.37 66.5489 198.421 63.3921 195.491V195.503ZM51.171 216.173C45.5537 216.173 41.6309 212.282 41.6309 206.701C41.6309 201.119 45.5305 197.275 51.1246 197.275C56.7187 197.275 60.6995 201.131 60.6995 206.875C60.6995 212.259 56.6839 216.173 51.1594 216.173H51.171Z" fill="white"/>
<path d="M103.583 216.74L98.5111 209.526C103.432 208.495 105.916 205.6 105.916 200.887C105.916 197.726 104.627 195.074 102.388 193.638C100.38 192.318 97.9772 191.832 93.5089 191.832H75.0322V193.487L75.4384 193.592C76.2392 193.8 76.2973 193.928 76.3669 194.564V218.813C76.3089 219.508 76.2392 219.635 75.4384 219.832L75.0322 219.936V221.592H85.0598V219.936L84.6536 219.832C83.8644 219.624 83.7947 219.508 83.7251 218.836V209.908H90.561L96.1783 218.107C96.6658 218.778 97.1068 219.438 97.1184 219.6C97.0952 219.635 96.9443 219.774 96.5149 219.82L96.039 219.878V221.604H107.529V219.855L107.018 219.82C105.974 219.751 105.672 219.635 103.595 216.74H103.583ZM83.7251 197.656H92.8706C95.7373 197.656 96.3872 197.737 97.2577 198.235C98.0817 198.698 98.5691 199.683 98.5691 200.852C98.5691 202.022 98.0817 203.053 97.2693 203.504C96.3988 203.956 95.7141 204.083 92.8706 204.083H83.7251V197.656Z" fill="white"/>
<path d="M146.107 217.551L135.453 196.081C134.989 195.201 134.78 194.483 134.78 194.182C134.78 194.066 135.035 193.765 135.639 193.592L136.033 193.476V191.832H124.764V193.464L125.147 193.58C125.878 193.812 125.971 194.159 125.971 194.437C125.971 194.669 125.89 195.109 125.507 195.873L114.957 217.921C114.098 219.6 113.854 219.705 113.077 219.82L112.612 219.89V221.592H123.197V219.925L122.779 219.82C122.141 219.67 121.816 219.427 121.816 219.102C121.816 219.056 121.827 218.767 122.152 218.002L123.94 214.274H136.312L138.134 218.002C138.366 218.512 138.47 218.825 138.47 219.068C138.47 219.265 138.47 219.682 137.565 219.82L137.089 219.89V221.604H148.753V219.902L148.289 219.832C147.43 219.705 147.105 219.461 146.107 217.551ZM130.172 200.91L133.979 209.283H126.296L130.172 200.91Z" fill="white"/>
<path d="M183.049 216.925L172.325 204.06L181.645 196.568C182.574 195.78 183.537 195.004 184.303 194.391C184.431 194.263 184.558 194.171 184.686 194.078L184.814 193.985C185.15 193.765 185.324 193.673 185.87 193.603L186.345 193.545V191.832H173.474V193.534L173.939 193.603C174.507 193.696 174.705 193.846 174.728 193.87C174.728 193.916 174.612 194.148 173.683 194.866L163.157 203.423V194.611C163.215 193.916 163.284 193.789 164.085 193.592L164.491 193.487V191.832H154.464V193.487L154.87 193.592C155.671 193.8 155.729 193.928 155.799 194.564V218.813C155.741 219.508 155.671 219.635 154.87 219.832L154.464 219.936V221.592H164.491V219.936L164.085 219.832C163.284 219.624 163.226 219.496 163.157 218.859V211.425L166.836 208.414L174.995 218.419C175.54 219.114 175.842 219.496 175.842 219.6C175.842 219.6 175.749 219.739 175.215 219.832L174.763 219.913V221.604H187.065V219.89L186.589 219.832C185.463 219.681 185.394 219.682 183.015 216.925H183.049Z" fill="white"/>
<path d="M218.877 195.491C215.755 192.596 211.96 191.299 206.61 191.299C201.26 191.299 197.604 192.631 194.424 195.48C191.395 198.236 189.584 202.416 189.584 206.678C189.584 210.939 191.348 215.085 194.412 217.875C197.441 220.724 201.445 222.114 206.645 222.114C211.844 222.114 215.802 220.77 218.866 217.887C221.895 215.131 223.706 211.032 223.706 206.898C223.706 202.358 222.034 198.409 218.877 195.48V195.491ZM206.656 216.173C201.039 216.173 197.116 212.282 197.116 206.701C197.116 201.119 201.016 197.275 206.61 197.275C212.204 197.275 216.185 201.131 216.185 206.874C216.185 212.259 212.169 216.173 206.645 216.173H206.656Z" fill="white"/>
<path d="M231.723 216.335V214.741H240V223H238.402V216.335H231.723ZM240 212.523H231.723V214.117H240V212.523ZM231.098 214.741V212.523H229.5V223H231.098V220.782H235.555V219.188H231.098V214.741ZM236.18 218.553V221.406H231.723V223H237.777V216.959H231.723V218.553H236.18Z" fill="#DC001B"/>
<path d="M112.937 148.35C112.995 147.62 112.995 146.868 113.123 146.15C113.204 145.652 113.587 145.594 113.947 145.953C116.291 148.269 117.765 151.048 118.253 154.313C118.682 157.185 118.229 159.999 117.463 162.755C116.639 165.72 115.432 168.545 114.016 171.278C113.506 172.262 112.949 173.212 112.403 174.173C111.997 174.88 111.498 174.903 111.127 174.173C109.92 171.846 108.713 169.518 107.61 167.144C106.589 164.921 105.857 162.57 105.463 160.138C105.161 158.32 104.952 156.514 105.242 154.638C105.498 153.028 105.892 151.476 106.6 150.029C107.366 148.466 108.388 147.064 109.687 145.883C109.804 145.779 110.082 145.71 110.187 145.779C110.326 145.872 110.442 146.103 110.453 146.289C110.511 147.308 110.523 148.338 110.581 149.357C110.72 151.465 110.883 153.584 111.034 155.691C111.138 157.127 111.254 158.552 111.394 159.976C111.417 160.161 111.626 160.335 111.742 160.509C111.869 160.37 112.078 160.242 112.09 160.092C112.218 159.108 112.322 158.112 112.415 157.116C112.577 155.402 112.763 153.7 112.856 151.986C112.926 150.77 112.867 149.554 112.867 148.338C112.891 148.338 112.914 148.338 112.937 148.338V148.35Z" fill="white"/>
<path d="M142.882 158.331C142.603 160.45 142.348 162.905 141.942 165.337C141.651 167.085 141.199 168.811 140.793 170.536C140.734 170.779 140.526 171.069 140.317 171.15C140.154 171.208 139.818 171.034 139.655 170.872C137.044 168.44 134.723 165.765 132.738 162.812C130.974 160.195 129.523 157.404 128.896 154.266C128.188 150.688 128.873 147.318 130.637 144.145C130.753 143.948 131.009 143.821 131.194 143.659C131.357 143.867 131.601 144.041 131.682 144.272C132.216 145.905 132.668 147.561 133.225 149.194C134.154 151.857 135.14 154.498 136.139 157.138C136.22 157.346 136.487 157.474 136.672 157.647C136.719 157.416 136.835 157.173 136.788 156.964C135.999 152.68 135.175 148.395 134.386 144.11C134.305 143.693 133.806 143.138 134.398 142.86C134.665 142.732 135.198 143.091 135.57 143.3C137.868 144.655 139.609 146.565 140.839 148.928C141.675 150.526 142.22 152.24 142.429 154.046C142.58 155.355 142.719 156.675 142.893 158.331H142.882Z" fill="white"/>
<path d="M159.953 148.534C159.791 148.047 159.686 147.538 159.466 147.086C157.829 143.67 156.17 140.254 154.51 136.849C154.255 136.328 153.883 135.865 153.616 135.356C153.524 135.17 153.477 134.846 153.57 134.695C153.651 134.568 153.999 134.533 154.197 134.58C157.249 135.263 159.756 136.872 161.787 139.2C163.563 141.238 164.677 143.658 165.385 146.241C165.919 148.186 166.302 150.166 166.65 152.158C166.882 153.49 166.929 154.856 167.021 156.211C167.091 157.288 167.137 158.377 167.126 159.454C167.126 159.789 166.975 160.264 166.731 160.426C166.534 160.554 166.035 160.368 165.768 160.195C163.54 158.747 161.253 157.369 159.118 155.783C156.042 153.49 153.315 150.815 151.504 147.364C150.576 145.592 150.088 143.682 149.891 141.678C149.728 140.011 150.077 138.436 150.39 136.838C150.425 136.641 150.634 136.398 150.819 136.351C150.97 136.305 151.272 136.456 151.376 136.618C153.373 139.582 155.346 142.57 157.354 145.523C158.038 146.53 158.828 147.468 159.582 148.429C159.64 148.499 159.721 148.545 159.791 148.603L159.977 148.534H159.953Z" fill="white"/>
<path d="M64.0876 148.65C64.5866 148.013 65.1205 147.387 65.5847 146.727C67.4069 144.133 69.2174 141.539 71.0047 138.922C71.4922 138.216 71.8752 137.44 72.3394 136.711C72.4555 136.537 72.6992 136.328 72.8733 136.352C73.0474 136.363 73.2795 136.606 73.3259 136.803C73.8018 138.54 73.9875 140.289 73.825 142.107C73.5116 145.523 72.0725 148.43 69.8557 150.919C68.3121 152.656 66.5945 154.266 64.7491 155.667C62.5324 157.358 60.1183 158.782 57.7739 160.287C57.1356 160.693 56.6829 160.461 56.6946 159.72C56.7178 158.029 56.7874 156.35 56.9151 154.66C57.0195 153.293 57.1704 151.927 57.3793 150.572C57.7623 148.071 58.4238 145.639 59.4452 143.311C60.2924 141.366 61.4298 139.594 62.985 138.135C64.8768 136.352 67.1167 135.17 69.6352 134.522C69.8093 134.476 70.0646 134.603 70.2271 134.73C70.2968 134.788 70.2968 135.043 70.2271 135.17C68.5675 138.471 66.8846 141.759 65.2366 145.06C64.7723 145.975 64.3893 146.936 64.0063 147.885C63.9251 148.094 63.9367 148.337 63.9135 148.568C63.9831 148.603 64.0411 148.626 64.1108 148.661L64.0876 148.65Z" fill="white"/>
<path d="M179.869 133.515C179.486 132.971 179.15 132.392 178.72 131.894C177.026 129.914 175.332 127.934 173.602 125.977C172.488 124.726 171.316 123.533 170.178 122.306C170.074 122.19 169.935 121.97 169.981 121.866C170.051 121.715 170.248 121.553 170.411 121.53C171.838 121.252 173.219 121.6 174.577 121.924C176.898 122.48 178.906 123.649 180.705 125.236C182.667 126.973 184.082 129.103 185.336 131.362C187.251 134.824 188.562 138.518 189.56 142.316C189.781 143.15 189.433 143.497 188.562 143.266C187.286 142.918 185.997 142.559 184.744 142.143C181.1 140.938 177.595 139.444 174.415 137.233C172.14 135.658 170.283 133.712 169.029 131.246C168.205 129.613 167.66 127.888 167.59 126.035C167.567 125.502 167.556 124.958 167.59 124.425C167.602 124.251 167.753 124.031 167.904 123.95C167.997 123.904 168.229 124.078 168.356 124.193C171.014 126.498 173.66 128.814 176.33 131.107C177.212 131.871 178.152 132.566 179.069 133.272C179.254 133.423 179.486 133.527 179.684 133.654C179.73 133.608 179.788 133.562 179.835 133.504L179.869 133.515Z" fill="white"/>
<path d="M95.1811 151.383C95.0302 153.803 94.5544 155.991 93.6491 158.076C92.3492 161.04 90.5619 163.692 88.5077 166.17C87.1149 167.849 85.5597 169.39 84.0626 170.976C83.668 171.393 83.1457 171.254 83.0064 170.687C82.5654 168.926 82.078 167.178 81.753 165.406C81.2307 162.499 80.8941 159.57 81.045 156.605C81.2191 153.363 81.8923 150.248 83.784 147.515C85.1187 145.593 86.7668 144.018 88.8674 142.941C89.0299 142.86 89.3433 142.825 89.4594 142.918C89.5754 143.022 89.5986 143.323 89.5522 143.508C89.0183 146.033 88.4496 148.546 87.939 151.07C87.556 152.957 87.2426 154.857 86.906 156.756C86.906 156.779 86.906 156.79 86.906 156.814C86.9641 157.103 87.0221 157.381 87.0917 157.671C87.289 157.462 87.5908 157.277 87.6836 157.022C88.9371 153.56 90.1789 150.097 91.3976 146.635C91.6761 145.847 91.8386 145.014 92.0939 144.215C92.1635 144.018 92.3492 143.809 92.5349 143.717C92.6162 143.682 92.8947 143.879 92.9876 144.029C94.0321 145.708 94.7285 147.503 94.949 149.472C95.0302 150.167 95.1231 150.85 95.1811 151.394V151.383Z" fill="white"/>
<path d="M52.575 121.414C52.7374 121.414 52.8419 121.391 52.9231 121.414C53.2133 121.518 53.4918 121.634 53.7704 121.738C53.6195 121.982 53.5034 122.271 53.3177 122.479C51.8902 124.078 50.4279 125.652 49.0119 127.25C47.8397 128.582 46.6907 129.937 45.5417 131.292C45.0659 131.848 44.6133 132.427 44.1722 133.017C44.0794 133.145 44.091 133.353 44.0678 133.527C44.2187 133.469 44.3927 133.457 44.5088 133.365C45.7042 132.45 46.9112 131.547 48.0718 130.597C49.4994 129.451 50.9153 128.281 52.2848 127.077C53.3526 126.139 54.3391 125.12 55.372 124.147C55.4881 124.031 55.7086 123.939 55.8594 123.962C55.9871 123.985 56.1844 124.182 56.1844 124.321C56.2192 124.958 56.2541 125.594 56.1844 126.22C55.9755 127.841 55.6621 129.439 54.8381 130.887C54.1998 131.998 53.5963 133.179 52.7723 134.141C51.0198 136.202 48.8262 137.73 46.4354 139.027C42.8491 140.973 39.0192 142.223 35.108 143.289C34.342 143.497 33.9241 143.092 34.1447 142.328C35.0151 139.328 35.9784 136.364 37.3131 133.527C38.3228 131.361 39.495 129.289 40.969 127.413C43.383 124.355 46.4934 122.341 50.393 121.657C51.1358 121.53 51.8902 121.495 52.5866 121.414H52.575Z" fill="white"/>
<path d="M133.655 130.145C132.923 130.18 132.192 130.261 131.473 130.249C127.178 130.307 122.977 129.253 118.996 127.713C113.739 126.057 107.901 126.161 102.713 128.037C98.3144 129.74 93.5327 130.608 88.8207 130.168C88.0895 130.157 87.37 130.064 86.6504 129.948C98.7206 142.57 123.998 142.547 136.045 129.913C135.976 129.913 135.906 129.936 135.837 129.948C135.117 130.099 134.386 130.087 133.655 130.145Z" fill="white"/>
<path d="M158.526 114.061C158.12 114.86 157.691 115.647 157.226 116.423C155.706 118.878 153.733 121.032 151.574 122.954C150.147 124.17 148.592 125.213 146.967 126.151C155.126 124.298 162.902 121.542 167.997 117.431C168.867 116.736 169.691 116.018 170.504 115.3C170.341 114.895 170.19 114.489 170.063 114.073H158.515L158.526 114.061Z" fill="white"/>
<path d="M32.8672 74.0169C32.8556 74.6191 32.8672 75.2328 32.8788 75.835C34.2947 75.4528 35.8151 75.2444 37.3007 75.2444C37.9158 75.2444 38.5077 75.2907 39.0996 75.3486C39.2621 70.0218 40.5736 64.776 42.5118 60.0167C44.2875 55.512 46.8756 51.7833 48.3264 47.3597C48.2567 54.2266 45.4017 60.8157 45.2624 67.6479C45.0419 70.9714 45.1928 74.2369 45.7266 77.4909C49.4638 79.6216 52.3188 83.0956 53.6187 87.276H55.6846C55.3364 86.5117 54.9882 85.759 54.6748 84.9832L53.5491 81.6481C51.5993 74.9549 51.2511 67.8679 53.3518 61.2326C54.0597 59.1018 54.9418 57.0406 56.1604 55.2225C53.5839 63.3517 55.2551 72.1178 59.236 79.3321L60.7564 81.9376C61.592 83.1304 62.5669 84.4158 63.4258 85.5969C63.89 86.1528 64.4471 86.7202 64.9229 87.276H65.2015C66.5362 85.1916 68.1378 83.2925 69.9483 81.6481C66.304 77.5372 63.6579 72.7547 62.1491 67.5552C61.65 65.6214 61.2554 63.6759 61.1626 61.7305C63.7507 68.5743 68.7065 74.2948 74.7416 78.1278C81.74 73.9011 90.5025 72.8473 98.3133 75.1633C101.308 69.7554 103.362 63.6759 103.327 57.4575C103.188 53.335 101.633 49.2125 100.077 45.2058C102.213 48.9346 104.43 52.7444 105.3 57.2259C106.379 63.757 105.219 70.5776 102.956 76.7498C101.319 81.347 99.0909 85.9096 99.4855 90.7616L123.382 90.8774C123.788 86.0254 121.618 81.4976 119.947 76.9235C117.614 70.7166 116.395 63.8265 117.475 57.2374C118.334 52.7676 120.539 48.9462 122.663 45.2174C121.096 49.2241 119.529 53.335 119.378 57.4575C119.32 63.7802 121.421 69.9292 124.462 75.4181C132.11 73.1716 140.733 74.2138 147.592 78.3362C153.767 74.5148 158.85 68.6901 161.485 61.7421C161.38 63.6875 160.986 65.633 160.498 67.5668C158.966 72.8705 156.239 77.7341 152.49 81.9029C154.219 83.4893 155.751 85.3074 157.04 87.2876H157.724C158.2 86.7433 158.746 86.1643 159.221 85.6085C160.08 84.4157 161.044 83.1535 161.891 81.9492L163.411 79.3437C167.404 72.1294 169.063 63.3633 166.487 55.2341C167.705 57.0522 168.588 59.1134 169.295 61.2441C171.396 67.8679 171.048 74.9549 169.098 81.6597L167.972 84.9948C167.659 85.759 167.311 86.5233 166.963 87.2876H170.061C171.222 83.5704 173.625 80.3975 176.781 78.2436C177.443 74.7696 177.629 71.2377 177.385 67.671C177.246 60.8388 174.391 54.2498 174.321 47.3829C175.783 51.8064 178.36 55.5352 180.135 60.0398C182.097 64.8339 183.408 70.1376 183.559 75.4991C185.579 75.1517 187.761 75.1749 189.78 75.6149C190.326 60.3409 180.24 45.4606 181.006 40.5506C181.714 35.3975 193.854 25.4735 189.803 12.967C186.681 3.32088 180.588 0.00899319 173.973 0.00899319C165.779 -0.280507 155.577 6.51696 150.97 6.33168C146.455 6.33168 138.749 2.64924 131.773 2.64924C124.798 2.64924 118.415 6.69066 111.324 6.69066C104.232 6.69066 97.8491 2.64924 90.8739 2.64924C83.8987 2.64924 76.1923 6.33168 71.6776 6.33168C67.0468 6.50538 56.8916 -0.268927 48.6862 0.00899319C42.0824 0.00899319 35.9776 3.3093 32.8672 12.9439C28.8167 25.4503 40.9566 35.386 41.6645 40.5275C42.3725 45.6806 33.2502 58.187 32.8788 74.0053L32.8672 74.0169ZM84.9548 68.8638C73.1399 68.6553 70.4009 52.6518 81.2641 48.4482C81.415 52.6402 82.2274 56.7858 83.6434 60.6999C84.2469 62.46 85.0361 64.1507 85.8369 65.7719C85.6396 63.9539 85.4887 62.159 85.5235 60.3756C85.5584 56.1952 86.2431 52.038 87.6822 48.1471C99.4623 51.5517 97.3384 68.5627 84.9432 68.8638H84.9548ZM138.737 68.8638C127.073 68.6785 124.183 52.9528 134.791 48.5524C134.942 52.7097 135.766 56.8321 137.159 60.7115C137.762 62.4716 138.551 64.1623 139.352 65.7835C139.155 63.9654 139.004 62.1705 139.039 60.3872C139.074 56.1837 139.77 52.0033 141.221 48.1008C153.21 51.2853 151.248 68.5627 138.725 68.8754L138.737 68.8638ZM165.953 9.88675C170.444 8.20765 175.342 7.72129 180.17 7.67497C176.944 8.03395 173.903 9.66673 171.918 12.1101C176.77 12.0175 181.401 15.6536 182.213 20.193C181.308 19.1623 179.834 18.6412 178.429 18.7455C177.687 18.8034 177.176 19.4982 177.327 20.2277C177.791 22.4974 177.803 27.7431 177.373 28.5422C176.062 30.9971 174.332 32.0162 171.408 31.5645C165.57 30.6497 160.092 21.791 155.194 18.6297C157.376 14.5419 161.461 11.5543 165.953 9.87517V9.88675ZM122.338 11.3806C130.938 11.4153 140.095 14.125 146.049 20.5983C141.128 19.5792 134.768 17.9349 129.905 16.8116C125.019 15.6304 118.554 14.3335 113.761 12.7007C116.57 11.7511 119.459 11.4037 122.349 11.369L122.338 11.3806ZM126.156 22.4048C130.473 22.2079 134.803 22.7522 138.981 23.8407C142.079 24.7439 145.109 25.844 147.964 27.3263C148.904 27.8358 149.832 28.3685 150.749 28.9011C154.417 31.0782 157.713 33.869 160.475 37.1114C158.351 36.5903 156.413 35.8723 154.475 35.2007C152.513 34.6101 150.656 33.8574 148.706 33.2552C146.803 32.6415 144.946 31.9698 143.031 31.4256C141.163 30.7771 139.248 30.3255 137.379 29.7581C129.545 27.72 122.013 26.2725 113.749 25.6935C117.486 23.4817 121.862 22.6479 126.156 22.4048ZM120.539 34.1237C125.866 33.2668 131.541 33.9269 136.369 36.5208C138.772 37.8988 140.907 39.8211 142.172 42.2413C139.607 41.2454 137.344 40.4696 135.011 39.8674C127.688 38.1073 120.469 37.9683 112.96 36.7408C115.304 35.3165 117.904 34.5753 120.539 34.1353V34.1237ZM102.016 37.7367C97.1179 38.2346 92.4175 38.7557 87.659 39.8674C85.3262 40.4696 83.0631 41.2454 80.4981 42.2413C81.7632 39.8327 83.8987 37.9104 86.3011 36.5208C93.4968 32.7804 102.608 32.7804 109.71 36.7292C107.029 37.1924 104.511 37.4588 102.016 37.7251V37.7367ZM83.5621 15.3294C91.2917 11.4385 100.553 10.1068 108.91 12.7123C104.14 14.3451 97.6286 15.642 92.7657 16.8232C87.8795 17.9464 81.5659 19.5792 76.6217 20.6098C78.5599 18.3749 80.9972 16.6958 83.5621 15.3409V15.3294ZM71.9097 28.9011C72.8266 28.3685 73.7551 27.8358 74.6952 27.3263C77.5502 25.844 80.591 24.7439 83.6782 23.8407C91.9068 21.7678 101.296 21.4205 108.91 25.6935C100.658 26.2725 93.1138 27.72 85.2798 29.7581C83.3996 30.3255 81.4963 30.7887 79.6277 31.4256C77.7127 31.9698 75.8558 32.6415 73.9524 33.2552C72.0142 33.8458 70.1456 34.6101 68.1842 35.2007C66.2344 35.8607 64.3078 36.5903 62.1839 37.1114C64.9461 33.869 68.2538 31.0898 71.9097 28.9011ZM42.4886 7.57075C51.7153 7.51285 62.7758 9.90991 67.4646 18.537C62.5553 21.6984 57.0773 30.5571 51.2511 31.4719C48.3264 31.9235 46.5971 30.9045 45.2856 28.4495C44.8562 27.6505 44.8678 22.3932 45.332 20.1351C45.4829 19.4055 44.9722 18.7107 44.2295 18.6528C42.8251 18.5486 41.3512 19.0697 40.4459 20.1003C41.2467 15.561 45.8775 11.9133 50.7404 12.0175C48.7558 9.57409 45.715 7.94131 42.4886 7.58233V7.57075Z" fill="white"/>
<path d="M66.4216 118.16C65.4467 116.887 64.6227 115.497 63.9147 114.061H53.6434C53.4461 114.71 53.1908 115.335 52.9238 115.949C53.5041 116.447 54.0612 116.944 54.6647 117.431C59.7017 121.495 67.3384 124.228 75.3814 126.081C74.4297 125.514 73.4896 124.923 72.596 124.286C70.2283 122.596 68.2089 120.453 66.4332 118.172L66.4216 118.16Z" fill="white"/>
<path d="M60.9195 102.018C60.9776 99.0996 61.3606 96.1699 62.2658 93.4023C58.6448 93.4023 52.923 93.4023 49.3136 93.4023C47.7352 93.298 48.4315 91.26 48.0601 90.2293C47.5843 87.7975 46.2612 85.5742 44.381 83.9645C34.8061 76.2754 22.3877 86.9869 27.5291 97.3163C27.947 98.1501 28.5737 98.8564 29.3513 99.3544C31.5564 100.779 34.0285 101.474 36.7443 102.365C34.2606 104.114 30.8949 104.218 28.1327 102.967C23.5715 109.857 28.2371 119.457 36.5934 119.955C41.8857 120.372 46.9924 116.493 48.0253 111.305C48.4547 110.24 47.7119 108.039 49.3136 107.947H61.6739C61.2329 106.001 60.9892 104.01 60.9195 102.029V102.018Z" fill="white"/>
<path d="M194.086 100.72C191.568 98.335 188.133 97.3044 184.813 96.2506C188.225 93.923 193.158 94.4788 196.048 97.5012C200.69 89.0825 192.496 79.0079 183.258 81.8334C179.416 82.9683 176.364 86.3265 175.656 90.2637C175.285 91.2943 175.97 93.2861 174.414 93.3903H160.069C161.625 98.0571 161.857 103.106 160.766 107.935H174.414C174.995 107.935 175.459 108.41 175.459 108.977C175.424 113.401 178.233 117.523 182.306 119.156C189.142 122.097 197.325 116.747 197.383 109.313C197.441 107.124 196.849 105.075 195.793 103.338C195.7 103.187 195.618 103.036 195.549 102.874C195.177 102.087 194.748 101.311 194.11 100.72H194.086Z" fill="white"/>
<path d="M152.769 114.06C167.056 94.6291 147.024 70.8553 124.973 76.3211C126.946 79.853 129.07 83.6049 129.894 87.6927C130.265 90.8772 131.739 96.3661 128.141 98.0336H128.327L118.763 105.827C114.434 109.359 108.214 109.359 103.885 105.827L94.3444 98.0452C93.2419 97.4778 92.4527 96.424 92.2902 95.1502C91.559 88.538 94.182 82.0764 97.5361 76.5643C70.1692 70.4384 52.2612 104.82 77.4461 120.464C83.017 123.718 89.8761 124.656 96.155 123.232C97.9771 122.85 99.718 122.12 101.471 121.506C107.761 119.387 114.701 119.364 121.003 121.448C131.878 126.335 145.446 123.764 152.757 114.049L152.769 114.06ZM72.8502 96.6324C74.3705 94.8839 79.4191 98.0452 78.5023 99.7243C77.5854 101.369 71.9449 98.6821 72.8502 96.6324ZM74.2081 106.892C71.2601 104.287 74.6027 103.453 76.8078 104.877C81.5895 107.9 77.272 109.579 74.2081 106.892ZM81.543 115.786C80.5797 117.523 74.8232 114.489 75.8909 112.694C76.8542 110.957 82.6108 113.991 81.543 115.786ZM83.2607 104.125C84.224 102.388 89.9806 105.422 88.9128 107.217C87.9495 108.954 82.193 105.92 83.2607 104.125ZM90.7118 116.318C89.7485 118.055 83.9919 115.022 85.0597 113.227C86.023 111.49 91.7795 114.524 90.7118 116.318Z" fill="white"/>
<path d="M104.024 100.975C107.912 105.341 114.748 105.341 118.636 100.975L123.371 95.6602H99.2891L104.024 100.975Z" fill="white"/>
</svg>
