<svg width="240" height="223" viewBox="0 0 240 223" fill="none" xmlns="http://www.w3.org/2000/svg">
<path d="M27.8195 190.905C27.6106 191.704 27.483 191.774 26.8446 191.832H2.79704C2.10068 191.774 1.97302 191.704 1.77571 190.905L1.67126 190.5H0V199H1.65965L1.76411 198.594C1.97302 197.795 2.10068 197.738 2.73901 197.668H11.1069V218.836C11.0489 219.531 10.9793 219.658 10.1784 219.855L9.77223 219.96V221.616H19.7998V219.96L19.3936 219.855C18.6044 219.647 18.5347 219.531 18.4651 218.859V197.668H26.7866C27.483 197.726 27.6106 197.795 27.8079 198.594L27.9124 199H29.572V190.5H27.9124L27.8079 190.905H27.8195Z" fill="black"/>
<path d="M63.3921 195.503C60.2701 192.608 56.475 191.311 51.1246 191.311C45.7742 191.311 42.1184 192.643 38.9383 195.491C35.9092 198.247 34.0986 202.428 34.0986 206.689C34.0986 210.951 35.8627 215.096 38.9267 217.887C41.9559 220.736 45.9599 222.125 51.1594 222.125C56.3589 222.125 60.3165 220.782 63.3805 217.899C66.4097 215.143 68.2202 211.043 68.2202 206.909C68.2202 202.37 66.5489 198.421 63.3921 195.491V195.503ZM51.171 216.173C45.5537 216.173 41.6309 212.282 41.6309 206.701C41.6309 201.119 45.5305 197.275 51.1246 197.275C56.7187 197.275 60.6995 201.131 60.6995 206.875C60.6995 212.259 56.6839 216.173 51.1594 216.173H51.171Z" fill="black"/>
<path d="M103.583 216.74L98.5111 209.526C103.432 208.495 105.916 205.6 105.916 200.887C105.916 197.726 104.627 195.074 102.388 193.638C100.38 192.318 97.9772 191.832 93.5089 191.832H75.0322V193.487L75.4384 193.592C76.2392 193.8 76.2973 193.928 76.3669 194.564V218.813C76.3089 219.508 76.2392 219.635 75.4384 219.832L75.0322 219.936V221.592H85.0598V219.936L84.6536 219.832C83.8644 219.624 83.7947 219.508 83.7251 218.836V209.908H90.561L96.1783 218.107C96.6658 218.778 97.1068 219.438 97.1184 219.6C97.0952 219.635 96.9443 219.774 96.5149 219.82L96.039 219.878V221.604H107.529V219.855L107.018 219.82C105.974 219.751 105.672 219.635 103.595 216.74H103.583ZM83.7251 197.656H92.8706C95.7373 197.656 96.3872 197.737 97.2577 198.235C98.0817 198.698 98.5691 199.683 98.5691 200.852C98.5691 202.022 98.0817 203.053 97.2693 203.504C96.3988 203.956 95.7141 204.083 92.8706 204.083H83.7251V197.656Z" fill="black"/>
<path d="M146.107 217.551L135.453 196.081C134.989 195.201 134.78 194.483 134.78 194.182C134.78 194.066 135.035 193.765 135.639 193.592L136.033 193.476V191.832H124.764V193.464L125.147 193.58C125.878 193.812 125.971 194.159 125.971 194.437C125.971 194.669 125.89 195.109 125.507 195.873L114.957 217.921C114.098 219.6 113.854 219.705 113.077 219.82L112.612 219.89V221.592H123.197V219.925L122.779 219.82C122.141 219.67 121.816 219.427 121.816 219.102C121.816 219.056 121.827 218.767 122.152 218.002L123.94 214.274H136.312L138.134 218.002C138.366 218.512 138.47 218.825 138.47 219.068C138.47 219.265 138.47 219.682 137.565 219.82L137.089 219.89V221.604H148.753V219.902L148.289 219.832C147.43 219.705 147.105 219.461 146.107 217.551ZM130.172 200.91L133.979 209.283H126.296L130.172 200.91Z" fill="black"/>
<path d="M183.049 216.925L172.325 204.06L181.645 196.568C182.574 195.78 183.537 195.004 184.303 194.391C184.431 194.263 184.558 194.171 184.686 194.078L184.814 193.985C185.15 193.765 185.324 193.673 185.87 193.603L186.345 193.545V191.832H173.474V193.534L173.939 193.603C174.507 193.696 174.705 193.846 174.728 193.87C174.728 193.916 174.612 194.148 173.683 194.866L163.157 203.423V194.611C163.215 193.916 163.284 193.789 164.085 193.592L164.491 193.487V191.832H154.464V193.487L154.87 193.592C155.671 193.8 155.729 193.928 155.799 194.564V218.813C155.741 219.508 155.671 219.635 154.87 219.832L154.464 219.936V221.592H164.491V219.936L164.085 219.832C163.284 219.624 163.226 219.496 163.157 218.859V211.425L166.836 208.414L174.995 218.419C175.54 219.114 175.842 219.496 175.842 219.6C175.842 219.6 175.749 219.739 175.215 219.832L174.763 219.913V221.604H187.065V219.89L186.589 219.832C185.463 219.681 185.394 219.682 183.015 216.925H183.049Z" fill="black"/>
<path d="M218.877 195.491C215.755 192.596 211.96 191.299 206.61 191.299C201.26 191.299 197.604 192.631 194.424 195.48C191.395 198.236 189.584 202.416 189.584 206.678C189.584 210.939 191.348 215.085 194.412 217.875C197.441 220.724 201.445 222.114 206.645 222.114C211.844 222.114 215.802 220.77 218.866 217.887C221.895 215.131 223.706 211.032 223.706 206.898C223.706 202.358 222.034 198.409 218.877 195.48V195.491ZM206.656 216.173C201.039 216.173 197.116 212.282 197.116 206.701C197.116 201.119 201.016 197.275 206.61 197.275C212.204 197.275 216.185 201.131 216.185 206.874C216.185 212.259 212.169 216.173 206.645 216.173H206.656Z" fill="black"/>
<path d="M231.723 216.335V214.741H240V223H238.402V216.335H231.723ZM240 212.523H231.723V214.117H240V212.523ZM231.098 214.741V212.523H229.5V223H231.098V220.782H235.555V219.188H231.098V214.741ZM236.18 218.553V221.406H231.723V223H237.777V216.959H231.723V218.553H236.18Z" fill="#DC001B"/>
<path d="M112.937 148.35C112.995 147.62 112.995 146.868 113.123 146.15C113.204 145.652 113.587 145.594 113.947 145.953C116.291 148.269 117.765 151.048 118.253 154.313C118.682 157.185 118.229 159.999 117.463 162.755C116.639 165.72 115.432 168.545 114.016 171.278C113.506 172.262 112.949 173.212 112.403 174.173C111.997 174.88 111.498 174.903 111.127 174.173C109.92 171.846 108.713 169.518 107.61 167.144C106.589 164.921 105.857 162.57 105.463 160.138C105.161 158.32 104.952 156.514 105.242 154.638C105.498 153.028 105.892 151.476 106.6 150.029C107.366 148.466 108.388 147.064 109.687 145.883C109.804 145.779 110.082 145.71 110.187 145.779C110.326 145.872 110.442 146.103 110.453 146.289C110.511 147.308 110.523 148.338 110.581 149.357C110.72 151.465 110.883 153.584 111.034 155.691C111.138 157.127 111.254 158.552 111.394 159.976C111.417 160.161 111.626 160.335 111.742 160.509C111.869 160.37 112.078 160.242 112.09 160.092C112.218 159.108 112.322 158.112 112.415 157.116C112.577 155.402 112.763 153.7 112.856 151.986C112.926 150.77 112.867 149.554 112.867 148.338C112.891 148.338 112.914 148.338 112.937 148.338V148.35Z" fill="black"/>
<path d="M142.881 158.331C142.602 160.45 142.347 162.905 141.941 165.337C141.65 167.085 141.198 168.811 140.792 170.536C140.734 170.779 140.525 171.069 140.316 171.15C140.153 171.208 139.817 171.034 139.654 170.872C137.043 168.44 134.722 165.765 132.737 162.812C130.973 160.195 129.522 157.404 128.895 154.266C128.187 150.688 128.872 147.318 130.636 144.145C130.752 143.948 131.008 143.821 131.193 143.659C131.356 143.867 131.6 144.041 131.681 144.272C132.215 145.905 132.667 147.561 133.224 149.194C134.153 151.857 135.139 154.498 136.138 157.138C136.219 157.346 136.486 157.474 136.671 157.647C136.718 157.416 136.834 157.173 136.787 156.964C135.998 152.68 135.174 148.395 134.385 144.11C134.304 143.693 133.805 143.138 134.397 142.86C134.664 142.732 135.197 143.091 135.569 143.3C137.867 144.655 139.608 146.565 140.838 148.928C141.674 150.526 142.219 152.24 142.428 154.046C142.579 155.355 142.718 156.675 142.892 158.331H142.881Z" fill="black"/>
<path d="M159.953 148.534C159.791 148.047 159.686 147.538 159.466 147.086C157.829 143.67 156.17 140.254 154.51 136.849C154.255 136.328 153.883 135.865 153.616 135.356C153.524 135.17 153.477 134.846 153.57 134.695C153.651 134.568 153.999 134.533 154.197 134.58C157.249 135.263 159.756 136.872 161.787 139.2C163.563 141.238 164.677 143.658 165.385 146.241C165.919 148.186 166.302 150.166 166.65 152.158C166.882 153.49 166.929 154.856 167.021 156.211C167.091 157.288 167.137 158.377 167.126 159.454C167.126 159.789 166.975 160.264 166.731 160.426C166.534 160.554 166.035 160.368 165.768 160.195C163.54 158.747 161.253 157.369 159.118 155.783C156.042 153.49 153.315 150.815 151.504 147.364C150.576 145.592 150.088 143.682 149.891 141.678C149.728 140.011 150.077 138.436 150.39 136.838C150.425 136.641 150.634 136.398 150.819 136.351C150.97 136.305 151.272 136.456 151.376 136.618C153.373 139.582 155.346 142.57 157.354 145.523C158.038 146.53 158.828 147.468 159.582 148.429C159.64 148.499 159.721 148.545 159.791 148.603L159.977 148.534H159.953Z" fill="black"/>
<path d="M64.0876 148.65C64.5866 148.013 65.1205 147.387 65.5847 146.727C67.4069 144.133 69.2174 141.539 71.0047 138.922C71.4922 138.216 71.8752 137.44 72.3394 136.711C72.4555 136.537 72.6992 136.328 72.8733 136.352C73.0474 136.363 73.2795 136.606 73.3259 136.803C73.8018 138.54 73.9875 140.289 73.825 142.107C73.5116 145.523 72.0725 148.43 69.8557 150.919C68.3121 152.656 66.5945 154.266 64.7491 155.667C62.5324 157.358 60.1183 158.782 57.7739 160.287C57.1356 160.693 56.6829 160.461 56.6946 159.72C56.7178 158.029 56.7874 156.35 56.9151 154.66C57.0195 153.293 57.1704 151.927 57.3793 150.572C57.7623 148.071 58.4238 145.639 59.4452 143.311C60.2924 141.366 61.4298 139.594 62.985 138.135C64.8768 136.352 67.1167 135.17 69.6352 134.522C69.8093 134.476 70.0646 134.603 70.2271 134.73C70.2968 134.788 70.2968 135.043 70.2271 135.17C68.5675 138.471 66.8846 141.759 65.2366 145.06C64.7723 145.975 64.3893 146.936 64.0063 147.885C63.9251 148.094 63.9367 148.337 63.9135 148.568C63.9831 148.603 64.0411 148.626 64.1108 148.661L64.0876 148.65Z" fill="black"/>
<path d="M179.868 133.515C179.485 132.971 179.149 132.392 178.72 131.894C177.025 129.914 175.331 127.934 173.601 125.977C172.487 124.726 171.315 123.533 170.178 122.306C170.073 122.19 169.934 121.97 169.98 121.866C170.05 121.715 170.247 121.553 170.41 121.53C171.837 121.252 173.218 121.6 174.576 121.924C176.897 122.48 178.905 123.649 180.704 125.236C182.666 126.973 184.081 129.103 185.335 131.362C187.25 134.824 188.561 138.518 189.559 142.316C189.78 143.15 189.432 143.497 188.561 143.266C187.285 142.918 185.996 142.559 184.743 142.143C181.099 140.938 177.594 139.444 174.414 137.233C172.139 135.658 170.282 133.712 169.029 131.246C168.204 129.613 167.659 127.888 167.589 126.035C167.566 125.502 167.555 124.958 167.589 124.425C167.601 124.251 167.752 124.031 167.903 123.95C167.996 123.904 168.228 124.078 168.355 124.193C171.013 126.498 173.659 128.814 176.329 131.107C177.211 131.871 178.151 132.566 179.068 133.272C179.253 133.423 179.485 133.527 179.683 133.654C179.729 133.608 179.787 133.562 179.834 133.504L179.868 133.515Z" fill="black"/>
<path d="M95.1801 151.383C95.0292 153.803 94.5534 155.991 93.6481 158.076C92.3483 161.04 90.5609 163.692 88.5067 166.17C87.114 167.849 85.5588 169.39 84.0616 170.976C83.667 171.393 83.1447 171.254 83.0054 170.687C82.5644 168.926 82.077 167.178 81.752 165.406C81.2297 162.499 80.8932 159.57 81.044 156.605C81.2181 153.363 81.8913 150.248 83.7831 147.515C85.1177 145.593 86.7658 144.018 88.8665 142.941C89.029 142.86 89.3423 142.825 89.4584 142.918C89.5744 143.022 89.5977 143.323 89.5512 143.508C89.0174 146.033 88.4487 148.546 87.938 151.07C87.555 152.957 87.2416 154.857 86.9051 156.756C86.9051 156.779 86.9051 156.79 86.9051 156.814C86.9631 157.103 87.0211 157.381 87.0908 157.671C87.2881 157.462 87.5898 157.277 87.6827 157.022C88.9361 153.56 90.1779 150.097 91.3966 146.635C91.6751 145.847 91.8376 145.014 92.0929 144.215C92.1626 144.018 92.3483 143.809 92.534 143.717C92.6152 143.682 92.8938 143.879 92.9866 144.029C94.0311 145.708 94.7275 147.503 94.948 149.472C95.0292 150.167 95.1221 150.85 95.1801 151.394V151.383Z" fill="black"/>
<path d="M52.5745 121.414C52.737 121.414 52.8414 121.391 52.9226 121.414C53.2128 121.518 53.4913 121.634 53.7699 121.738C53.619 121.982 53.5029 122.271 53.3172 122.479C51.8897 124.078 50.4274 125.652 49.0114 127.25C47.8392 128.582 46.6902 129.937 45.5412 131.292C45.0654 131.848 44.6128 132.427 44.1717 133.017C44.0789 133.145 44.0905 133.353 44.0673 133.527C44.2182 133.469 44.3923 133.457 44.5083 133.365C45.7037 132.45 46.9107 131.547 48.0713 130.597C49.4989 129.451 50.9148 128.281 52.2843 127.077C53.3521 126.139 54.3386 125.12 55.3715 124.147C55.4876 124.031 55.7081 123.939 55.859 123.962C55.9866 123.985 56.1839 124.182 56.1839 124.321C56.2187 124.958 56.2536 125.594 56.1839 126.22C55.975 127.841 55.6617 129.439 54.8376 130.887C54.1993 131.998 53.5958 133.179 52.7718 134.141C51.0193 136.202 48.8257 137.73 46.4349 139.027C42.8487 140.973 39.0187 142.223 35.1075 143.289C34.3415 143.497 33.9237 143.092 34.1442 142.328C35.0146 139.328 35.9779 136.364 37.3126 133.527C38.3223 131.361 39.4945 129.289 40.9685 127.413C43.3825 124.355 46.4929 122.341 50.3925 121.657C51.1353 121.53 51.8897 121.495 52.5861 121.414H52.5745Z" fill="black"/>
<path d="M133.654 130.145C132.922 130.18 132.191 130.261 131.472 130.249C127.177 130.307 122.976 129.253 118.995 127.713C113.738 126.057 107.9 126.161 102.712 128.037C98.3134 129.74 93.5318 130.608 88.8197 130.168C88.0885 130.157 87.369 130.064 86.6494 129.948C98.7196 142.57 123.997 142.547 136.044 129.913C135.975 129.913 135.905 129.936 135.836 129.948C135.116 130.099 134.385 130.087 133.654 130.145Z" fill="black"/>
<path d="M158.525 114.061C158.119 114.86 157.69 115.647 157.226 116.423C155.705 118.878 153.732 121.032 151.573 122.954C150.146 124.17 148.591 125.213 146.966 126.151C155.125 124.298 162.901 121.542 167.996 117.431C168.866 116.736 169.69 116.018 170.503 115.3C170.34 114.895 170.189 114.489 170.062 114.073H158.514L158.525 114.061Z" fill="black"/>
<path d="M32.8667 74.0169C32.8551 74.6191 32.8667 75.2328 32.8783 75.835C34.2943 75.4528 35.8146 75.2444 37.3002 75.2444C37.9153 75.2444 38.5072 75.2907 39.0991 75.3486C39.2616 70.0218 40.5731 64.776 42.5113 60.0167C44.287 55.512 46.8751 51.7833 48.3259 47.3597C48.2562 54.2266 45.4012 60.8157 45.2619 67.6479C45.0414 70.9714 45.1923 74.2369 45.7261 77.4909C49.4633 79.6216 52.3183 83.0956 53.6182 87.276H55.6841C55.3359 86.5117 54.9877 85.759 54.6744 84.9832L53.5486 81.6481C51.5988 74.9549 51.2506 67.8679 53.3513 61.2326C54.0592 59.1018 54.9413 57.0406 56.1599 55.2225C53.5834 63.3517 55.2547 72.1178 59.2355 79.3321L60.7559 81.9376C61.5915 83.1304 62.5664 84.4158 63.4253 85.5969C63.8895 86.1528 64.4466 86.7202 64.9224 87.276H65.201C66.5357 85.1916 68.1373 83.2925 69.9478 81.6481C66.3035 77.5372 63.6574 72.7547 62.1486 67.5552C61.6495 65.6214 61.2549 63.6759 61.1621 61.7305C63.7502 68.5743 68.706 74.2948 74.7411 78.1278C81.7395 73.9011 90.502 72.8473 98.3128 75.1633C101.307 69.7554 103.361 63.6759 103.327 57.4575C103.187 53.335 101.632 49.2125 100.077 45.2058C102.212 48.9346 104.429 52.7444 105.3 57.2259C106.379 63.757 105.218 70.5776 102.955 76.7498C101.319 81.347 99.0904 85.9096 99.485 90.7616L123.382 90.8774C123.788 86.0254 121.618 81.4976 119.946 76.9235C117.614 70.7166 116.395 63.8265 117.474 57.2374C118.333 52.7676 120.538 48.9462 122.662 45.2174C121.095 49.2241 119.529 53.335 119.378 57.4575C119.32 63.7802 121.42 69.9292 124.461 75.4181C132.109 73.1716 140.733 74.2138 147.592 78.3362C153.766 74.5148 158.85 68.6901 161.484 61.7421C161.38 63.6875 160.985 65.633 160.498 67.5668C158.966 72.8705 156.238 77.7341 152.49 81.9029C154.219 83.4893 155.751 85.3074 157.039 87.2876H157.724C158.2 86.7433 158.745 86.1643 159.221 85.6085C160.08 84.4157 161.043 83.1535 161.89 81.9492L163.411 79.3437C167.403 72.1294 169.063 63.3633 166.486 55.2341C167.705 57.0522 168.587 59.1134 169.295 61.2441C171.396 67.8679 171.048 74.9549 169.098 81.6597L167.972 84.9948C167.659 85.759 167.31 86.5233 166.962 87.2876H170.061C171.222 83.5704 173.624 80.3975 176.781 78.2436C177.442 74.7696 177.628 71.2377 177.384 67.671C177.245 60.8388 174.39 54.2498 174.32 47.3829C175.783 51.8064 178.359 55.5352 180.135 60.0398C182.096 64.8339 183.408 70.1376 183.559 75.4991C185.578 75.1517 187.76 75.1749 189.78 75.6149C190.325 60.3409 180.239 45.4606 181.005 40.5506C181.713 35.3975 193.853 25.4735 189.803 12.967C186.681 3.32088 180.588 0.00899319 173.972 0.00899319C165.778 -0.280507 155.577 6.51696 150.969 6.33168C146.454 6.33168 138.748 2.64924 131.773 2.64924C124.798 2.64924 118.414 6.69066 111.323 6.69066C104.232 6.69066 97.8486 2.64924 90.8734 2.64924C83.8982 2.64924 76.1918 6.33168 71.6771 6.33168C67.0463 6.50538 56.8911 -0.268927 48.6857 0.00899319C42.0819 0.00899319 35.9771 3.3093 32.8667 12.9439C28.8162 25.4503 40.9561 35.386 41.6641 40.5275C42.372 45.6806 33.2497 58.187 32.8783 74.0053L32.8667 74.0169ZM84.9543 68.8638C73.1395 68.6553 70.4005 52.6518 81.2636 48.4482C81.4145 52.6402 82.2269 56.7858 83.6429 60.6999C84.2464 62.46 85.0356 64.1507 85.8364 65.7719C85.6391 63.9539 85.4882 62.159 85.523 60.3756C85.5579 56.1952 86.2426 52.038 87.6818 48.1471C99.4618 51.5517 97.3379 68.5627 84.9427 68.8638H84.9543ZM138.736 68.8638C127.072 68.6785 124.183 52.9528 134.79 48.5524C134.941 52.7097 135.765 56.8321 137.158 60.7115C137.762 62.4716 138.551 64.1623 139.352 65.7835C139.154 63.9654 139.003 62.1705 139.038 60.3872C139.073 56.1837 139.769 52.0033 141.22 48.1008C153.209 51.2853 151.248 68.5627 138.725 68.8754L138.736 68.8638ZM165.952 9.88675C170.444 8.20765 175.342 7.72129 180.17 7.67497C176.943 8.03395 173.903 9.66673 171.918 12.1101C176.769 12.0175 181.4 15.6536 182.212 20.193C181.307 19.1623 179.833 18.6412 178.429 18.7455C177.686 18.8034 177.175 19.4982 177.326 20.2277C177.791 22.4974 177.802 27.7431 177.373 28.5422C176.061 30.9971 174.332 32.0162 171.407 31.5645C165.569 30.6497 160.091 21.791 155.194 18.6297C157.376 14.5419 161.461 11.5543 165.952 9.87517V9.88675ZM122.337 11.3806C130.937 11.4153 140.094 14.125 146.048 20.5983C141.127 19.5792 134.767 17.9349 129.904 16.8116C125.018 15.6304 118.554 14.3335 113.76 12.7007C116.569 11.7511 119.459 11.4037 122.349 11.369L122.337 11.3806ZM126.156 22.4048C130.473 22.2079 134.802 22.7522 138.98 23.8407C142.079 24.7439 145.108 25.844 147.963 27.3263C148.903 27.8358 149.832 28.3685 150.749 28.9011C154.416 31.0782 157.712 33.869 160.474 37.1114C158.351 36.5903 156.412 35.8723 154.474 35.2007C152.513 34.6101 150.656 33.8574 148.706 33.2552C146.803 32.6415 144.946 31.9698 143.031 31.4256C141.162 30.7771 139.247 30.3255 137.379 29.7581C129.545 27.72 122.012 26.2725 113.749 25.6935C117.486 23.4817 121.861 22.6479 126.156 22.4048ZM120.538 34.1237C125.865 33.2668 131.541 33.9269 136.369 36.5208C138.771 37.8988 140.907 39.8211 142.172 42.2413C139.607 41.2454 137.344 40.4696 135.011 39.8674C127.688 38.1073 120.469 37.9683 112.96 36.7408C115.304 35.3165 117.904 34.5753 120.538 34.1353V34.1237ZM102.015 37.7367C97.1174 38.2346 92.417 38.7557 87.6585 39.8674C85.3257 40.4696 83.0626 41.2454 80.4977 42.2413C81.7627 39.8327 83.8982 37.9104 86.3006 36.5208C93.4964 32.7804 102.607 32.7804 109.71 36.7292C107.029 37.1924 104.51 37.4588 102.015 37.7251V37.7367ZM83.5616 15.3294C91.2912 11.4385 100.553 10.1068 108.909 12.7123C104.139 14.3451 97.6281 15.642 92.7652 16.8232C87.8791 17.9464 81.5654 19.5792 76.6213 20.6098C78.5595 18.3749 80.9967 16.6958 83.5616 15.3409V15.3294ZM71.9092 28.9011C72.8261 28.3685 73.7546 27.8358 74.6947 27.3263C77.5497 25.844 80.5905 24.7439 83.6777 23.8407C91.9063 21.7678 101.296 21.4205 108.909 25.6935C100.657 26.2725 93.1134 27.72 85.2793 29.7581C83.3992 30.3255 81.4958 30.7887 79.6272 31.4256C77.7122 31.9698 75.8553 32.6415 73.9519 33.2552C72.0137 33.8458 70.1451 34.6101 68.1837 35.2007C66.2339 35.8607 64.3073 36.5903 62.1834 37.1114C64.9456 33.869 68.2533 31.0898 71.9092 28.9011ZM42.4881 7.57075C51.7148 7.51285 62.7753 9.90991 67.4641 18.537C62.5548 21.6984 57.0768 30.5571 51.2506 31.4719C48.3259 31.9235 46.5966 30.9045 45.2851 28.4495C44.8557 27.6505 44.8673 22.3932 45.3315 20.1351C45.4824 19.4055 44.9718 18.7107 44.229 18.6528C42.8247 18.5486 41.3507 19.0697 40.4454 20.1003C41.2462 15.561 45.877 11.9133 50.7399 12.0175C48.7553 9.57409 45.7145 7.94131 42.4881 7.58233V7.57075Z" fill="black"/>
<path d="M66.4206 118.16C65.4457 116.887 64.6217 115.497 63.9137 114.061H53.6424C53.4451 114.71 53.1898 115.335 52.9229 115.949C53.5032 116.447 54.0602 116.944 54.6637 117.431C59.7007 121.495 67.3375 124.228 75.3804 126.081C74.4287 125.514 73.4886 124.923 72.595 124.286C70.2274 122.596 68.2079 120.453 66.4322 118.172L66.4206 118.16Z" fill="black"/>
<path d="M60.9191 102.018C60.9771 99.0996 61.3601 96.1699 62.2654 93.4023C58.6443 93.4023 52.9225 93.4023 49.3131 93.4023C47.7347 93.298 48.431 91.26 48.0596 90.2293C47.5838 87.7975 46.2607 85.5742 44.3805 83.9645C34.8056 76.2754 22.3872 86.9869 27.5287 97.3163C27.9465 98.1501 28.5732 98.8564 29.3508 99.3544C31.5559 100.779 34.028 101.474 36.7438 102.365C34.2601 104.114 30.8944 104.218 28.1322 102.967C23.571 109.857 28.2366 119.457 36.5929 119.955C41.8853 120.372 46.9919 116.493 48.0248 111.305C48.4542 110.24 47.7115 108.039 49.3131 107.947H61.6734C61.2324 106.001 60.9887 104.01 60.9191 102.029V102.018Z" fill="black"/>
<path d="M194.086 100.72C191.568 98.335 188.133 97.3044 184.813 96.2506C188.225 93.923 193.158 94.4788 196.048 97.5012C200.69 89.0825 192.496 79.0079 183.258 81.8334C179.416 82.9683 176.364 86.3265 175.656 90.2637C175.285 91.2943 175.97 93.2861 174.414 93.3903H160.069C161.625 98.0571 161.857 103.106 160.766 107.935H174.414C174.995 107.935 175.459 108.41 175.459 108.977C175.424 113.401 178.233 117.523 182.306 119.156C189.142 122.097 197.325 116.747 197.383 109.313C197.441 107.124 196.849 105.075 195.793 103.338C195.7 103.187 195.618 103.036 195.549 102.874C195.177 102.087 194.748 101.311 194.11 100.72H194.086Z" fill="black"/>
<path d="M152.769 114.06C167.056 94.6291 147.024 70.8553 124.973 76.3211C126.946 79.853 129.07 83.6049 129.894 87.6927C130.265 90.8772 131.739 96.3661 128.141 98.0336H128.327L118.763 105.827C114.434 109.359 108.214 109.359 103.885 105.827L94.3444 98.0452C93.2419 97.4778 92.4527 96.424 92.2902 95.1502C91.559 88.538 94.182 82.0764 97.5361 76.5643C70.1692 70.4384 52.2612 104.82 77.4461 120.464C83.017 123.718 89.8761 124.656 96.155 123.232C97.9771 122.85 99.718 122.12 101.471 121.506C107.761 119.387 114.701 119.364 121.003 121.448C131.878 126.335 145.446 123.764 152.757 114.049L152.769 114.06ZM72.8502 96.6324C74.3705 94.8839 79.4191 98.0452 78.5023 99.7243C77.5854 101.369 71.9449 98.6821 72.8502 96.6324ZM74.2081 106.892C71.2601 104.287 74.6027 103.453 76.8078 104.877C81.5895 107.9 77.272 109.579 74.2081 106.892ZM81.543 115.786C80.5797 117.523 74.8232 114.489 75.8909 112.694C76.8542 110.957 82.6108 113.991 81.543 115.786ZM83.2607 104.125C84.224 102.388 89.9806 105.422 88.9128 107.217C87.9495 108.954 82.193 105.92 83.2607 104.125ZM90.7118 116.318C89.7485 118.055 83.9919 115.022 85.0597 113.227C86.023 111.49 91.7795 114.524 90.7118 116.318Z" fill="black"/>
<path d="M104.023 100.975C107.911 105.341 114.747 105.341 118.635 100.975L123.37 95.6602H99.2881L104.023 100.975Z" fill="black"/>
</svg>
