<svg width="248" height="80" viewBox="0 0 248 80" fill="none" xmlns="http://www.w3.org/2000/svg">
<path d="M247.985 10.8243C247.985 11.2322 247.637 12.2444 246.942 13.8759C245.977 16.0438 245.313 18.7178 244.966 21.9054C243.097 34.9127 242.163 43.8863 242.163 48.8264C242.163 50.8583 241.985 52.1122 241.646 52.588C241.298 52.928 240.534 53.0941 239.36 53.0941C239.152 53.0941 235.623 52.8902 228.767 52.4823C221.841 52.0064 216.058 51.7723 211.425 51.7723C206.793 51.7723 201.519 51.9384 196.053 52.2783C190.447 52.7542 187.367 52.9884 186.811 52.9884C184.178 52.9884 180.811 51.7949 182.865 47.8066C184.139 45.3291 185.683 43.5388 188.803 43.3349C193.165 42.859 197.342 42.6249 203.843 42.6249C205.364 42.6249 209.001 42.6626 214.753 42.7231C220.498 42.859 223.818 42.927 224.721 42.927C227.84 42.927 229.4 41.439 229.4 38.4553C229.4 38.3193 229.57 36.1212 229.917 31.8535C230.141 28.409 230.272 22.5021 230.319 19.307C230.334 18.2343 229.531 17.3204 228.435 17.1844C227.694 17.0938 226.736 17.0182 225.555 17.0182C225.207 17.0182 223.895 16.9502 221.609 16.8143C219.394 16.7463 217.664 16.7161 216.413 16.7161C209.009 16.7161 202.5 16.988 196.894 17.5243C191.428 18.0002 188.865 18.2343 189.212 18.2343C184.958 18.5289 182.695 16.9729 184.965 12.4408C186.394 9.5855 186.309 7.53092 190.254 7.25899H194.732L200.739 7.1608C205.72 7.09281 208.978 7.0626 210.499 7.0626C212.02 7.0626 216.969 7.19856 225.563 7.47049C234.21 7.8104 239.028 7.97658 240.001 7.97658C245.329 7.97658 248 8.92834 248 10.8243H247.985ZM14.3689 54.8315C14.3689 57.2864 10.7554 57.9813 6.98755 57.9813C3.21968 57.9813 0.787547 57.445 0.787547 55.6019V55.5264C1.33574 45.2384 1.72951 31.3323 1.72951 20.1983C1.72951 13.5964 1.57509 7.98414 1.25853 4.68322C1.18132 3.52752 0 3.22538 0 2.06968C0 0.913984 3.61345 0 6.98755 0C12.0139 0 14.4461 1.53338 14.4461 2.30384C14.4461 3.07431 13.8979 3.14984 13.8207 4.14692C13.589 7.44783 13.4269 14.3594 13.4269 22.5021C13.6585 22.268 13.8207 21.9658 14.1372 21.7317C15.473 20.4249 16.2528 19.813 18.2217 19.813C19.2408 19.813 20.5766 19.9641 22.4605 20.2738C27.873 21.1198 45.0677 29.104 54.333 30.6449C55.4294 30.796 55.8232 31.1812 55.8232 31.793C55.8232 31.9441 55.7459 32.2538 55.6687 32.488C54.2558 37.1712 48.5268 44.3169 44.7589 44.3169C44.3651 44.3169 43.9714 44.2413 43.6625 44.0903C40.2344 42.4511 25.3559 31.9894 16.4613 28.9151C16.2374 28.8396 15.859 28.7263 15.4498 28.5979C14.4538 28.2957 13.4501 29.0284 13.4732 30.0482C13.6276 38.8028 13.867 47.935 14.3766 54.7635V54.839L14.3689 54.8315ZM152.467 39.2031C152.298 40.2606 150.885 40.6685 150.221 42.0508C142.561 58.3439 115.916 78.7763 102.35 80H101.933C97.0227 80 91.4403 73.5643 90.2745 68.3524C90.1895 68.1107 90.1895 67.9445 90.1895 67.7028C90.1895 66.9701 90.6914 66.7283 91.8573 66.7283H93.4401C109.863 66.7283 129.382 53.351 136.23 41.658C136.709 40.8347 136.137 39.8149 135.172 39.7545C132.694 39.611 128.455 39.5279 123.413 39.5279C111.175 39.5279 94.3589 39.9358 87.1938 40.6685H86.5298C85.0319 40.6685 84.3679 39.9358 84.3679 38.8783C84.3679 37.7377 85.0319 36.2723 85.8657 34.8069C87.8655 31.302 89.6954 28.9453 92.7761 28.9453C95.2777 28.9453 121.753 28.7036 134.323 28.7036C137.404 28.7036 139.651 28.7867 140.484 28.7867H140.732C142.229 28.7867 142.06 28.1371 143.31 28.1371C143.48 28.1371 143.727 28.2202 143.974 28.2202C147.055 28.6281 152.467 35.8795 152.467 38.9765V39.2182V39.2031ZM142.893 24.4585C137.319 22.419 126.988 21.6863 117.329 21.6863C107.67 21.6863 98.8448 22.419 95.6792 23.3934C94.8453 23.6352 94.0964 23.8013 93.5173 23.8013C92.1044 23.8013 91.4326 23.0686 91.4326 21.7619C91.4326 20.7044 91.8496 19.3976 92.5136 17.7736C94.5133 13.0526 96.1733 11.912 98.343 11.7458C100.76 11.5041 105.423 11.421 110.998 11.421C124.069 11.421 142.307 11.912 149.379 12.3199C150.375 12.403 150.375 12.7278 150.375 13.5436C150.205 17.9398 146.715 24.5416 143.55 24.5416C143.38 24.5416 143.133 24.5416 142.886 24.4585H142.893Z" fill="white"/>
</svg>
